<svg width="67" height="80" xmlns="http://www.w3.org/2000/svg" xmlns:xlink="http://www.w3.org/1999/xlink" xml:space="preserve" overflow="hidden"><defs><clipPath id="clip0"><rect x="837" y="476" width="67" height="80"/></clipPath></defs><g clip-path="url(#clip0)" transform="translate(-837 -476)"><path d="M27.9981 41.9971 67.9954 41.9971 67.9954 43.997 27.9981 43.997Z" transform="matrix(1.00938 0 0 1 821.647 468.212)"/><path d="M27.9981 33.9977 46.9968 33.9977 46.9968 35.9976 27.9981 35.9976Z" transform="matrix(1.00938 0 0 1 821.647 468.212)"/><path d="M27.9981 49.9966 67.9954 49.9966 67.9954 51.9965 27.9981 51.9965Z" transform="matrix(1.00938 0 0 1 821.647 468.212)"/><path d="M27.9981 57.9961 67.9954 57.9961 67.9954 59.9959 27.9981 59.9959Z" transform="matrix(1.00938 0 0 1 821.647 468.212)"/><path d="M27.9981 65.9955 67.9954 65.9955 67.9954 67.9954 27.9981 67.9954Z" transform="matrix(1.00938 0 0 1 821.647 468.212)"/><path d="M27.9981 73.995 67.9954 73.995 67.9954 75.9948 27.9981 75.9948Z" transform="matrix(1.00938 0 0 1 821.647 468.212)"/><path d="M17.9988 7.99946 17.9988 87.994 77.9947 87.994 77.9947 29.584 56.4102 7.99946ZM57.0131 11.4302 74.5639 28.981C74.5678 28.9849 74.5677 28.9913 74.5638 28.9951 74.5619 28.9969 74.5595 28.998 74.5569 28.998L56.9961 28.998 56.9961 11.4372C56.9962 11.4317 57.0007 11.4273 57.0062 11.4273 57.0088 11.4274 57.0113 11.4284 57.0131 11.4302ZM19.9986 85.9941 19.9986 9.99932 54.9963 9.99932 54.9963 30.9979 75.9948 30.9979 75.9948 85.9941Z" transform="matrix(1.00938 0 0 1 821.647 468.212)"/></g></svg>