<?xml version="1.0" encoding="UTF-8" standalone="no"?>
<!-- Uploaded to: SVG Repo, www.svgrepo.com, Generator: SVG Repo Mixer Tools -->

<svg
   width="800px"
   height="800px"
   viewBox="0 0 24 24"
   version="1.1"
   id="svg2"
   sodipodi:docname="KGIconNode.svg"
   inkscape:export-filename="KGNode.png"
   inkscape:export-xdpi="61.439999"
   inkscape:export-ydpi="61.439999"
   inkscape:version="1.3.2 (091e20ef0f, 2023-11-25, custom)"
   xmlns:inkscape="http://www.inkscape.org/namespaces/inkscape"
   xmlns:sodipodi="http://sodipodi.sourceforge.net/DTD/sodipodi-0.dtd"
   xmlns="http://www.w3.org/2000/svg"
   xmlns:svg="http://www.w3.org/2000/svg">
  <defs
     id="defs2" />
  <sodipodi:namedview
     id="namedview2"
     pagecolor="#ffffff"
     bordercolor="#666666"
     borderopacity="1.0"
     inkscape:showpageshadow="2"
     inkscape:pageopacity="0.0"
     inkscape:pagecheckerboard="0"
     inkscape:deskcolor="#d1d1d1"
     inkscape:zoom="0.99177307"
     inkscape:cx="399.78904"
     inkscape:cy="400.29318"
     inkscape:window-width="1920"
     inkscape:window-height="1011"
     inkscape:window-x="1920"
     inkscape:window-y="45"
     inkscape:window-maximized="1"
     inkscape:current-layer="svg2" />
  <path
     d="m 3.5,12 c 0.015,0 0.028,-0.004 0.042,-0.004 l 0.94,4.226 C 2.8534631,16.944077 2.4832293,19.090289 3.7756737,20.316276 5.0681181,21.542263 7.1918169,21.059353 7.827,19.395 l 7.182,1.197 c 0.0747,1.947034 2.255093,3.058296 3.874426,1.974761 C 20.50276,21.483227 20.307302,19.043794 18.536,18.232 l 1.902,-8.238 c 0.021,0 0.04,0.006 0.062,0.006 1.873457,0.0049 3.086391,-1.9764529 2.23006,-3.6427142 C 21.873728,4.6910245 19.556615,4.5238503 18.47,6.05 L 13.94,4.038 C 14.320875,2.3600414 12.93229,0.80788928 11.222453,1.0003006 9.5126161,1.192712 8.5037254,3.0146567 9.248,4.566 L 5.151,7.637 C 3.843428,6.4792516 1.7816305,6.9885731 1.1635332,8.6219822 0.54543593,10.255391 1.7535402,12.002074 3.5,12 Z m 1.018,-0.222 c 0.5599662,-0.251763 1.0082368,-0.700034 1.26,-1.26 l 4.226,0.94 c 0,0.014 -0.004,0.027 -0.004,0.042 -1.789e-4,0.489983 0.144558,0.969075 0.416,1.377 l -3.54,3.54 C 6.4684959,16.145339 5.9897544,16.000255 5.5,16 5.486,16 5.472,16.004 5.458,16.004 Z m 7.184,-2.635 c -0.657765,0.2216251 -1.193845,0.7066331 -1.48,1.339 L 5.996,9.542 C 5.996,9.528 6,9.515 6,9.5 5.9981836,9.1310146 5.9137865,8.7671162 5.753,8.435 L 9.849,5.363 c 0.405151,0.3594243 0.91694,0.5761527 1.457,0.617 z M 14,11 v 1 c 0,0.552285 -0.447715,1 -1,1 h -1 c -0.552285,0 -1,-0.447715 -1,-1 v -1 c 0,-0.552285 0.447715,-1 1,-1 h 1 c 0.552285,0 1,0.447715 1,1 z M 15.173,19.605 7.99,18.408 C 7.9754146,17.950332 7.8345574,17.505611 7.583,17.123 l 3.54,-3.54 c 0.623131,0.423987 1.408987,0.531334 2.123,0.29 l 2.632,4.74 c -0.313675,0.267261 -0.556237,0.608084 -0.706,0.992 z M 6,20 H 5 C 4.4477153,20 4,19.552285 4,19 v -1 c 0,-0.552285 0.4477153,-1 1,-1 h 1 c 0.5522847,0 1,0.447715 1,1 v 1 c 0,0.552285 -0.4477153,1 -1,1 z m 13,0 v 1 c 0,0.552285 -0.447715,1 -1,1 h -1 c -0.552285,0 -1,-0.447715 -1,-1 v -1 c 0,-0.552285 0.447715,-1 1,-1 h 1 c 0.552285,0 1,0.447715 1,1 z M 17.562,18.006 C 17.542,18.006 17.522,18 17.5,18 c -0.254056,0.0036 -0.50603,0.04644 -0.747,0.127 l -2.632,-4.74 c 0.742649,-0.611415 1.050785,-1.60578 0.784,-2.53 l 3.638,-1.82 c 0.244288,0.3132453 0.559652,0.563822 0.92,0.731 z M 20,6 h 1 c 0.552285,0 1,0.4477153 1,1 v 1 c 0,0.5522847 -0.447715,1 -1,1 H 20 C 19.447715,9 19,8.5522847 19,8 V 7 c 0,-0.5522847 0.447715,-1 1,-1 z m -1.939,0.963 c -0.09147,0.3895975 -0.07975,0.7963158 0.034,1.18 l -3.638,1.82 C 14.027443,9.4155015 13.387846,9.0733915 12.694,9.02 L 12.298,5.857 C 12.793155,5.6904442 13.223663,5.3728969 13.529,4.949 Z M 10,4 V 3 c 0,-0.5522847 0.447715,-1 1,-1 h 1 c 0.552285,0 1,0.4477153 1,1 v 1 c 0,0.5522847 -0.447715,1 -1,1 H 11 C 10.447715,5 10,4.5522847 10,4 Z M 2,9 C 2,8.4477153 2.4477153,8 3,8 h 1 c 0.5522847,0 1,0.4477153 1,1 v 1 c 0,0.552285 -0.4477153,1 -1,1 H 3 C 2.4477153,11 2,10.552285 2,10 Z"
     id="path1"
     sodipodi:nodetypes="cccsccscccsccsccsccccccccccccccccccsssssssssccccccccssssssssssssssssssccccccccssssssssscccccccssssssssssssssssss" />
  <path
     d="m 14.463995,10.869388 v 1.279802 c 0,0.706816 -0.572987,1.279802 -1.279802,1.279802 h -1.279802 c -0.706816,0 -1.279802,-0.572986 -1.279802,-1.279802 v -1.279802 c 0,-0.706815 0.572986,-1.279802 1.279802,-1.279802 h 1.279802 c 0.706815,0 1.279802,0.572987 1.279802,1.279802 z"
     id="path1-3"
     sodipodi:nodetypes="sssssssss"
     style="fill:none;stroke:#ff0000;stroke-width:1.2798" />
  <path
     fill="none"
     d="M0 0h24v24H0z"
     id="path2" />
</svg>
