<?xml version="1.0" encoding="UTF-8"?><svg id="a" xmlns="http://www.w3.org/2000/svg" width="360" height="126" xmlns:xlink="http://www.w3.org/1999/xlink" viewBox="0 0 360 126"><defs><linearGradient id="b" x1="30.03" y1="124.1" x2="30.03" y2="40.33" gradientTransform="translate(0 128) scale(1 -1)" gradientUnits="userSpaceOnUse"><stop offset="0" stop-color="#4065af"/><stop offset=".54" stop-color="#605aa5"/><stop offset="1" stop-color="#7a347a"/></linearGradient><clipPath id="c"><path d="M22.23,21.77c.32.08.62.22.87.4l3.29-3.31c-.88-1.07-1.26-2.54-.89-3.98.62-2.41,3.07-3.86,5.48-3.24s3.86,3.07,3.24,5.48c0,.03,0,.05-.02.08l3.65,1.22c.36-.72,1.18-1.11,1.99-.9.93.24,1.5,1.19,1.26,2.12-.24.93-1.19,1.5-2.12,1.26-.8-.21-1.33-.94-1.31-1.73l-3.73-1.25c-.9,1.91-3.06,2.98-5.19,2.44-.69-.18-1.3-.51-1.81-.94l-3.27,3.29c.49.63.7,1.47.48,2.3-.36,1.42-1.81,2.28-3.24,1.92-1.42-.36-2.28-1.81-1.92-3.24.36-1.42,1.81-2.28,3.24-1.92Z" fill="none"/></clipPath><linearGradient id="d" x1="29.98" y1="124.1" x2="29.98" y2="40.33" gradientTransform="translate(0 128) scale(1 -1)" gradientUnits="userSpaceOnUse"><stop offset="0" stop-color="#4065af"/><stop offset=".54" stop-color="#605aa5"/><stop offset="1" stop-color="#7a347a"/></linearGradient><linearGradient id="e" x1="46.68" y1="124.1" x2="46.68" y2="40.33" gradientTransform="translate(0 128) scale(1 -1)" gradientUnits="userSpaceOnUse"><stop offset="0" stop-color="#4065af"/><stop offset=".54" stop-color="#605aa5"/><stop offset="1" stop-color="#7a347a"/></linearGradient><clipPath id="f"><path d="M46.57,53.14l.32,1.93c.81,0,1.58.48,1.9,1.27.41,1.04-.09,2.21-1.13,2.62-1.04.41-2.21-.09-2.62-1.13-.41-1.04.09-2.21,1.13-2.62.08-.03.17-.06.25-.08l-.32-1.9c-.67.02-1.3-.37-1.56-1.03-.33-.84.08-1.78.91-2.12.84-.33,1.78.08,2.12.91.33.84-.08,1.78-.91,2.12-.03.01-.06.02-.09.03Z" fill="none"/></clipPath><linearGradient id="g" x1="46.7" y1="124.1" x2="46.7" y2="40.33" gradientTransform="translate(0 128) scale(1 -1)" gradientUnits="userSpaceOnUse"><stop offset="0" stop-color="#4065af"/><stop offset=".54" stop-color="#605aa5"/><stop offset="1" stop-color="#7a347a"/></linearGradient><linearGradient id="h" x1="42.42" y1="124.1" x2="42.42" y2="40.33" gradientTransform="translate(0 128) scale(1 -1)" gradientUnits="userSpaceOnUse"><stop offset="0" stop-color="#4065af"/><stop offset=".54" stop-color="#605aa5"/><stop offset="1" stop-color="#7a347a"/></linearGradient><clipPath id="i"><path d="M41.09,43.53l3.45-1.02c.07.1.15.19.24.27l-1.62,2.92-1.01,1.81-1.65,2.96c-.23-.07-.47-.1-.73-.1-1.45,0-2.62,1.17-2.62,2.62s1.17,2.62,2.62,2.62,2.62-1.17,2.62-2.62c0-.92-.47-1.72-1.19-2.19l1.62-2.91,1.01-1.81,1.62-2.91c.16.05.33.07.5.07.96,0,1.74-.78,1.74-1.74s-.78-1.74-1.74-1.74-1.74.78-1.74,1.74c0,.1,0,.2.03.3l-3.36.99c-.32-.6-.95-1.02-1.68-1.02-1.05,0-1.9.85-1.9,1.9s.85,1.9,1.9,1.9,1.9-.85,1.9-1.9v-.14h0Z" fill="none"/></clipPath><linearGradient id="j" x1="42.42" y1="124.1" x2="42.42" y2="40.33" gradientTransform="translate(0 128) scale(1 -1)" gradientUnits="userSpaceOnUse"><stop offset="0" stop-color="#4065af"/><stop offset=".54" stop-color="#605aa5"/><stop offset="1" stop-color="#7a347a"/></linearGradient><linearGradient id="k" x1="29.41" y1="124.1" x2="29.41" y2="40.33" gradientTransform="translate(0 128) scale(1 -1)" gradientUnits="userSpaceOnUse"><stop offset="0" stop-color="#4065af"/><stop offset=".54" stop-color="#605aa5"/><stop offset="1" stop-color="#7a347a"/></linearGradient><clipPath id="l"><path d="M28.59,41.44l2.37-1.62c.08.06.16.1.25.14l-.51,2.62-.32,1.62-.52,2.66c-.19,0-.39.04-.58.1-1.1.36-1.7,1.54-1.34,2.63.36,1.1,1.54,1.7,2.63,1.34,1.1-.36,1.7-1.54,1.34-2.63-.23-.7-.78-1.19-1.44-1.37l.51-2.61.32-1.62.51-2.61c.13,0,.27-.02.4-.07.73-.24,1.13-1.02.89-1.75s-1.02-1.13-1.75-.89-1.13,1.02-.89,1.75c.03.08.06.15.09.22l-2.31,1.58c-.39-.38-.98-.54-1.53-.36-.8.26-1.24,1.12-.98,1.92s1.12,1.24,1.92.98,1.24-1.12.98-1.92c-.01-.04-.03-.07-.04-.11Z" fill="none"/></clipPath><linearGradient id="m" x1="29.41" y1="124.1" x2="29.41" y2="40.33" gradientTransform="translate(0 128) scale(1 -1)" gradientUnits="userSpaceOnUse"><stop offset="0" stop-color="#4065af"/><stop offset=".54" stop-color="#605aa5"/><stop offset="1" stop-color="#7a347a"/></linearGradient><linearGradient id="n" x1="22.28" y1="124.1" x2="22.28" y2="40.33" gradientTransform="translate(0 128) scale(1 -1)" gradientUnits="userSpaceOnUse"><stop offset="0" stop-color="#4065af"/><stop offset=".54" stop-color="#605aa5"/><stop offset="1" stop-color="#7a347a"/></linearGradient><clipPath id="o"><path d="M21.35,35.05l1.81-1,2.63-1.45c.34.46.79.85,1.33,1.13,1.83.91,4.05.17,4.96-1.65.91-1.83.17-4.05-1.65-4.96-1.83-.91-4.05-.17-4.96,1.65-.52,1.03-.5,2.19-.07,3.16l-2.62,1.45-1.81,1-2.14,1.18c-.34-.5-.81-.91-1.39-1.2-1.83-.91-4.05-.17-4.96,1.65-.91,1.83-.17,4.05,1.65,4.96,1.83.91,4.04.17,4.96-1.65.5-1,.51-2.12.11-3.08l2.14-1.18h0Z" fill="none"/></clipPath><linearGradient id="p" x1="22.29" y1="124.1" x2="22.29" y2="40.33" gradientTransform="translate(0 128) scale(1 -1)" gradientUnits="userSpaceOnUse"><stop offset="0" stop-color="#4065af"/><stop offset=".54" stop-color="#605aa5"/><stop offset="1" stop-color="#7a347a"/></linearGradient><linearGradient id="q" x1="19.15" y1="124.1" x2="19.15" y2="40.33" gradientTransform="translate(0 128) scale(1 -1)" gradientUnits="userSpaceOnUse"><stop offset="0" stop-color="#4065af"/><stop offset=".54" stop-color="#605aa5"/><stop offset="1" stop-color="#7a347a"/></linearGradient><clipPath id="r"><path d="M17.73,48.65c.28.26.53.54.74.84l1.62-.86,1.25-.66c-.11-.58.05-1.2.48-1.67.73-.8,1.97-.85,2.76-.12.8.73.85,1.97.12,2.76-.73.8-1.97.85-2.76.12-.12-.11-.23-.24-.32-.37l-1.17.62-1.58.84c.7,1.39.74,3.04.1,4.47l1.05.47,2.37,1.07c.14-.25.3-.48.5-.7,1.38-1.5,3.71-1.6,5.21-.23,1.5,1.38,1.6,3.71.23,5.21-1.38,1.5-3.71,1.6-5.21.23-1.09-.99-1.44-2.49-1.03-3.81l-2.39-1.07-1.1-.5c-.16.25-.34.48-.55.71-1.94,2.12-5.24,2.26-7.36.32-2.12-1.94-2.26-5.24-.32-7.36s5.24-2.26,7.36-.32h0Z" fill="none"/></clipPath><linearGradient id="s" x1="19.07" y1="124.1" x2="19.07" y2="40.33" gradientTransform="translate(0 128) scale(1 -1)" gradientUnits="userSpaceOnUse"><stop offset="0" stop-color="#4065af"/><stop offset=".54" stop-color="#605aa5"/><stop offset="1" stop-color="#7a347a"/></linearGradient><linearGradient id="t" x1="38.57" y1="124.1" x2="38.57" y2="40.33" gradientTransform="translate(0 128) scale(1 -1)" gradientUnits="userSpaceOnUse"><stop offset="0" stop-color="#4065af"/><stop offset=".54" stop-color="#605aa5"/><stop offset="1" stop-color="#7a347a"/></linearGradient><clipPath id="u"><path d="M35.96,80.55c.15-.35.33-.67.54-.97l-1.35-1.24-1.04-.96c-.51.29-1.15.35-1.74.1-.99-.42-1.46-1.57-1.03-2.57.42-.99,1.57-1.46,2.57-1.03.99.42,1.46,1.57,1.03,2.57-.07.15-.15.29-.24.42l.98.9,1.32,1.21c1.08-1.12,2.62-1.71,4.18-1.58l.09-1.15.21-2.59c-.28-.05-.55-.13-.82-.24-1.88-.8-2.75-2.97-1.95-4.84.8-1.88,2.97-2.75,4.84-1.95,1.88.8,2.75,2.96,1.95,4.84-.58,1.35-1.87,2.19-3.25,2.24l-.21,2.61-.1,1.21c.29.07.57.16.85.28,2.65,1.13,3.88,4.18,2.75,6.83-1.13,2.65-4.18,3.88-6.83,2.75-2.65-1.13-3.88-4.18-2.75-6.83h0Z" fill="none"/></clipPath><linearGradient id="v" x1="38.78" y1="124.1" x2="38.78" y2="40.33" gradientTransform="translate(0 128) scale(1 -1)" gradientUnits="userSpaceOnUse"><stop offset="0" stop-color="#4065af"/><stop offset=".54" stop-color="#605aa5"/><stop offset="1" stop-color="#7a347a"/></linearGradient><linearGradient id="w" x1="41.82" y1="124.1" x2="41.82" y2="40.33" gradientTransform="translate(0 128) scale(1 -1)" gradientUnits="userSpaceOnUse"><stop offset="0" stop-color="#4065af"/><stop offset=".54" stop-color="#605aa5"/><stop offset="1" stop-color="#7a347a"/></linearGradient><clipPath id="x"><path d="M40.43,27.95l1.92.4,2.61.54v.15c0,1.16.94,2.11,2.11,2.11s2.11-.94,2.11-2.11-.94-2.11-2.11-2.11c-.86,0-1.59.51-1.92,1.25l-2.64-.55-1.92-.4-2.08-.43c.03-.14.05-.29.05-.44,0-1.13-.92-2.05-2.05-2.05s-2.05.92-2.05,2.05.92,2.05,2.05,2.05c.13,0,.25-.01.37-.03l.55,1.89.24.84c-1.09.47-1.85,1.54-1.85,2.8,0,1.68,1.36,3.05,3.05,3.05s3.05-1.36,3.05-3.05-1.36-3.05-3.05-3.05c-.17,0-.33.01-.5.04l-.24-.84-.55-1.89-.02-.06c.26-.16.48-.37.65-.62l2.23.46h-.01Z" fill="none"/></clipPath><linearGradient id="y" x1="41.8" y1="124.1" x2="41.8" y2="40.33" gradientTransform="translate(0 128) scale(1 -1)" gradientUnits="userSpaceOnUse"><stop offset="0" stop-color="#4065af"/><stop offset=".54" stop-color="#605aa5"/><stop offset="1" stop-color="#7a347a"/></linearGradient><linearGradient id="z" x1="40.63" y1="124.1" x2="40.63" y2="40.33" gradientTransform="translate(0 128) scale(1 -1)" gradientUnits="userSpaceOnUse"><stop offset="0" stop-color="#4065af"/><stop offset=".54" stop-color="#605aa5"/><stop offset="1" stop-color="#7a347a"/></linearGradient><clipPath id="aa"><circle cx="40.63" cy="11.07" r="2.13" fill="none"/></clipPath><linearGradient id="ab" x1="40.63" y1="124.1" x2="40.63" y2="40.33" gradientTransform="translate(0 128) scale(1 -1)" gradientUnits="userSpaceOnUse"><stop offset="0" stop-color="#4065af"/><stop offset=".54" stop-color="#605aa5"/><stop offset="1" stop-color="#7a347a"/></linearGradient><linearGradient id="ac" x1="45.76" y1="124.1" x2="45.76" y2="40.33" gradientTransform="translate(0 128) scale(1 -1)" gradientUnits="userSpaceOnUse"><stop offset="0" stop-color="#4065af"/><stop offset=".54" stop-color="#605aa5"/><stop offset="1" stop-color="#7a347a"/></linearGradient><clipPath id="ad"><circle cx="45.76" cy="22.24" r="1.91" fill="none"/></clipPath><linearGradient id="ae" x1="45.76" y1="124.1" x2="45.76" y2="40.33" gradientTransform="translate(0 128) scale(1 -1)" gradientUnits="userSpaceOnUse"><stop offset="0" stop-color="#4065af"/><stop offset=".54" stop-color="#605aa5"/><stop offset="1" stop-color="#7a347a"/></linearGradient><linearGradient id="af" x1="26.81" y1="124.1" x2="26.81" y2="40.33" gradientTransform="translate(0 128) scale(1 -1)" gradientUnits="userSpaceOnUse"><stop offset="0" stop-color="#4065af"/><stop offset=".54" stop-color="#605aa5"/><stop offset="1" stop-color="#7a347a"/></linearGradient><clipPath id="ag"><path d="M25.94,70.54c-1.05-.35-1.83-1.32-1.88-2.49-.07-1.52,1.11-2.81,2.63-2.87s2.81,1.11,2.87,2.63c.07,1.52-1.11,2.81-2.63,2.87h-.36l-.63-.13h0Z" fill="none"/></clipPath><linearGradient id="ah" x1="26.4" y1="124.1" x2="26.4" y2="40.33" gradientTransform="translate(0 128) scale(1 -1)" gradientUnits="userSpaceOnUse"><stop offset="0" stop-color="#4065af"/><stop offset=".54" stop-color="#605aa5"/><stop offset="1" stop-color="#7a347a"/></linearGradient><linearGradient id="ai" x1="18.4" y1="124.1" x2="18.4" y2="40.33" gradientTransform="translate(0 128) scale(1 -1)" gradientUnits="userSpaceOnUse"><stop offset="0" stop-color="#4065af"/><stop offset=".54" stop-color="#605aa5"/><stop offset="1" stop-color="#7a347a"/></linearGradient><clipPath id="aj"><path d="M18.4,43.41c.71,0,1.28.57,1.28,1.28s-.57,1.28-1.28,1.28-1.28-.57-1.28-1.28.57-1.28,1.28-1.28Z" fill="none"/></clipPath><linearGradient id="ak" x1="18.41" y1="124.1" x2="18.41" y2="40.33" gradientTransform="translate(0 128) scale(1 -1)" gradientUnits="userSpaceOnUse"><stop offset="0" stop-color="#4065af"/><stop offset=".54" stop-color="#605aa5"/><stop offset="1" stop-color="#7a347a"/></linearGradient><linearGradient id="al" x1="50.64" y1="124.1" x2="50.64" y2="40.33" gradientTransform="translate(0 128) scale(1 -1)" gradientUnits="userSpaceOnUse"><stop offset="0" stop-color="#4065af"/><stop offset=".54" stop-color="#605aa5"/><stop offset="1" stop-color="#7a347a"/></linearGradient><clipPath id="am"><path d="M50.64,46.25c.79,0,1.43.64,1.43,1.43s-.64,1.43-1.43,1.43-1.43-.64-1.43-1.43.64-1.43,1.43-1.43Z" fill="none"/></clipPath><linearGradient id="an" x1="50.64" y1="124.1" x2="50.64" y2="40.33" gradientTransform="translate(0 128) scale(1 -1)" gradientUnits="userSpaceOnUse"><stop offset="0" stop-color="#4065af"/><stop offset=".54" stop-color="#605aa5"/><stop offset="1" stop-color="#7a347a"/></linearGradient><linearGradient id="ao" x1="47.07" y1="124.1" x2="47.07" y2="40.33" gradientTransform="translate(0 128) scale(1 -1)" gradientUnits="userSpaceOnUse"><stop offset="0" stop-color="#4065af"/><stop offset=".54" stop-color="#605aa5"/><stop offset="1" stop-color="#7a347a"/></linearGradient><clipPath id="ap"><circle cx="47.07" cy="64.38" r="1.43" fill="none"/></clipPath><linearGradient id="aq" x1="47.07" y1="124.1" x2="47.07" y2="40.33" gradientTransform="translate(0 128) scale(1 -1)" gradientUnits="userSpaceOnUse"><stop offset="0" stop-color="#4065af"/><stop offset=".54" stop-color="#605aa5"/><stop offset="1" stop-color="#7a347a"/></linearGradient><linearGradient id="ar" x1="36.23" y1="124.1" x2="36.23" y2="40.33" gradientTransform="translate(0 128) scale(1 -1)" gradientUnits="userSpaceOnUse"><stop offset="0" stop-color="#4065af"/><stop offset=".54" stop-color="#605aa5"/><stop offset="1" stop-color="#7a347a"/></linearGradient><clipPath id="as"><path d="M32.16,63.92c.18,0,.35.03.51.09l1.28-2.17c-.61-.44-1-1.16-1-1.97,0-1.34,1.09-2.43,2.43-2.43s2.43,1.09,2.43,2.43v.04l2.08.15c.09-.42.47-.74.92-.74.52,0,.94.42.94.94s-.42.94-.94.94c-.45,0-.82-.31-.92-.73l-2.12-.15c-.22,1.12-1.2,1.97-2.39,1.97-.39,0-.75-.09-1.07-.25l-1.27,2.16c.34.26.56.68.56,1.14,0,.79-.64,1.44-1.44,1.44s-1.44-.64-1.44-1.44.64-1.44,1.44-1.44v.02Z" fill="none"/></clipPath><linearGradient id="at" x1="36.23" y1="124.1" x2="36.23" y2="40.33" gradientTransform="translate(0 128) scale(1 -1)" gradientUnits="userSpaceOnUse"><stop offset="0" stop-color="#4065af"/><stop offset=".54" stop-color="#605aa5"/><stop offset="1" stop-color="#7a347a"/></linearGradient><linearGradient id="au" x1="35.11" y1="124.1" x2="35.11" y2="40.33" gradientTransform="translate(0 128) scale(1 -1)" gradientUnits="userSpaceOnUse"><stop offset="0" stop-color="#4065af"/><stop offset=".54" stop-color="#605aa5"/><stop offset="1" stop-color="#7a347a"/></linearGradient><clipPath id="av"><path d="M35.11,47.66c.78,0,1.41.63,1.41,1.41s-.63,1.41-1.41,1.41-1.41-.63-1.41-1.41.63-1.41,1.41-1.41Z" fill="none"/></clipPath><linearGradient id="aw" x1="35.11" y1="124.1" x2="35.11" y2="40.33" gradientTransform="translate(0 128) scale(1 -1)" gradientUnits="userSpaceOnUse"><stop offset="0" stop-color="#4065af"/><stop offset=".54" stop-color="#605aa5"/><stop offset="1" stop-color="#7a347a"/></linearGradient><linearGradient id="ax" x1="34.4" y1="124.1" x2="34.4" y2="40.33" gradientTransform="translate(0 128) scale(1 -1)" gradientUnits="userSpaceOnUse"><stop offset="0" stop-color="#4065af"/><stop offset=".54" stop-color="#605aa5"/><stop offset="1" stop-color="#7a347a"/></linearGradient><linearGradient id="ay" x1="52.06" y1="124.1" x2="52.06" y2="40.33" gradientTransform="translate(0 128) scale(1 -1)" gradientUnits="userSpaceOnUse"><stop offset="0" stop-color="#4065af"/><stop offset=".54" stop-color="#605aa5"/><stop offset="1" stop-color="#7a347a"/></linearGradient><linearGradient id="az" x1="34.39" y1="124.1" x2="34.39" y2="40.33" gradientTransform="translate(0 128) scale(1 -1)" gradientUnits="userSpaceOnUse"><stop offset="0" stop-color="#4065af"/><stop offset=".54" stop-color="#605aa5"/><stop offset="1" stop-color="#7a347a"/></linearGradient><linearGradient id="ba" x1="45.98" y1="124.1" x2="45.98" y2="40.33" gradientTransform="translate(0 128) scale(1 -1)" gradientUnits="userSpaceOnUse"><stop offset="0" stop-color="#4065af"/><stop offset=".54" stop-color="#605aa5"/><stop offset="1" stop-color="#7a347a"/></linearGradient><clipPath id="bb"><path d="M45.22,37.09l1.17-.44c.26.45.78.73,1.32.64.71-.11,1.2-.77,1.09-1.48-.11-.71-.77-1.2-1.48-1.09s-1.2.77-1.09,1.48c0,.06.02.11.04.17l-1.16.44c-.2-.38-.63-.6-1.08-.54-.57.09-.97.62-.88,1.19.09.57.62.97,1.19.88.57-.09.97-.62.88-1.19,0-.02,0-.04,0-.06h.01Z" fill="none"/></clipPath><linearGradient id="bc" x1="45.99" y1="124.1" x2="45.99" y2="40.33" gradientTransform="translate(0 128) scale(1 -1)" gradientUnits="userSpaceOnUse"><stop offset="0" stop-color="#4065af"/><stop offset=".54" stop-color="#605aa5"/><stop offset="1" stop-color="#7a347a"/></linearGradient><linearGradient id="bd" x1="46.58" y1="124.1" x2="46.58" y2="40.33" gradientTransform="translate(0 128) scale(1 -1)" gradientUnits="userSpaceOnUse"><stop offset="0" stop-color="#4065af"/><stop offset=".54" stop-color="#605aa5"/><stop offset="1" stop-color="#7a347a"/></linearGradient><clipPath id="be"><path d="M46.58,13.56c.78,0,1.41.63,1.41,1.41s-.63,1.41-1.41,1.41-1.41-.63-1.41-1.41.63-1.41,1.41-1.41Z" fill="none"/></clipPath><linearGradient id="bf" x1="46.57" y1="124.1" x2="46.57" y2="40.33" gradientTransform="translate(0 128) scale(1 -1)" gradientUnits="userSpaceOnUse"><stop offset="0" stop-color="#4065af"/><stop offset=".54" stop-color="#605aa5"/><stop offset="1" stop-color="#7a347a"/></linearGradient><linearGradient id="bg" x1="19.12" y1="124.1" x2="19.12" y2="40.33" gradientTransform="translate(0 128) scale(1 -1)" gradientUnits="userSpaceOnUse"><stop offset="0" stop-color="#4065af"/><stop offset=".54" stop-color="#605aa5"/><stop offset="1" stop-color="#7a347a"/></linearGradient><clipPath id="bh"><path d="M19.12,59.48c.71,0,1.28.57,1.28,1.28s-.57,1.28-1.28,1.28-1.28-.57-1.28-1.28.57-1.28,1.28-1.28Z" fill="none"/></clipPath><linearGradient id="bi" x1="19.11" y1="124.1" x2="19.11" y2="40.33" gradientTransform="translate(0 128) scale(1 -1)" gradientUnits="userSpaceOnUse"><stop offset="0" stop-color="#4065af"/><stop offset=".54" stop-color="#605aa5"/><stop offset="1" stop-color="#7a347a"/></linearGradient><linearGradient id="bj" x1="61.28" y1="124.1" x2="61.28" y2="40.33" gradientTransform="translate(0 128) scale(1 -1)" gradientUnits="userSpaceOnUse"><stop offset="0" stop-color="#4065af"/><stop offset=".54" stop-color="#605aa5"/><stop offset="1" stop-color="#7a347a"/></linearGradient><linearGradient id="bk" x1="63.22" y1="124.1" x2="63.22" y2="40.33" gradientTransform="translate(0 128) scale(1 -1)" gradientUnits="userSpaceOnUse"><stop offset="0" stop-color="#4065af"/><stop offset=".54" stop-color="#605aa5"/><stop offset="1" stop-color="#7a347a"/></linearGradient><linearGradient id="bl" x1="62.28" y1="124.1" x2="62.28" y2="40.33" gradientTransform="translate(0 128) scale(1 -1)" gradientUnits="userSpaceOnUse"><stop offset="0" stop-color="#4065af"/><stop offset=".54" stop-color="#605aa5"/><stop offset="1" stop-color="#7a347a"/></linearGradient><linearGradient id="bm" x1="64.87" y1="124.1" x2="64.87" y2="40.33" gradientTransform="translate(0 128) scale(1 -1)" gradientUnits="userSpaceOnUse"><stop offset="0" stop-color="#4065af"/><stop offset=".54" stop-color="#605aa5"/><stop offset="1" stop-color="#7a347a"/></linearGradient><linearGradient id="bn" x1="58.05" y1="124.1" x2="58.05" y2="40.33" gradientTransform="translate(0 128) scale(1 -1)" gradientUnits="userSpaceOnUse"><stop offset="0" stop-color="#4065af"/><stop offset=".54" stop-color="#605aa5"/><stop offset="1" stop-color="#7a347a"/></linearGradient><linearGradient id="bo" x1="60.2" y1="124.1" x2="60.2" y2="40.33" gradientTransform="translate(0 128) scale(1 -1)" gradientUnits="userSpaceOnUse"><stop offset="0" stop-color="#4065af"/><stop offset=".54" stop-color="#605aa5"/><stop offset="1" stop-color="#7a347a"/></linearGradient><linearGradient id="bp" x1="55.98" y1="124.1" x2="55.98" y2="40.33" gradientTransform="translate(0 128) scale(1 -1)" gradientUnits="userSpaceOnUse"><stop offset="0" stop-color="#4065af"/><stop offset=".54" stop-color="#605aa5"/><stop offset="1" stop-color="#7a347a"/></linearGradient></defs><path d="M73.24,54.1c.51-.91,1.21-1.62,2.1-2.13.89-.51,1.87-.77,2.95-.77,1.27,0,2.38.31,3.33.92s1.64,1.48,2.07,2.61h-1.82c-.32-.7-.79-1.24-1.4-1.62-.61-.38-1.33-.57-2.18-.57s-1.54.19-2.19.57-1.15.92-1.52,1.61c-.37.7-.55,1.51-.55,2.45s.18,1.74.55,2.43c.37.7.87,1.23,1.52,1.61.65.38,1.38.57,2.19.57s1.57-.19,2.18-.56c.61-.37,1.07-.91,1.4-1.61h1.82c-.43,1.11-1.13,1.98-2.07,2.58-.95.61-2.06.91-3.33.91-1.08,0-2.06-.25-2.95-.76s-1.59-1.21-2.1-2.11-.77-1.92-.77-3.06.26-2.16.77-3.07Z" fill="#343956"/><path d="M88.1,62.57c-.7-.39-1.24-.94-1.64-1.66s-.59-1.55-.59-2.5.2-1.76.61-2.48.96-1.27,1.66-1.65c.7-.38,1.49-.58,2.36-.58s1.65.19,2.36.58c.7.38,1.26.93,1.66,1.65.41.71.61,1.54.61,2.49s-.21,1.78-.63,2.5-.98,1.27-1.7,1.66c-.71.39-1.5.58-2.37.58s-1.64-.19-2.33-.58h0ZM91.97,61.43c.48-.26.87-.64,1.16-1.15.3-.51.44-1.14.44-1.87s-.14-1.36-.43-1.87-.67-.89-1.14-1.14-.98-.38-1.52-.38-1.07.13-1.53.38-.83.63-1.11,1.14-.42,1.14-.42,1.87.14,1.38.41,1.89c.27.51.64.89,1.09,1.14s.96.38,1.5.38,1.06-.13,1.54-.38h0Z" fill="#343956"/><path d="M110.56,54.12c.56.3,1,.74,1.32,1.33s.49,1.31.49,2.16v5.4h-1.5v-5.18c0-.91-.23-1.61-.68-2.1-.45-.48-1.06-.73-1.83-.73s-1.42.25-1.89.76-.7,1.24-.7,2.2v5.05h-1.5v-5.18c0-.91-.23-1.61-.68-2.1-.45-.48-1.06-.73-1.83-.73s-1.42.25-1.89.76-.7,1.24-.7,2.2v5.05h-1.52v-9.16h1.52v1.32c.3-.48.71-.85,1.21-1.1.51-.26,1.07-.38,1.68-.38.77,0,1.45.17,2.04.52.59.35,1.03.85,1.32,1.52.26-.65.68-1.15,1.27-1.5.59-.36,1.25-.54,1.97-.54s1.35.15,1.91.44h-.01Z" fill="#343956"/><path d="M128.28,54.12c.56.3,1,.74,1.32,1.33s.49,1.31.49,2.16v5.4h-1.5v-5.18c0-.91-.23-1.61-.68-2.1-.45-.48-1.06-.73-1.83-.73s-1.42.25-1.89.76-.7,1.24-.7,2.2v5.05h-1.5v-5.18c0-.91-.23-1.61-.68-2.1-.45-.48-1.06-.73-1.83-.73s-1.42.25-1.89.76-.7,1.24-.7,2.2v5.05h-1.52v-9.16h1.52v1.32c.3-.48.71-.85,1.21-1.1.51-.26,1.07-.38,1.68-.38.77,0,1.45.17,2.04.52.59.35,1.03.85,1.32,1.52.26-.65.68-1.15,1.27-1.5.59-.36,1.25-.54,1.97-.54s1.35.15,1.91.44h-.01Z" fill="#343956"/><path d="M134.74,62.57c-.7-.39-1.24-.94-1.64-1.66s-.59-1.55-.59-2.5.2-1.76.61-2.48.96-1.27,1.66-1.65,1.49-.58,2.36-.58,1.65.19,2.36.58c.7.38,1.26.93,1.66,1.65.41.71.61,1.54.61,2.49s-.21,1.78-.63,2.5-.98,1.27-1.7,1.66c-.71.39-1.5.58-2.37.58s-1.64-.19-2.33-.58h0ZM138.61,61.43c.48-.26.87-.64,1.16-1.15.3-.51.44-1.14.44-1.87s-.14-1.36-.43-1.87-.67-.89-1.14-1.14-.98-.38-1.52-.38-1.07.13-1.53.38c-.46.25-.83.63-1.11,1.14s-.42,1.14-.42,1.87.14,1.38.41,1.89.64.89,1.09,1.14.96.38,1.5.38,1.06-.13,1.54-.38h0Z" fill="#343956"/><path d="M151.45,54.68c.69.67,1.04,1.65,1.04,2.92v5.4h-1.5v-5.18c0-.91-.23-1.61-.69-2.1-.46-.48-1.08-.73-1.87-.73s-1.44.25-1.91.75-.71,1.23-.71,2.19v5.06h-1.52v-9.16h1.52v1.3c.3-.47.71-.83,1.23-1.09.52-.26,1.09-.38,1.71-.38,1.11,0,2.02.34,2.71,1.01h0Z" fill="#343956"/><path d="M167.02,51.35v1.24h-5.06v3.93h4.11v1.24h-4.11v5.25h-1.52v-11.65h6.59,0Z" fill="#343956"/><path d="M177.49,53.84v9.16h-1.52v-1.35c-.29.47-.69.83-1.21,1.09s-1.09.39-1.71.39c-.71,0-1.35-.15-1.92-.44-.57-.3-1.02-.74-1.35-1.33s-.49-1.31-.49-2.16v-5.37h1.5v5.16c0,.9.23,1.6.69,2.08.46.49,1.08.73,1.87.73s1.45-.25,1.92-.75.7-1.23.7-2.19v-5.03h1.52Z" fill="#343956"/><path d="M187.73,54.68c.69.67,1.04,1.65,1.04,2.92v5.4h-1.5v-5.18c0-.91-.23-1.61-.69-2.1-.46-.48-1.08-.73-1.87-.73s-1.44.25-1.91.75-.71,1.23-.71,2.19v5.06h-1.52v-9.16h1.52v1.3c.3-.47.71-.83,1.23-1.09.52-.26,1.09-.38,1.71-.38,1.11,0,2.02.34,2.71,1.01h0Z" fill="#343956"/><path d="M191.76,55.92c.38-.71.9-1.26,1.56-1.65.66-.39,1.41-.58,2.23-.58.71,0,1.38.16,1.99.49s1.08.76,1.4,1.3v-4.85h1.54v12.37h-1.54v-1.72c-.3.55-.75.99-1.34,1.35-.59.35-1.28.53-2.07.53s-1.55-.2-2.22-.6c-.66-.4-1.18-.96-1.56-1.69-.38-.72-.57-1.55-.57-2.47s.19-1.76.57-2.47h.01ZM198.53,56.6c-.28-.51-.66-.91-1.13-1.18s-.99-.41-1.56-.41-1.09.13-1.55.4c-.47.27-.84.66-1.12,1.17s-.42,1.11-.42,1.81.14,1.31.42,1.83.65.91,1.12,1.19c.47.27.99.41,1.55.41s1.09-.14,1.56-.41.85-.67,1.13-1.19.42-1.12.42-1.81-.14-1.29-.42-1.8h0Z" fill="#343956"/><path d="M215.45,52.06c.93.47,1.64,1.15,2.14,2.03s.74,1.92.74,3.11-.25,2.23-.74,3.1c-.5.88-1.21,1.54-2.14,2.01-.93.46-2.03.69-3.3.69h-3.63v-11.65h3.63c1.27,0,2.37.24,3.3.71ZM215.6,60.55c.79-.8,1.19-1.91,1.19-3.35s-.4-2.58-1.2-3.39-1.94-1.22-3.43-1.22h-2.11v9.16h2.11c1.5,0,2.65-.4,3.44-1.2h0Z" fill="#343956"/><path d="M220.85,55.92c.38-.71.9-1.26,1.56-1.65.66-.39,1.4-.58,2.22-.58s1.5.17,2.09.52c.59.35,1.03.78,1.32,1.3v-1.67h1.54v9.16h-1.54v-1.71c-.3.54-.75.98-1.35,1.33s-1.29.53-2.08.53-1.55-.2-2.21-.6-1.18-.96-1.55-1.69c-.38-.72-.57-1.55-.57-2.47s.19-1.76.57-2.47h0ZM227.62,56.6c-.28-.51-.66-.91-1.13-1.18s-.99-.41-1.56-.41-1.09.13-1.55.4c-.47.27-.84.66-1.12,1.17s-.42,1.11-.42,1.81.14,1.31.42,1.83.65.91,1.12,1.19c.47.27.99.41,1.55.41s1.09-.14,1.56-.41.85-.67,1.13-1.19.42-1.12.42-1.81-.14-1.29-.42-1.8h0Z" fill="#343956"/><path d="M234.5,55.09v5.4c0,.45.09.76.28.94s.52.28.99.28h1.12v1.29h-1.37c-.85,0-1.48-.19-1.91-.59-.42-.39-.63-1.03-.63-1.92v-5.4h-1.19v-1.25h1.19v-2.31h1.52v2.31h2.39v1.25h-2.39Z" fill="#343956"/><path d="M239.23,55.92c.38-.71.9-1.26,1.56-1.65.66-.39,1.4-.58,2.22-.58s1.5.17,2.09.52c.59.35,1.03.78,1.32,1.3v-1.67h1.54v9.16h-1.54v-1.71c-.3.54-.75.98-1.35,1.33s-1.29.53-2.08.53-1.55-.2-2.21-.6-1.18-.96-1.55-1.69c-.38-.72-.57-1.55-.57-2.47s.19-1.76.57-2.47h0ZM246,56.6c-.28-.51-.66-.91-1.13-1.18s-.99-.41-1.56-.41-1.09.13-1.55.4c-.47.27-.84.66-1.12,1.17s-.42,1.11-.42,1.81.14,1.31.42,1.83.65.91,1.12,1.19c.47.27.99.41,1.55.41s1.09-.14,1.56-.41.85-.67,1.13-1.19.42-1.12.42-1.81-.14-1.29-.42-1.8h0Z" fill="#343956"/><path d="M257.52,52.59v3.89h4.25v1.25h-4.25v4.01h4.75v1.25h-6.27v-11.67h6.27v1.25h-4.75v.02Z" fill="#343956"/><path d="M265.07,55.92c.38-.71.9-1.26,1.58-1.65.67-.39,1.45-.58,2.31-.58,1.13,0,2.05.27,2.78.82s1.21,1.3,1.45,2.27h-1.64c-.16-.56-.46-1-.91-1.32s-1.01-.49-1.68-.49c-.87,0-1.57.3-2.11.89-.54.6-.8,1.44-.8,2.53s.27,1.96.8,2.56,1.24.9,2.11.9c.67,0,1.23-.16,1.67-.47.45-.31.75-.76.92-1.34h1.64c-.24.94-.74,1.69-1.47,2.25-.74.56-1.66.84-2.76.84-.87,0-1.64-.19-2.31-.58-.68-.39-1.2-.94-1.58-1.66s-.57-1.55-.57-2.51.19-1.77.57-2.48v.02Z" fill="#343956"/><path d="M277.38,62.57c-.7-.39-1.24-.94-1.64-1.66-.4-.72-.59-1.55-.59-2.5s.2-1.76.61-2.48c.41-.72.96-1.27,1.66-1.65s1.49-.58,2.36-.58,1.65.19,2.36.58c.7.38,1.26.93,1.66,1.65.41.71.61,1.54.61,2.49s-.21,1.78-.63,2.5-.98,1.27-1.7,1.66c-.71.39-1.5.58-2.37.58s-1.64-.19-2.33-.58h0ZM281.25,61.43c.48-.26.87-.64,1.16-1.15.3-.51.44-1.14.44-1.87s-.14-1.36-.43-1.87c-.29-.51-.67-.89-1.14-1.14s-.98-.38-1.52-.38-1.07.13-1.53.38-.83.63-1.11,1.14-.42,1.14-.42,1.87.14,1.38.41,1.89.64.89,1.09,1.14.96.38,1.5.38,1.06-.13,1.54-.38h0Z" fill="#343956"/><path d="M288.27,62.79c-.56-.24-1-.57-1.32-1s-.5-.92-.54-1.48h1.57c.04.46.26.83.64,1.12.38.29.89.43,1.51.43.58,0,1.04-.13,1.37-.38.33-.26.5-.58.5-.97s-.18-.7-.53-.89c-.36-.19-.91-.39-1.66-.58-.68-.18-1.23-.36-1.66-.54s-.8-.46-1.1-.82c-.31-.36-.46-.84-.46-1.43,0-.47.14-.9.42-1.29s.67-.7,1.19-.93c.51-.23,1.1-.34,1.75-.34,1.01,0,1.83.26,2.46.77.62.51.96,1.21,1,2.11h-1.52c-.03-.48-.23-.86-.58-1.15s-.82-.43-1.41-.43c-.55,0-.98.12-1.3.35-.32.23-.49.54-.49.92,0,.3.1.55.29.74.19.2.44.35.74.47.29.12.7.25,1.23.39.66.18,1.19.35,1.61.53.41.17.77.43,1.06.78s.45.8.46,1.35c0,.5-.14.95-.42,1.35s-.67.72-1.18.94c-.51.23-1.09.34-1.75.34-.7,0-1.33-.12-1.89-.36h0Z" fill="#343956"/><path d="M304.03,53.84l-5.51,13.47h-1.57l1.8-4.41-3.69-9.06h1.69l2.88,7.42,2.84-7.42h1.57,0Z" fill="#343956"/><path d="M307.41,62.79c-.56-.24-1-.57-1.32-1s-.5-.92-.54-1.48h1.57c.04.46.26.83.64,1.12.38.29.89.43,1.51.43.58,0,1.04-.13,1.37-.38.33-.26.5-.58.5-.97s-.18-.7-.53-.89c-.36-.19-.91-.39-1.66-.58-.68-.18-1.23-.36-1.66-.54s-.8-.46-1.1-.82c-.31-.36-.46-.84-.46-1.43,0-.47.14-.9.42-1.29s.67-.7,1.19-.93c.51-.23,1.1-.34,1.75-.34,1.01,0,1.83.26,2.46.77.62.51.96,1.21,1,2.11h-1.52c-.03-.48-.23-.86-.58-1.15s-.82-.43-1.41-.43c-.55,0-.98.12-1.3.35-.32.23-.49.54-.49.92,0,.3.1.55.29.74.19.2.44.35.74.47.29.12.7.25,1.23.39.66.18,1.19.35,1.61.53.41.17.77.43,1.06.78s.45.8.46,1.35c0,.5-.14.95-.42,1.35s-.67.72-1.18.94c-.51.23-1.09.34-1.75.34-.7,0-1.33-.12-1.89-.36h0Z" fill="#343956"/><path d="M317.14,55.09v5.4c0,.45.09.76.28.94s.52.28.99.28h1.12v1.29h-1.37c-.85,0-1.48-.19-1.91-.59-.42-.39-.63-1.03-.63-1.92v-5.4h-1.19v-1.25h1.19v-2.31h1.52v2.31h2.39v1.25h-2.39,0Z" fill="#343956"/><path d="M330.18,58.99h-7.32c.05.9.36,1.61.93,2.11.56.51,1.25.76,2.05.76.66,0,1.21-.15,1.65-.46.44-.31.75-.72.93-1.23h1.64c-.24.88-.74,1.6-1.47,2.15-.74.55-1.65.83-2.74.83-.87,0-1.65-.19-2.33-.58-.69-.39-1.22-.94-1.61-1.66-.39-.72-.59-1.55-.59-2.5s.19-1.78.57-2.49c.38-.71.91-1.26,1.6-1.65.69-.38,1.47-.58,2.37-.58s1.64.19,2.31.57c.67.38,1.18.9,1.55,1.56.36.66.54,1.41.54,2.25,0,.29-.02.6-.05.92h-.03ZM328.27,56.26c-.26-.42-.61-.74-1.04-.95-.44-.22-.93-.33-1.46-.33-.77,0-1.42.25-1.96.74-.54.49-.85,1.17-.93,2.04h5.78c0-.58-.13-1.08-.38-1.5h-.01Z" fill="#343956"/><path d="M345.66,54.12c.56.3,1,.74,1.32,1.33s.49,1.31.49,2.16v5.4h-1.5v-5.18c0-.91-.23-1.61-.68-2.1-.45-.48-1.06-.73-1.83-.73s-1.42.25-1.89.76-.7,1.24-.7,2.2v5.05h-1.5v-5.18c0-.91-.23-1.61-.68-2.1-.45-.48-1.06-.73-1.83-.73s-1.42.25-1.89.76-.7,1.24-.7,2.2v5.05h-1.52v-9.16h1.52v1.32c.3-.48.71-.85,1.21-1.1.51-.26,1.07-.38,1.68-.38.77,0,1.45.17,2.04.52.59.35,1.03.85,1.32,1.52.26-.65.68-1.15,1.27-1.5.59-.36,1.25-.54,1.97-.54s1.35.15,1.91.44h0Z" fill="#343956"/><path d="M87.12,70.48v4.09h-5.55v16.86h-5.1v-16.86h-5.55v-4.09h16.21,0Z" fill="#764c83"/><path d="M101.56,91.43l-4.36-7.91h-1.22v7.91h-5.1v-20.95h8.57c1.65,0,3.06.29,4.22.87s2.03,1.37,2.61,2.37c.58,1.01.87,2.12.87,3.36,0,1.39-.39,2.64-1.18,3.73s-1.94,1.87-3.48,2.33l4.84,8.3h-5.77ZM95.98,79.91h3.16c.94,0,1.64-.23,2.1-.69.47-.46.7-1.1.7-1.94s-.23-1.42-.7-1.88-1.17-.69-2.1-.69h-3.16v5.19h0Z" fill="#764c83"/><path d="M124.57,87.73h-7.82l-1.25,3.7h-5.34l7.58-20.95h5.91l7.58,20.95h-5.4l-1.25-3.7h-.01ZM123.26,83.79l-2.6-7.67-2.57,7.67h5.17Z" fill="#764c83"/><path d="M139.83,70.48v20.95h-5.1v-20.95s5.1,0,5.1,0Z" fill="#764c83"/><path d="M163.47,91.43h-5.1l-8.54-12.92v12.92h-5.1v-20.95h5.1l8.54,12.98v-12.98h5.1v20.95Z" fill="#764c83"/><path d="M173.47,70.48v20.95h-5.1v-20.95s5.1,0,5.1,0Z" fill="#764c83"/><path d="M197.11,91.43h-5.1l-8.54-12.92v12.92h-5.1v-20.95h5.1l8.54,12.98v-12.98h5.1v20.95Z" fill="#764c83"/><path d="M215.91,77.1c-.38-.7-.92-1.23-1.63-1.6-.71-.37-1.54-.55-2.49-.55-1.65,0-2.98.54-3.97,1.63-.99,1.08-1.49,2.53-1.49,4.34,0,1.93.52,3.44,1.57,4.52,1.04,1.08,2.48,1.63,4.31,1.63,1.25,0,2.31-.32,3.18-.96s1.5-1.55,1.89-2.75h-6.48v-3.76h11.1v4.75c-.38,1.27-1.02,2.46-1.92,3.55-.91,1.09-2.05,1.98-3.45,2.66-1.39.68-2.96,1.01-4.72,1.01-2.07,0-3.92-.45-5.54-1.36-1.62-.9-2.89-2.16-3.79-3.78-.91-1.61-1.36-3.45-1.36-5.52s.45-3.92,1.36-5.54c.9-1.62,2.16-2.89,3.78-3.79s3.45-1.36,5.52-1.36c2.51,0,4.62.61,6.34,1.82s2.86,2.9,3.42,5.04h-5.64v.02Z" fill="#764c83"/><path d="M233.94,75.39c.9-1.62,2.14-2.89,3.75-3.79,1.6-.91,3.42-1.36,5.45-1.36,2.49,0,4.62.66,6.39,1.97s2.95,3.1,3.55,5.37h-5.61c-.42-.88-1.01-1.54-1.78-2s-1.64-.69-2.61-.69c-1.57,0-2.84.55-3.82,1.64-.98,1.09-1.46,2.56-1.46,4.39s.49,3.29,1.46,4.39c.97,1.09,2.25,1.64,3.82,1.64.97,0,1.85-.23,2.61-.69.77-.46,1.36-1.12,1.78-2h5.61c-.6,2.27-1.78,4.05-3.55,5.36-1.77,1.3-3.9,1.96-6.39,1.96-2.03,0-3.85-.45-5.45-1.36-1.6-.9-2.85-2.16-3.75-3.78-.9-1.61-1.34-3.45-1.34-5.52s.45-3.92,1.34-5.54h0Z" fill="#764c83"/><path d="M262.5,74.57v4.24h6.83v3.94h-6.83v4.6h7.73v4.09h-12.83v-20.95h12.83v4.09h-7.73Z" fill="#764c83"/><path d="M293.48,91.43h-5.1l-8.54-12.92v12.92h-5.1v-20.95h5.1l8.54,12.98v-12.98h5.1v20.95Z" fill="#764c83"/><path d="M313.45,70.48v4.09h-5.55v16.86h-5.1v-16.86h-5.55v-4.09h16.21-.01Z" fill="#764c83"/><path d="M322.32,74.57v4.24h6.83v3.94h-6.83v4.6h7.73v4.09h-12.83v-20.95h12.83v4.09h-7.73Z" fill="#764c83"/><path d="M345.24,91.43l-4.36-7.91h-1.22v7.91h-5.1v-20.95h8.57c1.65,0,3.06.29,4.22.87s2.03,1.37,2.61,2.37c.58,1.01.87,2.12.87,3.36,0,1.39-.39,2.64-1.18,3.73s-1.94,1.87-3.48,2.33l4.84,8.3h-5.77ZM339.66,79.91h3.16c.94,0,1.64-.23,2.1-.69.47-.46.7-1.1.7-1.94s-.23-1.42-.7-1.88-1.17-.69-2.1-.69h-3.16v5.19h0Z" fill="#764c83"/><path d="M36.26,92.15h29.44c1.82,0,3.31,1.49,3.31,3.31s-1.49,3.31-3.31,3.31h-29.44c-1.82,0-3.31-1.49-3.31-3.31s1.49-3.31,3.31-3.31" fill="#343956" fill-rule="evenodd"/><path d="M36.26,101.21h29.44c1.82,0,3.31,1.49,3.31,3.31s-1.49,3.31-3.31,3.31h-29.44c-1.82,0-3.31-1.49-3.31-3.31s1.49-3.31,3.31-3.31" fill="#343956" fill-rule="evenodd"/><path d="M43.56,110.49h14.16v1.35c0,2.9-2.37,5.27-5.27,5.27h-3.61c-2.9,0-5.27-2.37-5.27-5.27v-1.35h0Z" fill="#343956" fill-rule="evenodd"/><path d="M22.23,21.77c.32.08.62.22.87.4l3.29-3.31c-.88-1.07-1.26-2.54-.89-3.98.62-2.41,3.07-3.86,5.48-3.24s3.86,3.07,3.24,5.48c0,.03,0,.05-.02.08l3.65,1.22c.36-.72,1.18-1.11,1.99-.9.93.24,1.5,1.19,1.26,2.12-.24.93-1.19,1.5-2.12,1.26-.8-.21-1.33-.94-1.31-1.73l-3.73-1.25c-.9,1.91-3.06,2.98-5.19,2.44-.69-.18-1.3-.51-1.81-.94l-3.27,3.29c.49.63.7,1.47.48,2.3-.36,1.42-1.81,2.28-3.24,1.92-1.42-.36-2.28-1.81-1.92-3.24.36-1.42,1.81-2.28,3.24-1.92" fill="url(#b)" fill-rule="evenodd"/><g clip-path="url(#c)"><rect x="18.63" y="11.03" width="22.71" height="16.26" fill="url(#d)"/></g><path d="M46.57,53.14l.32,1.93c.81,0,1.58.48,1.9,1.27.41,1.04-.09,2.21-1.13,2.62s-2.21-.09-2.62-1.13.09-2.21,1.13-2.62c.08-.03.17-.06.25-.08l-.32-1.9c-.67.02-1.3-.37-1.56-1.03-.33-.84.08-1.78.91-2.12.84-.33,1.78.08,2.12.91.33.84-.08,1.78-.91,2.12-.03,0-.06.02-.09.03" fill="url(#e)" fill-rule="evenodd"/><g clip-path="url(#f)"><rect x="44.21" y="49.75" width="4.99" height="9.63" fill="url(#g)"/></g><path d="M41.09,43.53l3.45-1.02c.07.1.15.19.24.27l-1.62,2.92-1.01,1.81-1.65,2.96c-.23-.07-.47-.1-.73-.1-1.45,0-2.62,1.17-2.62,2.62s1.17,2.62,2.62,2.62,2.62-1.17,2.62-2.62c0-.92-.47-1.72-1.19-2.19l1.62-2.91,1.01-1.81,1.62-2.91c.16.05.33.07.5.07.96,0,1.74-.78,1.74-1.74s-.78-1.74-1.74-1.74-1.74.78-1.74,1.74c0,.1,0,.2.03.3l-3.36.99c-.32-.6-.95-1.02-1.68-1.02-1.05,0-1.9.85-1.9,1.9s.85,1.9,1.9,1.9,1.9-.85,1.9-1.9v-.14" fill="url(#h)" fill-rule="evenodd"/><g clip-path="url(#i)"><rect x="37.15" y="39.76" width="10.54" height="15.84" fill="url(#j)"/></g><path d="M28.59,41.44l2.37-1.62c.08.06.16.1.25.14l-.51,2.62-.32,1.62-.52,2.66c-.19,0-.39.04-.58.1-1.1.36-1.7,1.54-1.34,2.63.36,1.1,1.54,1.7,2.63,1.34,1.1-.36,1.7-1.54,1.34-2.63-.23-.7-.78-1.19-1.44-1.37l.51-2.61.32-1.62.51-2.61c.13,0,.27-.02.4-.07.73-.24,1.13-1.02.89-1.75s-1.02-1.13-1.75-.89-1.13,1.02-.89,1.75c.03.08.06.15.09.22l-2.31,1.58c-.39-.38-.98-.54-1.53-.36-.8.26-1.24,1.12-.98,1.92s1.12,1.24,1.92.98c.8-.26,1.24-1.12.98-1.92-.01-.04-.03-.07-.04-.11" fill="url(#k)" fill-rule="evenodd"/><g clip-path="url(#l)"><rect x="25.48" y="37.14" width="7.86" height="14.15" fill="url(#m)"/></g><path d="M21.35,35.05l1.81-1,2.63-1.45c.34.46.79.85,1.33,1.13,1.83.91,4.05.17,4.96-1.65.91-1.83.17-4.05-1.65-4.96-1.83-.91-4.05-.17-4.96,1.65-.52,1.03-.5,2.19-.07,3.16l-2.62,1.45-1.81,1-2.14,1.18c-.34-.5-.81-.91-1.39-1.2-1.83-.91-4.05-.17-4.96,1.65-.91,1.83-.17,4.05,1.65,4.96,1.83.91,4.04.17,4.96-1.65.5-1,.51-2.12.11-3.08l2.14-1.18h0Z" fill="url(#n)" fill-rule="evenodd"/><g clip-path="url(#o)"><rect x="11.58" y="26.21" width="21.42" height="15.67" fill="url(#p)"/></g><path d="M17.73,48.65c.28.26.53.54.74.84l1.62-.86,1.25-.66c-.11-.58.05-1.2.48-1.67.73-.8,1.97-.85,2.76-.12.8.73.85,1.97.12,2.76-.73.8-1.97.85-2.76.12-.12-.11-.23-.24-.32-.37l-1.17.62-1.58.84c.7,1.39.74,3.04.1,4.47l1.05.47,2.37,1.07c.14-.25.3-.48.5-.7,1.38-1.5,3.71-1.6,5.21-.23,1.5,1.38,1.6,3.71.23,5.21-1.38,1.5-3.71,1.6-5.21.23-1.09-.99-1.44-2.49-1.03-3.81l-2.39-1.07-1.1-.5c-.16.25-.34.48-.55.71-1.94,2.12-5.24,2.26-7.36.32-2.12-1.94-2.26-5.24-.32-7.36,1.94-2.12,5.24-2.26,7.36-.32" fill="url(#q)" fill-rule="evenodd"/><g clip-path="url(#r)"><rect x="8.43" y="45.44" width="21.28" height="16.61" fill="url(#s)"/></g><path d="M35.96,80.55c.15-.35.33-.67.54-.97l-1.35-1.24-1.04-.96c-.51.29-1.15.35-1.74.1-.99-.42-1.46-1.57-1.03-2.57.42-.99,1.57-1.46,2.57-1.03.99.42,1.46,1.57,1.03,2.57-.07.15-.15.29-.24.42l.98.9,1.32,1.21c1.08-1.12,2.62-1.71,4.18-1.58l.09-1.15.21-2.59c-.28-.05-.55-.13-.82-.24-1.88-.8-2.75-2.97-1.95-4.84.8-1.88,2.97-2.75,4.84-1.95,1.88.8,2.75,2.96,1.95,4.84-.58,1.35-1.87,2.19-3.25,2.24l-.21,2.61-.1,1.21c.29.07.57.16.85.28,2.65,1.13,3.88,4.18,2.75,6.83s-4.18,3.88-6.83,2.75c-2.65-1.13-3.88-4.18-2.75-6.83" fill="url(#t)" fill-rule="evenodd"/><g clip-path="url(#u)"><rect x="30.91" y="65.82" width="15.75" height="22.68" fill="url(#v)"/></g><path d="M40.43,27.95l1.92.4,2.61.54v.15c0,1.16.94,2.11,2.11,2.11s2.11-.94,2.11-2.11-.94-2.11-2.11-2.11c-.86,0-1.59.51-1.92,1.25l-2.64-.55-1.92-.4-2.08-.43c.03-.14.05-.29.05-.44,0-1.13-.92-2.05-2.05-2.05s-2.05.92-2.05,2.05.92,2.05,2.05,2.05c.13,0,.25-.01.37-.03h0l.55,1.89.24.84c-1.09.47-1.85,1.54-1.85,2.8,0,1.68,1.36,3.05,3.05,3.05s3.05-1.36,3.05-3.05-1.36-3.05-3.05-3.05c-.17,0-.33.01-.5.04l-.24-.84-.55-1.89-.02-.06c.26-.16.48-.37.65-.62l2.23.46h-.01Z" fill="url(#w)" fill-rule="evenodd"/><g clip-path="url(#x)"><rect x="34.44" y="24.31" width="14.73" height="12.64" fill="url(#y)"/></g><path d="M40.63,8.94c1.17,0,2.13.95,2.13,2.13s-.95,2.13-2.13,2.13-2.13-.95-2.13-2.13.95-2.13,2.13-2.13" fill="url(#z)" fill-rule="evenodd"/><g clip-path="url(#aa)"><rect x="38.5" y="8.94" width="4.26" height="4.26" fill="url(#ab)"/></g><path d="M45.76,20.33c1.06,0,1.91.86,1.91,1.91s-.86,1.91-1.91,1.91-1.91-.86-1.91-1.91.86-1.91,1.91-1.91" fill="url(#ac)" fill-rule="evenodd"/><g clip-path="url(#ad)"><rect x="43.85" y="20.33" width="3.82" height="3.82" fill="url(#ae)"/></g><path d="M25.94,70.54c-1.05-.35-1.83-1.32-1.88-2.49-.07-1.52,1.11-2.81,2.63-2.87s2.81,1.11,2.87,2.63c.07,1.52-1.11,2.81-2.63,2.87h-.36l-.63-.13h0Z" fill="url(#af)" fill-rule="evenodd"/><g clip-path="url(#ag)"><polyline points="29.63 77.66 29.63 65.11 23.18 65.11" fill="url(#ah)"/></g><path d="M18.4,43.41c.71,0,1.28.57,1.28,1.28s-.57,1.28-1.28,1.28-1.28-.57-1.28-1.28.57-1.28,1.28-1.28" fill="url(#ai)" fill-rule="evenodd"/><g clip-path="url(#aj)"><rect x="17.12" y="43.41" width="2.57" height="2.57" fill="url(#ak)"/></g><path d="M50.64,46.25c.79,0,1.43.64,1.43,1.43s-.64,1.43-1.43,1.43-1.43-.64-1.43-1.43.64-1.43,1.43-1.43" fill="url(#al)" fill-rule="evenodd"/><g clip-path="url(#am)"><rect x="49.21" y="46.25" width="2.86" height="2.86" fill="url(#an)"/></g><path d="M47.07,62.95c.79,0,1.43.64,1.43,1.43s-.64,1.43-1.43,1.43-1.43-.64-1.43-1.43.64-1.43,1.43-1.43" fill="url(#ao)" fill-rule="evenodd"/><g clip-path="url(#ap)"><rect x="45.64" y="62.95" width="2.86" height="2.86" fill="url(#aq)"/></g><path d="M32.16,63.92c.18,0,.35.03.51.09l1.28-2.17c-.61-.44-1-1.16-1-1.97,0-1.34,1.09-2.43,2.43-2.43s2.43,1.09,2.43,2.43v.04l2.08.15c.09-.42.47-.74.92-.74.52,0,.94.42.94.94s-.42.94-.94.94c-.45,0-.82-.31-.92-.73l-2.12-.15c-.22,1.12-1.2,1.97-2.39,1.97-.39,0-.75-.09-1.07-.25l-1.27,2.16c.34.26.56.68.56,1.14,0,.79-.64,1.44-1.44,1.44s-1.44-.64-1.44-1.44.64-1.44,1.44-1.44" fill="url(#ar)" fill-rule="evenodd"/><g clip-path="url(#as)"><rect x="30.72" y="57.44" width="11.03" height="9.35" fill="url(#at)"/></g><path d="M35.11,47.66c.78,0,1.41.63,1.41,1.41s-.63,1.41-1.41,1.41-1.41-.63-1.41-1.41.63-1.41,1.41-1.41" fill="url(#au)" fill-rule="evenodd"/><g clip-path="url(#av)"><rect x="33.7" y="47.66" width="2.81" height="2.81" fill="url(#aw)"/></g><path d="M34.4,69.02c.6,0,1.08.48,1.08,1.08s-.48,1.08-1.08,1.08-1.08-.48-1.08-1.08.48-1.08,1.08-1.08" fill="url(#ax)" fill-rule="evenodd"/><path d="M52.06,52.56c.6,0,1.08.48,1.08,1.08s-.48,1.08-1.08,1.08-1.08-.48-1.08-1.08.48-1.08,1.08-1.08" fill="url(#ay)" fill-rule="evenodd"/><rect x="33.31" y="69.02" width="2.16" height="2.16" fill="url(#az)"/><path d="M45.22,37.09l1.17-.44c.26.45.78.73,1.32.64.71-.11,1.2-.77,1.09-1.48s-.77-1.2-1.48-1.09-1.2.77-1.09,1.48c0,.06.02.11.04.17l-1.16.44c-.2-.38-.63-.6-1.08-.54-.57.09-.97.62-.88,1.19s.62.97,1.19.88.97-.62.88-1.19c0-.02,0-.04,0-.06" fill="url(#ba)" fill-rule="evenodd"/><g clip-path="url(#bb)"><rect x="43.07" y="34.61" width="5.84" height="3.81" fill="url(#bc)"/></g><path d="M46.58,13.56c.78,0,1.41.63,1.41,1.41s-.63,1.41-1.41,1.41-1.41-.63-1.41-1.41.63-1.41,1.41-1.41" fill="url(#bd)" fill-rule="evenodd"/><g clip-path="url(#be)"><rect x="45.17" y="13.56" width="2.81" height="2.81" fill="url(#bf)"/></g><path d="M19.12,59.48c.71,0,1.28.57,1.28,1.28s-.57,1.28-1.28,1.28-1.28-.57-1.28-1.28.57-1.28,1.28-1.28" fill="url(#bg)" fill-rule="evenodd"/><g clip-path="url(#bh)"><rect x="17.83" y="59.48" width="2.57" height="2.57" fill="url(#bi)"/></g><path d="M74.54,34.39c.04-5.86-1.96-12.11-6.19-17.45-2.51-3.17-3.42-4.19-6.06-5.9-2.26-1.44-5.14-2.3-8.47-2.13,2.62.58,5.4,1.78,8.56,4.92,2.21,2.32,4.04,5.18,6.1,9.37.15.31.28.62.42.92.95,2.89,1.45,6.08,1.64,9.48.34,6.11-1.25,10.29-3.79,13.92-1.02,1.45-2.2,2.83-3.47,4.23-.83-2-1.69-3.85-2.42-5.49-.21-.48-.4-.94-.59-1.41l-3.18-8.69c-1.17-4.2-1.76-8.27-1.39-12.05.37-3.74,1.68-7.24,4.25-10.34-2.57,2.06-4.42,4.57-5.63,7.47-1.21,2.91-1.76,6.22-1.8,9.77-.03,2.94.64,5.84,1.72,8.57v.02c.04.06.06.13.09.19.45,1.11.96,2.2,1.52,3.24.72,1.49,1.43,2.92,2.12,4.36,1.02,2.14,2,4.37,2.9,6.97-1.2,1.29-2.45,2.64-3.68,4.13-4.01,4.82-7.99,10.54-8.92,16.08-.76,4.59.28,7.78,2.41,10.05,2.14,2.28,5.3,3.92,8.82,5.29-1.82-1.42-3.63-2.57-5.13-3.95-1.47-1.35-2.63-2.98-3.02-5.63-.25-1.75-.09-3.63.38-5.25,1.44-4.92,4.35-9.17,7.65-13.07.92-1.08,1.87-2.13,2.83-3.17.64,2.47,1.18,5.27,1.38,8.13.3,4.19-.13,8.44-2.04,11.8-1.74,3.06-3.96,4.55-6.26,6.68,2.16-1.4,4.25-2.34,6.18-4.36,4.62-4.84,5.61-11.38,4.98-17.84-.24-2.5-.84-4.93-1.6-7.24,1.53-1.64,3-3.27,4.32-4.95,1.48-1.89,2.65-3.99,3.53-6.2h0c.05-.16.14-.31.18-.46.58-1.55,1.02-3.14,1.3-4.76.3-1.73.41-3.48.34-5.23l.02-.02Z" fill="url(#bj)" fill-rule="evenodd"/><path d="M68.62,30.17c-.51.09-1.03.21-1.57.35-1.4.37-2.78.68-4.16.92s-2.78.43-4.24.57c-.37.03-.75.09-1.12.14.25.96.59,1.88,1.02,2.76.91-.07,1.97-.19,3.32-.39,3.23-.47,5.25-.84,7.04-1.49-.07-.97-.17-1.93-.3-2.87h.01Z" fill="url(#bk)" fill-rule="evenodd"/><path d="M65.03,23.21c-1.31.36-2.59.66-3.87.9-1.28.23-2.58.42-3.91.56-.02.11-.03.21-.05.31-.12.88-.19,1.75-.2,2.6.8-.06,1.73-.19,2.87-.35,3.6-.53,5.72-.98,7.69-1.82-.29-.9-.63-1.75-1.01-2.57-.49.11-.99.23-1.51.37h0Z" fill="url(#bl)" fill-rule="evenodd"/><path d="M60.86,38.74c.53.87,1.09,1.77,1.66,2.7.34-.04.69-.09,1.07-.13,1.91-.24,3.38-.43,4.65-.68.32-1.05.53-2.12.65-3.22-.04,0-.08,0-.13.02-1.32.31-2.61.55-3.91.77-1.31.22-2.63.41-3.99.54Z" fill="url(#bm)" fill-rule="evenodd"/><path d="M55.35,71.06c-.47.86-.91,1.72-1.29,2.61,1.74.76,3.69,1.3,6.9,2.18.13.04.26.07.39.11.32-.91.55-1.87.7-2.83-.51-.14-1.01-.29-1.51-.44-1.3-.39-2.58-.81-3.89-1.25-.44-.15-.89-.26-1.31-.37h0Z" fill="url(#bn)" fill-rule="evenodd"/><path d="M62.26,67.03c-.04-.62-.1-1.25-.18-1.88-.68-.23-1.37-.47-2.05-.73-.67.8-1.33,1.63-1.96,2.46,1.17.51,2.49.95,4.26,1.45,0-.44-.04-.87-.07-1.29h0Z" fill="url(#bo)" fill-rule="evenodd"/><path d="M52.77,77.76c-.16,1.04-.18,2.1-.05,3.1,1.18.39,2.56.73,4.35,1.21.81-.74,1.57-1.5,2.26-2.39-.57-.16-1.13-.33-1.69-.49-1.3-.38-2.59-.75-3.91-1.17-.32-.1-.64-.18-.96-.25h0Z" fill="url(#bp)" fill-rule="evenodd"/></svg>