<?xml version="1.0" encoding="UTF-8" standalone="no"?>
<!-- Created with Inkscape (http://www.inkscape.org/) -->

<svg
   width="427.41937mm"
   height="340.64575mm"
   viewBox="0 0 439.15645 350"
   version="1.1"
   id="svg1"
   xml:space="preserve"
   inkscape:version="1.3.2 (1:1.3.2+202311252150+091e20ef0f)"
   sodipodi:docname="C2M2_Bold_CropPlain.svg"
   inkscape:export-filename="C2M2_Bold_Crop_Inkscapesvgsvg"
   inkscape:export-xdpi="300"
   inkscape:export-ydpi="300"
   xmlns:inkscape="http://www.inkscape.org/namespaces/inkscape"
   xmlns:sodipodi="http://sodipodi.sourceforge.net/DTD/sodipodi-0.dtd"
   xmlns="http://www.w3.org/2000/svg"
   xmlns:svg="http://www.w3.org/2000/svg"><sodipodi:namedview
     id="namedview1"
     pagecolor="#ffffff"
     bordercolor="#000000"
     borderopacity="0.25"
     inkscape:showpageshadow="2"
     inkscape:pageopacity="0.0"
     inkscape:pagecheckerboard="0"
     inkscape:deskcolor="#d1d1d1"
     inkscape:document-units="mm"
     showgrid="false"
     inkscape:zoom="11.716498"
     inkscape:cx="302.77818"
     inkscape:cy="306.40554"
     inkscape:window-width="1920"
     inkscape:window-height="1019"
     inkscape:window-x="0"
     inkscape:window-y="0"
     inkscape:window-maximized="1"
     inkscape:current-layer="layer1" /><defs
     id="defs1"><style
       type="text/css"
       id="style1" /></defs><g
     inkscape:label="Layer 1"
     inkscape:groupmode="layer"
     id="layer1"
     transform="translate(108.748,21.822872)"><path
       d="M 53.202543,265.07143 V 209.5512 a 10.583333,10.583333 0 0 1 10.583333,-10.58334 h 60.215184 v 0"
       id="path1"
       style="fill:none;stroke:#194d33;stroke-width:0.529167" /><path
       d="M 67.490043,283.32767 H 91.665956"
       id="path2"
       style="stroke:#194d33;stroke-width:0.529167" /><path
       d="m 50.556709,265.07143 v -93.46392 a 13.229167,13.229167 0 0 1 13.229167,-13.22917 h 60.215184 v 0"
       id="path4"
       style="fill:none;stroke:#194d33;stroke-width:0.529167" /><path
       d="M 47.910876,265.07143 V 138.0812 a 15.875,15.875 0 0 1 15.875,-15.875 h 60.215184 v 0"
       id="path6"
       style="fill:none;stroke:#194d33;stroke-width:0.529167" /><path
       d="m 158.8352,78.302577 29.08436,13.41459"
       id="path8"
       style="stroke:#194d33;stroke-width:0.529167" /><polygon
       points="-14.15513,0 -15.727922,5.2426407 0,0 -15.727922,-5.2426407 "
       fill="#194d33"
       transform="matrix(0.24025908,0.11081478,-0.11081478,0.24025908,191.32046,93.285765)"
       stroke="none"
       id="polygon8"
       style="stroke-width:2" /><rect
       x="177.88895"
       y="2.4626758"
       width="30.307196"
       height="4.2333336"
       rx="0.26458335"
       ry="0.26458335"
       stroke="none"
       id="rect9"
       transform="rotate(24.760586)"
       style="fill:#ffffff;stroke-width:0" /><text
       xml:space="preserve"
       x="178.15352"
       y="5.6376758"
       stroke="none"
       text-anchor="left"
       font-family="sans-serif"
       font-size="3.70417px"
       font-weight="normal"
       fill="#194d33"
       id="text9"
       transform="rotate(24.760586)"
       style="stroke-width:0">GENERATED_BY</text><path
       d="M 125.67944,78.302585 96.59508,91.717171"
       id="path13"
       style="stroke:#194d33;stroke-width:0.529167" /><polygon
       points="-14.15513,0 -15.727922,5.2426407 0,0 -15.727922,-5.2426407 "
       fill="#194d33"
       transform="matrix(-0.24025909,0.11081475,-0.11081475,-0.24025909,93.194182,93.285768)"
       stroke="none"
       id="polygon13"
       style="stroke-width:2" /><rect
       x="49.10355"
       y="120.5669"
       width="32.423862"
       height="6.3499999"
       rx="1.3229166"
       ry="1.3229166"
       stroke="none"
       id="rect14"
       transform="rotate(-24.760586)"
       style="fill:#ffffff;stroke-width:0" /><text
       xml:space="preserve"
       x="50.426468"
       y="124.80023"
       stroke="none"
       text-anchor="left"
       font-family="sans-serif"
       font-size="3.70417px"
       font-weight="normal"
       fill="#194d33"
       id="text14"
       transform="rotate(-24.760586)"
       style="stroke-width:0">GENERATED_BY</text><path
       d="m 126.44693,61.528229 -30.77681,-17.769"
       id="path18"
       style="stroke:#194d33;stroke-width:0.529167" /><polygon
       points="-14.15513,0 -15.727922,5.2426407 0,0 -15.727922,-5.2426407 "
       fill="#194d33"
       transform="matrix(-0.22913589,-0.13229166,0.13229166,-0.22913589,92.426672,41.886623)"
       stroke="none"
       id="polygon18"
       style="stroke-width:2" /><rect
       x="110.64654"
       y="-13.113454"
       width="23.709663"
       height="6.3499999"
       rx="1.3229166"
       ry="1.3229166"
       stroke="none"
       id="rect19"
       transform="rotate(29.999999)"
       style="fill:#ffffff;stroke-width:0" /><text
       xml:space="preserve"
       x="111.96945"
       y="-8.8801203"
       stroke="none"
       text-anchor="left"
       font-family="sans-serif"
       font-size="3.70417px"
       font-weight="normal"
       fill="#194d33"
       id="text19"
       transform="rotate(29.999999)"
       style="stroke-width:0">DATA_TYPE</text><path
       d="m 158.0677,61.52823 30.77681,-17.769"
       id="path23"
       style="stroke:#194d33;stroke-width:0.529167" /><polygon
       points="-14.15513,0 -15.727922,5.2426407 0,0 -15.727922,-5.2426407 "
       fill="#194d33"
       transform="matrix(0.22913589,-0.13229166,0.13229166,0.22913589,192.08796,41.886624)"
       stroke="none"
       id="polygon23"
       style="stroke-width:2" /><rect
       x="109.94987"
       y="129.14386"
       width="27.891323"
       height="6.3499999"
       rx="1.3229166"
       ry="1.3229166"
       stroke="none"
       id="rect24"
       transform="rotate(-29.999999)"
       style="fill:#ffffff;stroke-width:0" /><text
       xml:space="preserve"
       x="111.27278"
       y="133.37718"
       stroke="none"
       text-anchor="left"
       font-family="sans-serif"
       font-size="3.70417px"
       font-weight="normal"
       fill="#194d33"
       id="text24"
       transform="rotate(-29.999999)"
       style="stroke-width:0">FILE_FORMAT</text><path
       d="m 229.98917,265.07143 v -55.47044 a 10.583333,10.583333 0 0 0 -9.46071,-10.52362 l -0.10244,-0.0109 v 0"
       id="path28"
       style="fill:none;stroke:#194d33;stroke-width:0.529167" /><polygon
       points="-14.15513,0 -15.727922,5.2426407 0,0 -15.727922,-5.2426407 "
       fill="#194d33"
       transform="matrix(-0.26458333,0,0,-0.26458333,216.68079,199.06644)"
       stroke="none"
       id="polygon28"
       style="stroke-width:2" /><rect
       x="-238.30006"
       y="227.87251"
       width="12.462288"
       height="4.2333331"
       rx="0"
       ry="0"
       stroke="none"
       id="rect29"
       transform="rotate(-90)"
       style="fill:#ffffff;stroke-width:0" /><text
       xml:space="preserve"
       x="-238.30006"
       y="231.17979"
       stroke="none"
       text-anchor="left"
       font-family="sans-serif"
       font-size="4.23333px"
       font-weight="normal"
       fill="#194d33"
       id="text29"
       transform="rotate(-90)"
       style="stroke-width:0">FROM</text><path
       d="m 237.92667,265.07143 -0.33679,-159.02289 c -0.009,-4.06738 0.0637,-3.72944 -2.04446,-4.40412 -2.14486,-0.68642 -5.64563,-0.71244 -5.64563,-0.71244 v 0"
       id="path33"
       style="fill:none;stroke:#194d33;stroke-width:0.529167"
       sodipodi:nodetypes="csscc" /><polygon
       points="-14.15513,0 -15.727922,5.2426407 0,0 -15.727922,-5.2426407 "
       fill="#194d33"
       transform="matrix(-0.26458333,0,0,-0.26458333,226.15458,100.93198)"
       stroke="none"
       id="polygon33"
       style="stroke-width:2" /><rect
       x="-196.72386"
       y="235.81"
       width="27.444319"
       height="4.2333331"
       rx="0"
       ry="0"
       stroke="none"
       id="rect34"
       transform="rotate(-90)"
       style="fill:#ffffff;stroke-width:0" /><text
       xml:space="preserve"
       x="-196.72386"
       y="239.11729"
       stroke="none"
       text-anchor="left"
       font-family="sans-serif"
       font-size="4.23333px"
       font-weight="normal"
       fill="#194d33"
       id="text34"
       transform="rotate(-90)"
       style="stroke-width:0">SUBJECT_TO</text><path
       d="m 232.635,265.07143 v -93.46392 c 0,-7.30627 -5.92289,-13.22917 -13.22916,-13.22917 h -58.89228 v 0"
       id="path38"
       style="fill:none;stroke:#194d33;stroke-width:0.529167"
       sodipodi:nodetypes="csscc" /><path
       d="M 217.02459,283.32768 H 192.84868"
       id="path40"
       style="stroke:#194d33;stroke-width:0.529167" /><path
       d="m 173.26952,265.07143 v -18.90205 c 0,-5.84501 -4.73833,-10.58333 -10.58334,-10.58333 h -2.17262 v 0"
       id="path42"
       style="fill:none;stroke:#194d33;stroke-width:0.529167"
       sodipodi:nodetypes="csscc" /><path
       d="m 124.00106,235.58605 h -3.49552 a 10.583333,10.583333 0 0 0 -10.58333,10.58333 v 15.15683 0"
       id="path44"
       style="fill:none;stroke:#194d33;stroke-width:0.529167" /><polygon
       points="-14.15513,0 -15.727922,5.2426407 0,0 -15.727922,-5.2426407 "
       fill="#194d33"
       transform="matrix(0,0.26458333,-0.26458333,0,109.9222,265.07142)"
       stroke="none"
       id="polygon44"
       style="stroke-width:2" /><rect
       x="110.7305"
       y="233.46938"
       width="12.462288"
       height="4.2333331"
       rx="0"
       ry="0"
       stroke="none"
       id="rect45"
       style="fill:#ffffff;stroke-width:0" /><text
       xml:space="preserve"
       x="110.7305"
       y="236.77667"
       stroke="none"
       text-anchor="left"
       font-family="sans-serif"
       font-size="4.23333px"
       font-weight="normal"
       fill="#194d33"
       id="text45"
       style="stroke-width:0">FROM</text><path
       d="M 156.33618,283.32768 H 131.92367"
       id="path49"
       style="stroke:#194d33;stroke-width:0.529167" /><polygon
       points="-14.15513,0 -15.727922,5.2426407 0,0 -15.727922,-5.2426407 "
       fill="#194d33"
       transform="matrix(-0.26458333,0,0,-0.26458333,128.17846,283.32768)"
       stroke="none"
       id="polygon49"
       style="stroke-width:2" /><rect
       x="137.89877"
       y="281.211"
       width="12.462288"
       height="4.2333331"
       rx="0"
       ry="0"
       stroke="none"
       id="rect50"
       style="fill:#ffffff;stroke-width:0" /><text
       xml:space="preserve"
       x="137.89877"
       y="284.51828"
       stroke="none"
       text-anchor="left"
       font-family="sans-serif"
       font-size="4.23333px"
       font-weight="normal"
       fill="#194d33"
       id="text50"
       style="stroke-width:0">FROM</text><path
       d="m 175.91535,265.07143 v -52.8744 c 0,-7.30627 -5.9229,-13.22917 -13.22917,-13.22917 h -2.17262 v 0"
       id="path54"
       style="fill:none;stroke:#194d33;stroke-width:0.529167"
       sodipodi:nodetypes="csscc" /><path
       d="M 124.00106,70.656354 H 63.785876 A 18.520833,18.520833 0 0 0 45.265043,89.177187 v 172.149023 0"
       id="path56"
       style="fill:none;stroke:#9f0500;stroke-width:0.529167" /><polygon
       points="-14.15513,0 -15.727922,5.2426407 0,0 -15.727922,-5.2426407 "
       fill="#9f0500"
       transform="matrix(0,0.26458333,-0.26458333,0,45.265043,265.07143)"
       stroke="none"
       id="polygon56"
       style="stroke-width:2" /><rect
       x="63.137985"
       y="71.185524"
       width="42.990139"
       height="6.3499999"
       rx="1.3229166"
       ry="1.3229166"
       stroke="none"
       id="rect57"
       style="fill:#ffffff;stroke-width:0" /><text
       xml:space="preserve"
       x="64.460899"
       y="75.418854"
       stroke="none"
       text-anchor="left"
       font-family="sans-serif"
       font-size="3.70417px"
       font-weight="normal"
       fill="#9f0500"
       id="text57"
       style="stroke-width:0">DESCRIBES_SUBJECT</text><path
       d="m 160.51356,70.656354 h 58.89228 A 21.166666,21.166666 0 0 1 240.5725,91.82302 v 169.50319 0"
       id="path61"
       style="fill:none;stroke:#9f0500;stroke-width:0.529167" /><polygon
       points="-14.15513,0 -15.727922,5.2426407 0,0 -15.727922,-5.2426407 "
       fill="#9f0500"
       transform="matrix(0,0.26458333,-0.26458333,0,240.5725,265.07142)"
       stroke="none"
       id="polygon61"
       style="stroke-width:2" /><rect
       x="179.92026"
       y="71.185524"
       width="41.245544"
       height="3.96875"
       rx="0"
       ry="0"
       stroke="none"
       id="rect62"
       style="fill:#ffffff;stroke-width:0" /><text
       xml:space="preserve"
       x="179.92026"
       y="74.228226"
       stroke="none"
       text-anchor="left"
       font-family="sans-serif"
       font-size="3.96875px"
       font-weight="normal"
       fill="#9f0500"
       id="text62"
       style="stroke-width:0">DESCRIBES_SAMPLE</text><path
       d="M 235.28084,265.07143 V 138.0812 c 0,-8.76752 -7.10748,-15.875 -15.875,-15.875 h -58.89228 v 0"
       id="path66"
       style="fill:none;stroke:#194d33;stroke-width:0.529167"
       sodipodi:nodetypes="csscc" /><path
       d="m 233.95792,301.58392 v 3.7452 c 0,5.84501 -4.73832,10.58334 -10.58333,10.58334 H 142.25731 61.140042 c -9.196218,0 -10.583333,-5.53823 -10.583333,-10.58334 v 0 0"
       id="path68"
       style="fill:none;stroke:#9f0500;stroke-width:0.529167"
       sodipodi:nodetypes="csscsccc" /><polygon
       points="-14.15513,0 -15.727922,5.2426407 0,0 -15.727922,-5.2426407 "
       fill="#9f0500"
       transform="matrix(0,-0.26458333,0.26458333,0,50.556709,301.58393)"
       stroke="none"
       id="polygon68"
       style="stroke-width:2" /><rect
       x="123.40988"
       y="308.50412"
       width="37.694855"
       height="6.8791666"
       rx="1.3229166"
       ry="1.3229166"
       stroke="none"
       id="rect69"
       style="fill:#ffffff;stroke-width:0" /><text
       xml:space="preserve"
       x="124.7328"
       y="313.13434"
       stroke="none"
       text-anchor="left"
       font-family="sans-serif"
       font-size="4.23333px"
       font-weight="normal"
       fill="#9f0500"
       id="text69"
       style="stroke-width:0">SAMPLED_FROM</text><path
       d="m 142.25732,180.71161 v -4.07702"
       id="path73"
       style="stroke:#194d33;stroke-width:0.529167" /><path
       d="M 19.024531,70.656354 H 120.25586"
       id="path75"
       style="stroke:#5c5bfb;stroke-width:0.529167" /><polygon
       points="-14.15513,0 -15.727922,5.2426407 0,0 -15.727922,-5.2426407 "
       fill="#5c5bfb"
       transform="matrix(0.26458333,0,0,0.26458333,124.00107,70.656354)"
       stroke="none"
       id="polygon75"
       style="stroke-width:2" /><rect
       x="57.537571"
       y="63.24802"
       width="24.20524"
       height="6.8791666"
       rx="1.3229166"
       ry="1.3229166"
       stroke="none"
       id="rect76"
       style="fill:#ffffff;stroke-width:0" /><text
       xml:space="preserve"
       x="58.860489"
       y="67.878227"
       stroke="none"
       text-anchor="left"
       font-family="sans-serif"
       font-size="4.23333px"
       font-weight="normal"
       fill="#5c5bfb"
       id="text76"
       style="stroke-width:0">CONTAINS</text><path
       d="m -17.487969,73.302187 v 0 A 10.583333,10.583333 0 0 0 -28.071302,83.885521 V 194.60733 305.32912 a 10.583333,10.583333 0 0 0 10.583333,10.58334 H 104.26623 226.02042 a 10.583333,10.583333 0 0 0 10.58333,-10.58334 v 0 0"
       id="path80"
       style="fill:none;stroke:#5c5bfb;stroke-width:0.529167" /><polygon
       points="-14.15513,0 -15.727922,5.2426407 0,0 -15.727922,-5.2426407 "
       fill="#5c5bfb"
       transform="matrix(0,-0.26458333,0.26458333,0,236.60375,301.58392)"
       stroke="none"
       id="polygon80"
       style="stroke-width:2" /><rect
       x="182.50471"
       y="24.63172"
       width="24.20524"
       height="6.8791666"
       rx="1.3229166"
       ry="1.3229166"
       stroke="none"
       id="rect81"
       transform="rotate(90)"
       style="fill:#ffffff;stroke-width:0" /><text
       xml:space="preserve"
       x="183.82762"
       y="29.261927"
       stroke="none"
       text-anchor="left"
       font-family="sans-serif"
       font-size="4.23333px"
       font-weight="normal"
       fill="#5c5bfb"
       id="text81"
       transform="rotate(90)"
       style="stroke-width:0">CONTAINS</text><path
       d="M 0.76828078,88.912604 V 271.42143 A 13.229167,13.229167 0 0 0 13.997447,284.65059 h 13.234884 v 0"
       id="path85"
       style="fill:none;stroke:#000000;stroke-width:0.529167" /><polygon
       points="-14.15513,0 -15.727922,5.2426407 0,0 -15.727922,-5.2426407 "
       fill="#000000"
       transform="matrix(0.26458333,0,0,0.26458333,30.977543,284.65059)"
       stroke="none"
       id="polygon85"
       style="stroke-width:2" /><path
       d="M 283.74636,88.912604 V 271.42143 a 13.229167,13.229167 0 0 1 -13.22916,13.22916 h -13.23491 v 0"
       id="path87"
       style="fill:none;stroke:#000000;stroke-width:0.529167" /><polygon
       points="-14.15513,0 -15.727922,5.2426407 0,0 -15.727922,-5.2426407 "
       fill="#000000"
       transform="matrix(-0.26458333,0,0,-0.26458333,253.53709,284.65059)"
       stroke="none"
       id="polygon87"
       style="stroke-width:2" /><path
       d="m 302.00261,71.979271 v 0 c 7.30627,-2e-6 13.22917,5.922898 13.22917,13.229166 V 195.26879 305.32912 c 0,7.30627 -5.9229,13.22917 -13.22917,13.22917 H 181.57132 61.140042 c -13.229166,0 -13.505371,-5.81409 -13.229166,-13.22917 v 0 0"
       id="path89"
       style="fill:none;stroke:#5c5bfb;stroke-width:0.529167"
       sodipodi:nodetypes="csscsscsccc" /><polygon
       points="-14.15513,0 -15.727922,5.2426407 0,0 -15.727922,-5.2426407 "
       fill="#5c5bfb"
       transform="matrix(0,-0.26458333,0.26458333,0,47.910876,301.58393)"
       stroke="none"
       id="polygon89"
       style="stroke-width:2" /><rect
       x="183.16617"
       y="-318.67136"
       width="24.20524"
       height="6.8791666"
       rx="1.3229166"
       ry="1.3229166"
       stroke="none"
       id="rect90"
       transform="rotate(90)"
       style="fill:#ffffff;stroke-width:0" /><text
       xml:space="preserve"
       x="184.48909"
       y="-314.04114"
       stroke="none"
       text-anchor="left"
       font-family="sans-serif"
       font-size="4.23333px"
       font-weight="normal"
       fill="#5c5bfb"
       id="text90"
       transform="rotate(90)"
       style="stroke-width:0">CONTAINS</text><path
       d="M 265.4901,70.656357 H 164.25877"
       id="path94"
       style="stroke:#5c5bfb;stroke-width:0.529167" /><polygon
       points="-14.15513,0 -15.727922,5.2426407 0,0 -15.727922,-5.2426407 "
       fill="#5c5bfb"
       transform="matrix(-0.26458333,0,0,-0.26458333,160.51356,70.656357)"
       stroke="none"
       id="polygon94"
       style="stroke-width:2" /><rect
       x="202.77184"
       y="63.24802"
       width="24.20524"
       height="6.8791666"
       rx="1.3229166"
       ry="1.3229166"
       stroke="none"
       id="rect95"
       style="fill:#ffffff;stroke-width:0" /><text
       xml:space="preserve"
       x="204.09474"
       y="67.878227"
       stroke="none"
       text-anchor="left"
       font-family="sans-serif"
       font-size="4.23333px"
       font-weight="normal"
       fill="#5c5bfb"
       id="text95"
       style="stroke-width:0">CONTAINS</text><path
       d="m -17.487969,70.656354 v 0 h -13.229166 -13.229167 -25.866907 v 0"
       id="path99"
       style="stroke:#000000;stroke-width:0.529167" /><polygon
       points="-14.15513,0 -15.727922,5.2426407 0,0 -15.727922,-5.2426407 "
       fill="#000000"
       transform="matrix(-0.26458333,0,0,-0.26458333,-73.558421,70.656357)"
       stroke="none"
       id="polygon99"
       style="stroke-width:2" /><rect
       x="-67.701836"
       y="67.216774"
       width="34.873322"
       height="6.8791666"
       rx="1.3229166"
       ry="1.3229166"
       stroke="none"
       id="rect100"
       style="fill:#ffffff;stroke-width:0" /><text
       xml:space="preserve"
       x="-66.378922"
       y="71.846977"
       stroke="none"
       text-anchor="left"
       font-family="sans-serif"
       font-size="4.23333px"
       font-weight="normal"
       fill="#000000"
       id="text100"
       style="stroke-width:0">PRODUCED_BY</text><path
       d="M 142.25732,28.712544 V 48.654893"
       id="path104"
       style="stroke:#000000;stroke-width:0.529167" /><polygon
       points="-14.15513,0 -15.727922,5.2426407 0,0 -15.727922,-5.2426407 "
       fill="#000000"
       transform="matrix(0,0.26458333,-0.26458333,0,142.25732,52.400105)"
       stroke="none"
       id="polygon104"
       style="stroke-width:2" /><path
       d="m 160.51356,10.456294 h 111.32655 a 10.583333,10.583333 0 0 1 10.58334,10.583333 v 27.615266 0"
       id="path106"
       style="fill:none;stroke:#000000;stroke-width:0.529167" /><polygon
       points="-14.15513,0 -15.727922,5.2426407 0,0 -15.727922,-5.2426407 "
       fill="#000000"
       transform="matrix(0,0.26458333,-0.26458333,0,282.42343,52.400104)"
       stroke="none"
       id="polygon106"
       style="stroke-width:2" /><rect
       x="209.36588"
       y="7.0167103"
       width="24.20524"
       height="6.8791666"
       rx="1.3229166"
       ry="1.3229166"
       stroke="none"
       id="rect107"
       style="fill:#ffffff;stroke-width:0" /><text
       xml:space="preserve"
       x="210.6888"
       y="11.646918"
       stroke="none"
       text-anchor="left"
       font-family="sans-serif"
       font-size="4.23333px"
       font-weight="normal"
       fill="#000000"
       id="text107"
       style="stroke-width:0">CONTAINS</text><path
       d="M 124.00106,10.456294 H 12.674531 A 10.583333,10.583333 0 0 0 2.0911974,21.039627 v 27.615266 0"
       id="path111"
       style="fill:none;stroke:#000000;stroke-width:0.529167" /><polygon
       points="-14.15513,0 -15.727922,5.2426407 0,0 -15.727922,-5.2426407 "
       fill="#000000"
       transform="matrix(0,0.26458333,-0.26458333,0,2.0911948,52.400104)"
       stroke="none"
       id="polygon111"
       style="stroke-width:2" /><rect
       x="50.943508"
       y="7.0167103"
       width="24.20524"
       height="6.8791666"
       rx="1.3229166"
       ry="1.3229166"
       stroke="none"
       id="rect112"
       style="fill:#ffffff;stroke-width:0" /><text
       xml:space="preserve"
       x="52.266426"
       y="11.646918"
       stroke="none"
       text-anchor="left"
       font-family="sans-serif"
       font-size="4.23333px"
       font-weight="normal"
       fill="#000000"
       id="text112"
       style="stroke-width:0">CONTAINS</text><path
       d="m 140.93439,-7.7999561 v 0 c 0,-5.8450119 -4.73832,-10.5833309 -10.58333,-10.5833329 H 78.791698 27.232331 c -5.845013,0 -10.583333,4.73832 -10.583333,10.5833329 V 131.81073 271.42143 c 7e-6,5.84501 4.738325,10.58332 10.583333,10.58332 v 0 0"
       id="path116"
       style="fill:none;stroke:#000000;stroke-width:0.529167"
       sodipodi:nodetypes="csscssccscc" /><polygon
       points="-14.15513,0 -15.727922,5.2426407 0,0 -15.727922,-5.2426407 "
       fill="#000000"
       transform="matrix(0.26458333,0,0,0.26458333,30.977543,282.00475)"
       stroke="none"
       id="polygon116"
       style="stroke-width:2" /><rect
       x="66.689079"
       y="-21.822872"
       width="24.20524"
       height="6.8791666"
       rx="1.3229166"
       ry="1.3229166"
       stroke="none"
       id="rect117"
       style="fill:#ffffff;stroke-width:0" /><text
       xml:space="preserve"
       x="68.011993"
       y="-17.192665"
       stroke="none"
       text-anchor="left"
       font-family="sans-serif"
       font-size="4.23333px"
       font-weight="normal"
       fill="#000000"
       id="text117"
       style="stroke-width:0">CONTAINS</text><path
       d="m 143.58022,-7.7999561 v 0 a 10.583333,10.583333 0 0 1 10.58334,-10.5833329 h 51.55938 51.55935 a 10.583333,10.583333 0 0 1 10.58333,10.5833329 V 131.81073 271.42143 a 10.583333,10.583333 0 0 1 -10.58333,10.58332 v 0 0"
       id="path121"
       style="fill:none;stroke:#000000;stroke-width:0.529167" /><polygon
       points="-14.15513,0 -15.727922,5.2426407 0,0 -15.727922,-5.2426407 "
       fill="#000000"
       transform="matrix(-0.26458333,0,0,-0.26458333,253.53709,282.00476)"
       stroke="none"
       id="polygon121"
       style="stroke-width:2" /><rect
       x="193.62032"
       y="-21.822872"
       width="24.20524"
       height="6.8791666"
       rx="1.3229166"
       ry="1.3229166"
       stroke="none"
       id="rect122"
       style="fill:#ffffff;stroke-width:0" /><text
       xml:space="preserve"
       x="194.94324"
       y="-17.192665"
       stroke="none"
       text-anchor="left"
       font-family="sans-serif"
       font-size="4.23333px"
       font-weight="normal"
       fill="#000000"
       id="text122"
       style="stroke-width:0">CONTAINS</text><path
       d="m 302.00261,69.333437 v 0 c 5.84502,4e-6 10.58334,-4.738317 10.58334,-10.583333 V 53.7025 48.654893 c 0,-5.84502 -4.73832,-10.583333 -10.58334,-10.583333 h -3.175 -3.175 c -6.27697,0 -11.16679,1.250569 -10.58333,10.583333 v 0 l 1.38711,-0.416135"
       id="path126"
       style="fill:none;stroke:#5c5bfb;stroke-width:0.529167"
       sodipodi:nodetypes="csscssssccc" /><polygon
       points="-14.15513,0 -15.727922,5.2426407 0,0 -15.727922,-5.2426407 "
       fill="#5c5bfb"
       transform="matrix(0,0.26458333,-0.26458333,0,285.06927,52.400104)"
       stroke="none"
       id="polygon126"
       style="stroke-width:2" /><rect
       x="286.72498"
       y="34.631977"
       width="24.20524"
       height="6.8791666"
       rx="1.3229166"
       ry="1.3229166"
       stroke="none"
       id="rect127"
       style="fill:#ffffff;stroke-width:0" /><text
       xml:space="preserve"
       x="288.04791"
       y="39.262184"
       stroke="none"
       text-anchor="left"
       font-family="sans-serif"
       font-size="4.23333px"
       font-weight="normal"
       fill="#5c5bfb"
       id="text127"
       style="stroke-width:0">CONTAINS</text><path
       d="m -17.487969,68.010521 v 0 c -11.889149,-0.03458 -10.583333,-4.73832 -10.583333,-10.583333 v -4.386147 -4.386148 c 0,-5.845013 4.73832,-10.583333 10.583333,-10.583333 h 3.175 3.175 c 5.8450135,0 10.58333313,4.73832 10.58333313,10.583333 v 0 0"
       id="path131"
       style="fill:none;stroke:#5c5bfb;stroke-width:0.529167"
       sodipodi:nodetypes="ccscsscsscc" /><polygon
       points="-14.15513,0 -15.727922,5.2426407 0,0 -15.727922,-5.2426407 "
       fill="#5c5bfb"
       transform="matrix(0,0.26458333,-0.26458333,0,-0.55463852,52.400104)"
       stroke="none"
       id="polygon131"
       style="stroke-width:2" /><rect
       x="-26.415588"
       y="34.631977"
       width="24.20524"
       height="6.8791666"
       rx="1.3229166"
       ry="1.3229166"
       stroke="none"
       id="rect132"
       style="fill:#ffffff;stroke-width:0" /><text
       xml:space="preserve"
       x="-25.092672"
       y="39.262184"
       stroke="none"
       text-anchor="left"
       font-family="sans-serif"
       font-size="4.23333px"
       font-weight="normal"
       fill="#5c5bfb"
       id="text132"
       style="stroke-width:0">CONTAINS</text><circle
       cx="49.233791"
       cy="283.3277"
       r="16.404167"
       id="circle136"
       style="fill:#b3b3b3;stroke:#000000;stroke-width:1.05833" /><text
       xml:space="preserve"
       x="49.233791"
       y="284.78287"
       stroke="none"
       id="text137"
       style="font-weight:bold;font-size:5.29167px;font-family:sans-serif;text-anchor:middle;fill:#000000;stroke-width:0.264583">Subject</text><circle
       cx="142.25731"
       cy="198.96786"
       r="16.404167"
       id="circle142"
       style="fill:#194d33;stroke:#000000;stroke-width:1.05833" /><text
       xml:space="preserve"
       x="142.25731"
       y="200.42307"
       stroke="none"
       id="text143"
       style="font-weight:bold;font-size:5.29167px;font-family:sans-serif;text-anchor:middle;fill:#ffffff;stroke-width:0.264583">Phenotype</text><circle
       cx="142.25731"
       cy="158.37834"
       r="16.404167"
       id="circle148"
       style="fill:#194d33;stroke:#000000;stroke-width:1.05833" /><text
       xml:space="preserve"
       x="142.25731"
       y="159.83354"
       stroke="none"
       id="text149"
       style="font-weight:bold;font-size:5.29167px;font-family:sans-serif;text-anchor:middle;fill:#ffffff;stroke-width:0.264583">Disease</text><circle
       cx="174.59242"
       cy="283.3277"
       r="16.404167"
       id="circle154"
       style="fill:#194d33;stroke:#000000;stroke-width:1.05833" /><text
       xml:space="preserve"
       x="174.59242"
       y="284.78287"
       stroke="none"
       id="text155"
       style="font-weight:bold;font-size:5.29167px;font-family:sans-serif;text-anchor:middle;fill:#ffffff;stroke-width:0.264583">Gene</text><circle
       cx="142.25731"
       cy="235.58604"
       r="16.404167"
       id="circle160"
       style="fill:#194d33;stroke:#000000;stroke-width:1.05833" /><text
       xml:space="preserve"
       x="142.25731"
       y="237.04126"
       stroke="none"
       id="text161"
       style="font-weight:bold;font-size:5.29167px;font-family:sans-serif;text-anchor:middle;fill:#ffffff;stroke-width:0.264583">Protein</text><circle
       cx="142.25731"
       cy="122.20621"
       r="16.404167"
       id="circle166"
       style="fill:#194d33;stroke:#000000;stroke-width:1.05833" /><text
       xml:space="preserve"
       x="142.25731"
       y="123.66141"
       stroke="none"
       id="text167"
       style="font-weight:bold;font-size:5.29167px;font-family:sans-serif;text-anchor:middle;fill:#ffffff;stroke-width:0.264583">Substance</text><circle
       cx="142.25731"
       cy="70.656357"
       r="16.404167"
       id="circle172"
       style="fill:#b3b3b3;stroke:#000000;stroke-width:1.05833" /><text
       xml:space="preserve"
       x="142.25731"
       y="72.111565"
       stroke="none"
       id="text173"
       style="font-weight:bold;font-size:5.29167px;font-family:sans-serif;text-anchor:middle;fill:#000000;stroke-width:0.264583">File</text><circle
       cx="235.28084"
       cy="283.3277"
       r="16.404167"
       id="circle178"
       style="fill:#b3b3b3;stroke:#000000;stroke-width:1.05833" /><text
       xml:space="preserve"
       x="235.28084"
       y="284.78287"
       stroke="none"
       id="text179"
       style="font-weight:bold;font-size:5.29167px;font-family:sans-serif;text-anchor:middle;fill:#000000;stroke-width:0.264583">Biosample</text><circle
       cx="109.9222"
       cy="283.3277"
       r="16.404167"
       id="circle184"
       style="fill:#194d33;stroke:#000000;stroke-width:1.05833" /><text
       xml:space="preserve"
       x="109.92221"
       y="284.78287"
       stroke="none"
       id="text185"
       style="font-weight:bold;font-size:5.29167px;font-family:sans-serif;text-anchor:middle;fill:#ffffff;stroke-width:0.264583">Taxonomy</text><circle
       cx="207.89833"
       cy="100.93198"
       r="16.404167"
       id="circle190"
       style="fill:#194d33;stroke:#000000;stroke-width:1.05833" /><text
       xml:space="preserve"
       x="207.89835"
       y="102.38719"
       stroke="none"
       id="text191"
       style="font-weight:bold;font-size:5.29167px;font-family:sans-serif;text-anchor:middle;fill:#ffffff;stroke-width:0.264583">Assay</text><circle
       cx="76.61631"
       cy="100.93198"
       r="16.404167"
       id="circle196"
       style="fill:#194d33;stroke:#000000;stroke-width:1.05833" /><text
       xml:space="preserve"
       x="76.616302"
       y="102.38719"
       stroke="none"
       id="text197"
       style="font-weight:bold;font-size:5.29167px;font-family:sans-serif;text-anchor:middle;fill:#ffffff;stroke-width:0.264583">Analysis</text><circle
       cx="207.89833"
       cy="32.758499"
       r="16.404167"
       id="circle202"
       style="fill:#194d33;stroke:#000000;stroke-width:1.05833" /><text
       xml:space="preserve"
       x="207.89835"
       y="34.213707"
       stroke="none"
       id="text203"
       style="font-weight:bold;font-size:5.29167px;font-family:sans-serif;text-anchor:middle;fill:#ffffff;stroke-width:0.264583">FileFormat</text><circle
       cx="76.61631"
       cy="32.758499"
       r="16.404167"
       id="circle208"
       style="fill:#194d33;stroke:#000000;stroke-width:1.05833" /><text
       xml:space="preserve"
       x="76.616302"
       y="34.213707"
       stroke="none"
       id="text209"
       style="font-weight:bold;font-size:5.29167px;font-family:sans-serif;text-anchor:middle;fill:#ffffff;stroke-width:0.264583">DataType</text><circle
       cx="198.42456"
       cy="199.06644"
       r="16.404167"
       id="circle214"
       style="fill:#194d33;stroke:#000000;stroke-width:1.05833" /><text
       xml:space="preserve"
       x="198.42455"
       y="200.52165"
       stroke="none"
       id="text215"
       style="font-weight:bold;font-size:5.29167px;font-family:sans-serif;text-anchor:middle;fill:#ffffff;stroke-width:0.264583">Anatomy</text><circle
       cx="0.76828349"
       cy="70.656357"
       r="16.404167"
       id="circle220"
       style="fill:#5c5bfb;stroke:#000000;stroke-width:1.05833" /><text
       xml:space="preserve"
       x="0.7682808"
       y="72.111565"
       stroke="none"
       id="text221"
       style="font-weight:bold;font-size:5.29167px;font-family:sans-serif;text-anchor:middle;fill:#ffffff;stroke-width:0.264583">Project</text><circle
       cx="283.74634"
       cy="70.656357"
       r="16.404167"
       id="circle226"
       style="fill:#5c5bfb;stroke:#000000;stroke-width:1.05833" /><text
       xml:space="preserve"
       x="283.74637"
       y="72.111565"
       stroke="none"
       id="text227"
       style="font-weight:bold;font-size:5.29167px;font-family:sans-serif;text-anchor:middle;fill:#ffffff;stroke-width:0.264583">Collection</text><circle
       cx="-91.814667"
       cy="70.656357"
       r="16.404167"
       id="circle232"
       style="fill:#e9d69e;stroke:#000000;stroke-width:1.05833" /><text
       xml:space="preserve"
       x="-91.814667"
       y="72.111565"
       stroke="none"
       id="text233"
       style="font-weight:bold;font-size:5.29167px;font-family:sans-serif;text-anchor:middle;fill:#000000;stroke-width:0.264583">DCC</text><circle
       cx="142.25731"
       cy="10.456294"
       r="16.404167"
       id="circle238"
       style="fill:#e9d69e;stroke:#000000;stroke-width:1.05833" /><text
       xml:space="preserve"
       x="142.25731"
       y="11.65002"
       stroke="none"
       id="text239"
       style="font-weight:bold;font-size:4.34082px;font-family:sans-serif;text-anchor:middle;fill:#000000;stroke-width:0.217041">IDNamespace</text></g></svg>
