<svg width="448" height="342" viewBox="0 0 448 342" fill="none" xmlns="http://www.w3.org/2000/svg">
<rect width="448" height="342" fill="white"/>
<path d="M282 68.5L286 74.5" stroke="#5A84AD" stroke-width="0.2" stroke-dasharray="0.4 0.4"/>
<path d="M346.5 183.5L339 173" stroke="#5A84AD" stroke-width="0.2" stroke-dasharray="0.4 0.4"/>
<path d="M79 232L98 216" stroke="#5A84AD" stroke-width="0.2" stroke-dasharray="0.4 0.4"/>
<path d="M79.5 269.5L112 229.5" stroke="#5A84AD" stroke-width="0.2" stroke-dasharray="0.4 0.4"/>
<circle cx="142.744" cy="181.744" r="56.7439" fill="#A5B4DB" fill-opacity="0.85"/>
<path d="M112.318 185.648C111.481 185.648 110.796 185.432 110.263 184.998C109.738 184.564 109.415 183.986 109.293 183.263L110.583 182.943C110.666 183.445 110.864 183.826 111.176 184.085C111.496 184.343 111.888 184.473 112.352 184.473C112.611 184.473 112.843 184.427 113.048 184.336C113.254 184.237 113.414 184.1 113.528 183.925C113.649 183.75 113.71 183.552 113.71 183.331C113.71 183.095 113.646 182.901 113.516 182.749C113.387 182.589 113.2 182.448 112.957 182.327C112.713 182.197 112.417 182.064 112.067 181.927C111.587 181.745 111.18 181.547 110.845 181.334C110.51 181.121 110.255 180.869 110.08 180.58C109.905 180.284 109.818 179.933 109.818 179.53C109.818 179.112 109.921 178.743 110.126 178.423C110.332 178.096 110.621 177.841 110.994 177.658C111.366 177.476 111.796 177.384 112.283 177.384C112.809 177.384 113.273 177.502 113.676 177.738C114.079 177.974 114.403 178.332 114.646 178.811L113.596 179.45C113.436 179.161 113.242 178.94 113.014 178.788C112.786 178.628 112.527 178.548 112.238 178.548C112.032 178.548 111.846 178.59 111.678 178.674C111.511 178.75 111.378 178.86 111.279 179.005C111.188 179.15 111.142 179.317 111.142 179.507C111.142 179.705 111.199 179.88 111.313 180.032C111.427 180.177 111.602 180.31 111.838 180.432C112.082 180.554 112.39 180.687 112.763 180.831C113.242 181.014 113.649 181.212 113.984 181.425C114.319 181.638 114.574 181.893 114.749 182.19C114.932 182.479 115.023 182.833 115.023 183.251C115.023 183.716 114.909 184.126 114.681 184.484C114.452 184.842 114.133 185.127 113.722 185.34C113.318 185.546 112.85 185.648 112.318 185.648ZM116.282 185.5V177.544H118.827C119.71 177.544 120.379 177.734 120.836 178.115C121.293 178.495 121.521 179.066 121.521 179.827C121.521 180.588 121.289 181.17 120.825 181.573C120.368 181.969 119.702 182.167 118.827 182.167H117.594V185.5H116.282ZM117.594 180.991H118.69C119.162 180.991 119.531 180.904 119.797 180.729C120.064 180.554 120.197 180.261 120.197 179.85C120.197 179.446 120.067 179.157 119.809 178.982C119.558 178.807 119.185 178.72 118.69 178.72H117.594V180.991ZM122.658 185.5V177.544H123.982V185.5H122.658ZM125.601 185.5V177.544H126.97L130.806 183.776H130.475V177.544H131.799V185.5H130.406L126.605 179.256H126.925V185.5H125.601ZM132.73 185.5L135.88 177.544H136.885L140.024 185.5H138.586L136.383 179.473L134.179 185.5H132.73ZM134.693 183.833L135.104 182.658H137.65L138.083 183.833H134.693ZM143.926 185.5V177.544H146.643C147.419 177.544 148.028 177.723 148.469 178.08C148.918 178.431 149.143 178.918 149.143 179.542C149.143 179.922 149.063 180.257 148.903 180.546C148.743 180.828 148.519 181.052 148.23 181.22C148.671 181.364 149.002 181.604 149.223 181.939C149.443 182.273 149.554 182.692 149.554 183.194C149.554 183.917 149.326 184.484 148.869 184.895C148.42 185.298 147.788 185.5 146.974 185.5H143.926ZM145.251 184.29H146.871C147.785 184.29 148.241 183.906 148.241 183.137C148.241 182.772 148.131 182.49 147.91 182.292C147.697 182.087 147.396 181.984 147.008 181.984H145.251V184.29ZM145.251 180.797H146.734C147.069 180.797 147.336 180.706 147.533 180.523C147.731 180.333 147.83 180.074 147.83 179.747C147.83 179.435 147.724 179.192 147.511 179.016C147.305 178.841 147.016 178.754 146.643 178.754H145.251V180.797ZM150.871 185.5V177.544H152.195V185.5H150.871ZM153.814 185.5V177.544H159.099V178.72H155.138V180.831H158.574V182.019H155.138V185.5H153.814ZM160.201 185.5V177.544H161.525V185.5H160.201ZM163.144 185.5V177.544H165.427C166.736 177.544 167.752 177.898 168.475 178.606C169.198 179.306 169.559 180.299 169.559 181.585C169.559 182.848 169.201 183.818 168.486 184.496C167.778 185.165 166.755 185.5 165.416 185.5H163.144ZM164.468 184.29H165.29C165.906 184.29 166.435 184.206 166.877 184.039C167.318 183.864 167.653 183.575 167.881 183.171C168.109 182.768 168.224 182.224 168.224 181.539C168.224 180.854 168.109 180.31 167.881 179.907C167.66 179.496 167.337 179.203 166.911 179.028C166.492 178.845 165.99 178.754 165.404 178.754H164.468V184.29ZM169.816 185.5L172.967 177.544H173.971L177.11 185.5H175.672L173.469 179.473L171.266 185.5H169.816ZM171.78 183.833L172.19 182.658H174.736L175.17 183.833H171.78Z" fill="#336699"/>
<circle cx="310.744" cy="124.744" r="56.7439" fill="#A5B4DB" fill-opacity="0.85"/>
<path d="M273.017 128.5L269.821 120.544H271.282L273.713 126.891H273.314L275.711 120.544H277.172L273.999 128.5H273.017ZM276.453 128.5L279.604 120.544H280.608L283.747 128.5H282.309L280.106 122.473L277.903 128.5H276.453ZM278.417 126.833L278.828 125.658H281.373L281.807 126.833H278.417ZM284.685 128.5V120.544H286.009V127.324H289.445V128.5H284.685ZM290.403 128.5V120.544H292.949C293.832 120.544 294.501 120.734 294.958 121.115C295.414 121.495 295.643 122.066 295.643 122.827C295.643 123.588 295.411 124.17 294.946 124.573C294.49 124.969 293.824 125.167 292.949 125.167H291.716V128.5H290.403ZM291.716 123.991H292.812C293.284 123.991 293.653 123.904 293.919 123.729C294.185 123.554 294.319 123.261 294.319 122.85C294.319 122.446 294.189 122.157 293.93 121.982C293.679 121.807 293.306 121.72 292.812 121.72H291.716V123.991ZM300.215 128.66C299.47 128.66 298.815 128.489 298.252 128.146C297.689 127.804 297.247 127.32 296.928 126.696C296.616 126.072 296.46 125.35 296.46 124.528C296.46 123.698 296.616 122.972 296.928 122.348C297.247 121.724 297.689 121.24 298.252 120.898C298.815 120.555 299.47 120.384 300.215 120.384C300.976 120.384 301.638 120.555 302.201 120.898C302.772 121.24 303.214 121.724 303.526 122.348C303.845 122.964 304.005 123.691 304.005 124.528C304.005 125.357 303.845 126.084 303.526 126.708C303.206 127.324 302.761 127.804 302.19 128.146C301.627 128.489 300.969 128.66 300.215 128.66ZM300.215 127.404C300.725 127.404 301.163 127.286 301.528 127.05C301.893 126.814 302.175 126.483 302.373 126.057C302.578 125.624 302.681 125.114 302.681 124.528C302.681 123.934 302.578 123.424 302.373 122.998C302.175 122.564 301.893 122.23 301.528 121.994C301.163 121.758 300.725 121.64 300.215 121.64C299.721 121.64 299.291 121.758 298.925 121.994C298.56 122.222 298.275 122.553 298.069 122.987C297.871 123.413 297.773 123.927 297.773 124.528C297.773 125.121 297.871 125.635 298.069 126.069C298.267 126.495 298.549 126.826 298.914 127.062C299.287 127.29 299.721 127.404 300.215 127.404ZM305.318 128.5V120.544H307.864C308.495 120.544 309.009 120.639 309.405 120.829C309.8 121.012 310.089 121.275 310.272 121.617C310.462 121.959 310.557 122.363 310.557 122.827C310.557 123.535 310.352 124.086 309.941 124.482C309.538 124.87 308.959 125.095 308.206 125.156C308.054 125.156 307.89 125.156 307.715 125.156C307.54 125.156 307.384 125.156 307.247 125.156H306.642V128.5H305.318ZM309.679 128.5L307.658 125.007L309.016 124.847L311.208 128.5H309.679ZM306.642 123.991H307.727C308.016 123.991 308.271 123.957 308.491 123.888C308.72 123.82 308.899 123.702 309.028 123.535C309.165 123.367 309.233 123.135 309.233 122.838C309.233 122.542 309.165 122.313 309.028 122.153C308.899 121.994 308.72 121.883 308.491 121.822C308.263 121.754 308.008 121.72 307.727 121.72H306.642V123.991ZM312.207 128.5V120.544H313.531V128.5H312.207ZM318.586 128.66C317.84 128.66 317.186 128.489 316.622 128.146C316.059 127.804 315.618 127.32 315.298 126.696C314.986 126.072 314.83 125.346 314.83 124.516C314.83 123.687 314.986 122.964 315.298 122.348C315.618 121.724 316.059 121.24 316.622 120.898C317.186 120.555 317.84 120.384 318.586 120.384C319.415 120.384 320.13 120.59 320.732 121.001C321.34 121.412 321.778 121.982 322.044 122.713L320.812 123.158C320.629 122.679 320.347 122.306 319.967 122.039C319.586 121.773 319.126 121.64 318.586 121.64C318.091 121.64 317.661 121.758 317.296 121.994C316.931 122.23 316.645 122.561 316.44 122.987C316.242 123.413 316.143 123.923 316.143 124.516C316.143 125.11 316.242 125.624 316.44 126.057C316.645 126.483 316.931 126.814 317.296 127.05C317.661 127.286 318.091 127.404 318.586 127.404C319.126 127.404 319.586 127.271 319.967 127.005C320.347 126.731 320.629 126.358 320.812 125.886L322.044 126.331C321.778 127.047 321.34 127.613 320.732 128.032C320.13 128.451 319.415 128.66 318.586 128.66ZM325.512 128.5L328.662 120.544H329.667L332.806 128.5H331.368L329.164 122.473L326.961 128.5H325.512ZM327.475 126.833L327.886 125.658H330.432L330.865 126.833H327.475ZM336.811 128.66C336.065 128.66 335.411 128.489 334.848 128.146C334.285 127.804 333.843 127.32 333.524 126.696C333.212 126.072 333.056 125.346 333.056 124.516C333.056 123.687 333.212 122.964 333.524 122.348C333.843 121.724 334.285 121.24 334.848 120.898C335.411 120.555 336.065 120.384 336.811 120.384C337.641 120.384 338.356 120.59 338.957 121.001C339.566 121.412 340.004 121.982 340.27 122.713L339.037 123.158C338.854 122.679 338.573 122.306 338.192 122.039C337.812 121.773 337.352 121.64 336.811 121.64C336.317 121.64 335.887 121.758 335.521 121.994C335.156 122.23 334.871 122.561 334.665 122.987C334.467 123.413 334.368 123.923 334.368 124.516C334.368 125.11 334.467 125.624 334.665 126.057C334.871 126.483 335.156 126.814 335.521 127.05C335.887 127.286 336.317 127.404 336.811 127.404C337.352 127.404 337.812 127.271 338.192 127.005C338.573 126.731 338.854 126.358 339.037 125.886L340.27 126.331C340.004 127.047 339.566 127.613 338.957 128.032C338.356 128.451 337.641 128.66 336.811 128.66ZM341.457 128.5V120.544H342.781V128.5H341.457ZM344.4 128.5V120.544H346.683C347.992 120.544 349.008 120.898 349.731 121.606C350.453 122.306 350.815 123.299 350.815 124.585C350.815 125.848 350.457 126.818 349.742 127.496C349.034 128.165 348.011 128.5 346.671 128.5H344.4ZM345.724 127.29H346.546C347.162 127.29 347.691 127.206 348.132 127.039C348.574 126.864 348.909 126.575 349.137 126.171C349.365 125.768 349.479 125.224 349.479 124.539C349.479 123.854 349.365 123.31 349.137 122.907C348.916 122.496 348.593 122.203 348.167 122.028C347.748 121.845 347.246 121.754 346.66 121.754H345.724V127.29Z" fill="#336699"/>
<circle cx="116.315" cy="267.315" r="16.3152" fill="#EEEEEE"/>
<path d="M106.358 269.598V266.537H105.214V266.007H108.099V266.537H106.961V269.598H106.358ZM108.532 269.598V266.007H110.917V266.537H109.13V267.491H110.778V268.026H109.13V269.067H110.917V269.598H108.532ZM112.36 269.598V266.537H111.217V266.007H114.102V266.537H112.963V269.598H112.36ZM114.534 269.598V266.007H115.132V269.598H114.534ZM115.863 269.598V266.007H116.481L118.212 268.82H118.063V266.007H118.66V269.598H118.032L116.316 266.78H116.46V269.598H115.863ZM120.941 269.67C120.604 269.67 120.309 269.593 120.054 269.438C119.8 269.283 119.601 269.065 119.457 268.784C119.316 268.502 119.246 268.176 119.246 267.805C119.246 267.43 119.316 267.102 119.457 266.821C119.601 266.539 119.8 266.321 120.054 266.166C120.309 266.012 120.604 265.935 120.941 265.935C121.284 265.935 121.583 266.012 121.837 266.166C122.095 266.321 122.294 266.539 122.435 266.821C122.579 267.099 122.651 267.427 122.651 267.805C122.651 268.179 122.579 268.507 122.435 268.789C122.29 269.067 122.09 269.283 121.832 269.438C121.578 269.593 121.281 269.67 120.941 269.67ZM120.941 269.103C121.171 269.103 121.368 269.05 121.533 268.943C121.698 268.837 121.825 268.688 121.914 268.495C122.007 268.299 122.053 268.069 122.053 267.805C122.053 267.537 122.007 267.307 121.914 267.114C121.825 266.919 121.698 266.768 121.533 266.661C121.368 266.555 121.171 266.501 120.941 266.501C120.717 266.501 120.523 266.555 120.358 266.661C120.194 266.764 120.065 266.913 119.972 267.109C119.883 267.302 119.838 267.533 119.838 267.805C119.838 268.073 119.883 268.305 119.972 268.5C120.061 268.693 120.188 268.842 120.353 268.949C120.522 269.052 120.717 269.103 120.941 269.103ZM123.244 269.598V266.007H123.841V269.598H123.244ZM124.572 269.598V266.007H125.19L126.922 268.82H126.772V266.007H127.37V269.598H126.741L125.026 266.78H125.17V269.598H124.572Z" fill="#336699"/>
<circle cx="69.4676" cy="282.967" r="16.3152" fill="#EEEEEE"/>
<path d="M58.5486 284.25V281.856H59.1325L59.8023 283.645H59.7301L60.4033 281.856H60.9838V284.25H60.5854V282.32L60.6197 282.327L59.9603 284.04H59.5721L58.9092 282.327L58.947 282.32V284.25H58.5486ZM61.4701 284.25V281.856H63.0604V282.21H61.8686V282.845H62.9677V283.202H61.8686V283.896H63.0604V284.25H61.4701ZM64.0224 284.25V282.21H63.2599V281.856H65.1834V282.21H64.4243V284.25H64.0224ZM65.4718 284.25V281.856H66.2377C66.4278 281.856 66.5824 281.885 66.7014 281.942C66.8205 281.997 66.9075 282.076 66.9625 282.179C67.0197 282.282 67.0484 282.403 67.0484 282.543C67.0484 282.756 66.9865 282.922 66.8629 283.041C66.7415 283.158 66.5675 283.225 66.3408 283.244C66.295 283.244 66.2458 283.244 66.1931 283.244C66.1404 283.244 66.0935 283.244 66.0523 283.244H65.8702V284.25H65.4718ZM66.7839 284.25L66.1759 283.199L66.5847 283.151L67.2441 284.25H66.7839ZM65.8702 282.893H66.1965C66.2835 282.893 66.3603 282.883 66.4267 282.862C66.4954 282.842 66.5492 282.806 66.5881 282.756C66.6293 282.705 66.6499 282.636 66.6499 282.546C66.6499 282.457 66.6293 282.388 66.5881 282.34C66.5492 282.292 66.4954 282.259 66.4267 282.241C66.358 282.22 66.2813 282.21 66.1965 282.21H65.8702V282.893ZM67.5447 284.25V281.856H67.9432V284.25H67.5447ZM68.286 284.25V283.92L69.6908 282.086L69.7492 282.21H68.3684V281.856H70.0927V282.186L68.7188 283.972L68.6673 283.896H70.1339V284.25H68.286ZM70.277 284.25L71.225 281.856H71.5273L72.4718 284.25H72.039L71.3761 282.436L70.7132 284.25H70.277ZM70.8678 283.749L70.9914 283.395H71.7574L71.8879 283.749H70.8678ZM72.7539 284.25V281.856H73.3378L74.0076 283.645H73.9355L74.6087 281.856H75.1892V284.25H74.7908V282.32L74.8251 282.327L74.1656 284.04H73.7775L73.1146 282.327L73.1524 282.32V284.25H72.7539ZM75.6755 284.25V281.856H76.0739V284.25H75.6755ZM76.561 284.25V281.856H77.248C77.6419 281.856 77.9475 281.962 78.1651 282.175C78.3826 282.386 78.4914 282.685 78.4914 283.072C78.4914 283.452 78.3838 283.744 78.1685 283.948C77.9556 284.149 77.6476 284.25 77.2446 284.25H76.561ZM76.9595 283.886H77.2068C77.3923 283.886 77.5514 283.861 77.6842 283.81C77.817 283.758 77.9178 283.671 77.9865 283.549C78.0552 283.428 78.0895 283.264 78.0895 283.058C78.0895 282.852 78.0552 282.688 77.9865 282.567C77.9201 282.443 77.8227 282.355 77.6945 282.302C77.5686 282.248 77.4174 282.22 77.2411 282.22H76.9595V283.886ZM78.8822 284.25V281.856H80.4725V282.21H79.2806V282.845H80.3798V283.202H79.2806V283.896H80.4725V284.25H78.8822Z" fill="#336699"/>
<circle cx="64.3152" cy="238.315" r="16.3152" fill="#EEEEEE"/>
<path d="M55.0274 239.643C54.7756 239.643 54.5695 239.577 54.4092 239.447C54.2512 239.316 54.1539 239.142 54.1172 238.925L54.5054 238.829C54.5305 238.98 54.5901 239.094 54.684 239.172C54.7801 239.25 54.8981 239.289 55.0377 239.289C55.1156 239.289 55.1854 239.275 55.2473 239.248C55.3091 239.218 55.3572 239.177 55.3915 239.124C55.4282 239.071 55.4465 239.012 55.4465 238.945C55.4465 238.874 55.427 238.816 55.3881 238.77C55.3492 238.722 55.2931 238.68 55.2198 238.643C55.1465 238.604 55.0572 238.564 54.9519 238.523C54.8076 238.468 54.6851 238.408 54.5844 238.344C54.4836 238.28 54.4069 238.205 54.3542 238.118C54.3016 238.028 54.2752 237.923 54.2752 237.802C54.2752 237.676 54.3061 237.565 54.368 237.468C54.4298 237.37 54.5168 237.293 54.629 237.238C54.7412 237.183 54.8706 237.156 55.0171 237.156C55.1751 237.156 55.3148 237.191 55.4362 237.262C55.5575 237.333 55.6549 237.441 55.7281 237.585L55.4121 237.777C55.364 237.69 55.3057 237.624 55.237 237.578C55.1683 237.53 55.0904 237.506 55.0034 237.506C54.9416 237.506 54.8855 237.519 54.8351 237.544C54.7847 237.567 54.7446 237.6 54.7149 237.644C54.6874 237.687 54.6737 237.737 54.6737 237.795C54.6737 237.854 54.6908 237.907 54.7252 237.953C54.7595 237.996 54.8122 238.036 54.8832 238.073C54.9565 238.109 55.0492 238.15 55.1614 238.193C55.3057 238.248 55.4282 238.308 55.5289 238.372C55.6297 238.436 55.7064 238.513 55.759 238.602C55.814 238.689 55.8415 238.795 55.8415 238.921C55.8415 239.061 55.8071 239.185 55.7384 239.292C55.6697 239.4 55.5736 239.486 55.4499 239.55C55.3286 239.612 55.1877 239.643 55.0274 239.643ZM56.0141 239.598L56.9621 237.204H57.2644L58.209 239.598H57.7762L57.1133 237.784L56.4504 239.598H56.0141ZM56.6049 239.096L56.7286 238.743H57.4945L57.625 239.096H56.6049ZM58.3022 239.598L59.1059 238.403L58.309 237.204H58.783L59.3841 238.124L59.9818 237.204H60.4558L59.6555 238.403L60.4626 239.598H59.9886L59.3807 238.688L58.7762 239.598H58.3022ZM60.5525 239.598L61.5005 237.204H61.8027L62.7473 239.598H62.3145L61.6516 237.784L60.9887 239.598H60.5525ZM61.1433 239.096L61.2669 238.743H62.0329L62.1634 239.096H61.1433ZM63.9285 239.646C63.7133 239.646 63.5221 239.594 63.3549 239.491C63.1878 239.388 63.0573 239.243 62.9634 239.055C62.8695 238.867 62.8225 238.649 62.8225 238.399C62.8225 238.15 62.8695 237.932 62.9634 237.747C63.0595 237.559 63.1924 237.413 63.3618 237.31C63.5313 237.207 63.7282 237.156 63.9526 237.156C64.2022 237.156 64.4174 237.218 64.5983 237.341C64.7815 237.465 64.9132 237.637 64.9933 237.856L64.6224 237.99C64.5674 237.846 64.4827 237.734 64.3682 237.654C64.2537 237.574 64.1152 237.534 63.9526 237.534C63.8037 237.534 63.6744 237.569 63.5645 237.64C63.4545 237.711 63.3687 237.811 63.3068 237.939C63.2473 238.067 63.2175 238.221 63.2175 238.399C63.2175 238.578 63.2473 238.732 63.3068 238.863C63.3687 238.991 63.4545 239.091 63.5645 239.162C63.6744 239.233 63.8037 239.268 63.9526 239.268C64.0304 239.268 64.1094 239.258 64.1896 239.237C64.2697 239.214 64.3442 239.177 64.4128 239.124C64.4815 239.071 64.5365 238.998 64.5777 238.904C64.6212 238.808 64.643 238.688 64.643 238.543V238.392L64.7323 238.667H64.0488V238.313H64.9933V239.598H64.643L64.588 239.182L64.6567 239.237C64.6132 239.329 64.5548 239.406 64.4815 239.467C64.4106 239.527 64.327 239.572 64.2308 239.601C64.1369 239.631 64.0362 239.646 63.9285 239.646ZM65.4411 239.598V237.204H65.8396V239.244H66.8734V239.598H65.4411ZM67.1619 239.598V237.204H67.5603V239.598H67.1619ZM68.0474 239.598V237.204H68.8134C69.079 237.204 69.2805 237.261 69.4179 237.376C69.5553 237.49 69.624 237.662 69.624 237.891C69.624 238.12 69.5541 238.295 69.4145 238.416C69.2771 238.535 69.0767 238.595 68.8134 238.595H68.4424V239.598H68.0474ZM68.4424 238.241H68.7721C68.9141 238.241 69.0252 238.215 69.1053 238.162C69.1855 238.109 69.2255 238.021 69.2255 237.898C69.2255 237.776 69.1866 237.689 69.1088 237.637C69.0332 237.584 68.921 237.558 68.7721 237.558H68.4424V238.241ZM70.5259 239.598V237.558H69.7634V237.204H71.6869V237.558H70.9278V239.598H70.5259ZM71.9753 239.598V237.204H72.3737V239.598H71.9753ZM72.8608 239.598V237.204H73.273L74.4271 239.079H74.3275V237.204H74.7259V239.598H74.3068L73.1631 237.719H73.2592V239.598H72.8608Z" fill="#336699"/>
<circle cx="50.8681" cy="178.385" r="15.8681" fill="#EEEEEE"/>
<path d="M41.9183 179.714V177.386H43.4651V177.73H42.3059V178.348H43.3749V178.695H42.3059V179.37H43.4651V179.714H41.9183ZM44.4007 179.714V177.73H43.6591V177.386H45.5299V177.73H44.7916V179.714H44.4007ZM45.8103 179.714V177.386H46.5553C46.7402 177.386 46.8905 177.414 47.0063 177.469C47.1221 177.523 47.2067 177.6 47.2602 177.7C47.3159 177.8 47.3437 177.918 47.3437 178.054C47.3437 178.261 47.2836 178.423 47.1633 178.538C47.0453 178.652 46.876 178.718 46.6555 178.736C46.611 178.736 46.5631 178.736 46.5119 178.736C46.4607 178.736 46.415 178.736 46.3749 178.736H46.1979V179.714H45.8103ZM47.0865 179.714L46.4952 178.692L46.8927 178.645L47.5341 179.714H47.0865ZM46.1979 178.395H46.5152C46.5998 178.395 46.6745 178.385 46.739 178.365C46.8059 178.345 46.8582 178.31 46.8961 178.261C46.9361 178.212 46.9562 178.144 46.9562 178.057C46.9562 177.971 46.9361 177.904 46.8961 177.857C46.8582 177.81 46.8059 177.778 46.739 177.76C46.6722 177.74 46.5976 177.73 46.5152 177.73H46.1979V178.395ZM47.8265 179.714V177.386H49.3732V177.73H48.214V178.348H49.283V178.695H48.214V179.37H49.3732V179.714H47.8265ZM50.3088 179.714V177.73H49.5672V177.386H51.438V177.73H50.6997V179.714H50.3088ZM51.7185 179.714V177.386H52.106V179.714H51.7185ZM52.5797 179.714V177.386H52.9806L54.1031 179.21H54.0062V177.386H54.3937V179.714H53.9862L52.8737 177.887H52.9673V179.714H52.5797ZM54.6662 179.714L55.5882 177.386H55.8822L56.8009 179.714H56.38L55.7352 177.95L55.0905 179.714H54.6662ZM55.2408 179.227L55.3611 178.883H56.106L56.233 179.227H55.2408ZM57.3066 179.714V177.73H56.565V177.386H58.4358V177.73H57.6975V179.714H57.3066ZM58.7162 179.714V177.386H60.263V177.73H59.1038V178.348H60.1728V178.695H59.1038V179.37H60.263V179.714H58.7162Z" fill="#336699"/>
<circle cx="76.8681" cy="126.868" r="15.8681" fill="#EEEEEE"/>
<path d="M67.0834 128.198V125.869H67.7515C68.1346 125.869 68.4319 125.973 68.6435 126.18C68.855 126.385 68.9608 126.676 68.9608 127.052C68.9608 127.422 68.8562 127.706 68.6468 127.904C68.4397 128.1 68.1401 128.198 67.7482 128.198H67.0834ZM67.4709 127.844H67.7114C67.8918 127.844 68.0466 127.819 68.1758 127.77C68.3049 127.719 68.4029 127.634 68.4698 127.516C68.5366 127.398 68.57 127.239 68.57 127.039C68.57 126.838 68.5366 126.679 68.4698 126.561C68.4052 126.441 68.3105 126.355 68.1858 126.304C68.0633 126.25 67.9163 126.224 67.7448 126.224H67.4709V127.844ZM70.3465 128.245C70.1282 128.245 69.9367 128.195 69.7719 128.094C69.6071 127.994 69.4779 127.853 69.3844 127.67C69.2931 127.487 69.2474 127.276 69.2474 127.035C69.2474 126.793 69.2931 126.58 69.3844 126.397C69.4779 126.215 69.6071 126.073 69.7719 125.973C69.9367 125.873 70.1282 125.823 70.3465 125.823C70.5692 125.823 70.7629 125.873 70.9277 125.973C71.0948 126.073 71.224 126.215 71.3153 126.397C71.4088 126.578 71.4556 126.79 71.4556 127.035C71.4556 127.278 71.4088 127.491 71.3153 127.673C71.2217 127.854 71.0914 127.994 70.9244 128.094C70.7596 128.195 70.567 128.245 70.3465 128.245ZM70.3465 127.877C70.4957 127.877 70.6237 127.843 70.7306 127.774C70.8375 127.705 70.92 127.608 70.9779 127.483C71.038 127.356 71.0681 127.207 71.0681 127.035C71.0681 126.862 71.038 126.712 70.9779 126.588C70.92 126.461 70.8375 126.363 70.7306 126.294C70.6237 126.225 70.4957 126.19 70.3465 126.19C70.2017 126.19 70.0759 126.225 69.969 126.294C69.8621 126.361 69.7786 126.457 69.7184 126.584C69.6605 126.709 69.6316 126.859 69.6316 127.035C69.6316 127.209 69.6605 127.359 69.7184 127.486C69.7763 127.611 69.8587 127.708 69.9656 127.777C70.0748 127.844 70.2017 127.877 70.3465 127.877ZM71.4963 128.198L72.278 127.035L71.503 125.869H71.964L72.5486 126.765L73.1299 125.869H73.5909L72.8125 127.035L73.5976 128.198H73.1366L72.5453 127.313L71.9573 128.198H71.4963ZM74.4901 128.198V127.293L73.6683 125.869H74.1092L74.6738 126.905L75.2484 125.869H75.686L74.8776 127.293V128.198H74.4901ZM75.9472 128.198V125.869H76.3347V127.854H77.3403V128.198H75.9472ZM77.4204 128.198L78.3424 125.869H78.6364L79.5551 128.198H79.1341L78.4894 126.434L77.8446 128.198H77.4204ZM77.995 127.71L78.1152 127.366H78.8602L78.9871 127.71H77.995ZM79.8294 128.198V125.869H80.3973L81.0488 127.61H80.9786L81.6334 125.869H82.198V128.198H81.8104V126.32L81.8438 126.327L81.2024 127.994H80.8249L80.1802 126.327L80.2169 126.32V128.198H79.8294ZM82.6709 128.198V125.869H83.0585V128.198H82.6709ZM83.5322 128.198V125.869H83.9331L85.0556 127.693H84.9587V125.869H85.3462V128.198H84.9386L83.8262 126.371H83.9197V128.198H83.5322ZM85.8191 128.198V125.869H87.3659V126.214H86.2066V126.832H87.2757V127.179H86.2066V127.854H87.3659V128.198H85.8191Z" fill="#336699"/>
<circle cx="124.868" cy="104.868" r="15.8681" fill="#7187C3"/>
<path d="M118.543 107.198V103.705H119.144L120.828 106.441H120.682V103.705H121.264V107.198H120.652L118.984 104.457H119.124V107.198H118.543ZM121.973 107.198V103.705H122.574L124.258 106.441H124.113V103.705H124.694V107.198H124.083L122.414 104.457H122.554V107.198H121.973ZM125.404 107.198V103.705H126.255L127.233 106.316H127.127L128.109 103.705H128.956V107.198H128.375V104.382L128.425 104.392L127.463 106.892H126.897L125.93 104.392L125.985 104.382V107.198H125.404ZM130.483 107.198V104.221H129.37V103.705H132.176V104.221H131.069V107.198H130.483Z" fill="#FAFAFA"/>
<circle cx="162.031" cy="271.031" r="16.0312" fill="#7187C3"/>
<path d="M154.633 273.415C154.303 273.415 154.012 273.339 153.763 273.187C153.513 273.035 153.317 272.821 153.175 272.544C153.037 272.267 152.968 271.945 152.968 271.577C152.968 271.209 153.037 270.888 153.175 270.615C153.317 270.338 153.513 270.124 153.763 269.972C154.012 269.82 154.303 269.744 154.633 269.744C155.001 269.744 155.318 269.835 155.585 270.018C155.855 270.2 156.049 270.453 156.167 270.777L155.62 270.974C155.539 270.762 155.415 270.596 155.246 270.478C155.077 270.36 154.873 270.301 154.633 270.301C154.414 270.301 154.223 270.353 154.061 270.458C153.899 270.563 153.773 270.71 153.682 270.899C153.594 271.088 153.55 271.314 153.55 271.577C153.55 271.84 153.594 272.068 153.682 272.26C153.773 272.449 153.899 272.596 154.061 272.701C154.223 272.805 154.414 272.858 154.633 272.858C154.873 272.858 155.077 272.799 155.246 272.681C155.415 272.559 155.539 272.394 155.62 272.184L156.167 272.382C156.049 272.699 155.855 272.951 155.585 273.136C155.318 273.322 155.001 273.415 154.633 273.415ZM156.316 273.344L157.501 271.582L156.327 269.815H157.025L157.911 271.172L158.792 269.815H159.491L158.311 271.582L159.501 273.344H158.802L157.906 272.002L157.015 273.344H156.316ZM161.223 273.415C160.893 273.415 160.602 273.339 160.353 273.187C160.103 273.035 159.907 272.821 159.765 272.544C159.627 272.267 159.558 271.945 159.558 271.577C159.558 271.209 159.627 270.888 159.765 270.615C159.907 270.338 160.103 270.124 160.353 269.972C160.602 269.82 160.893 269.744 161.223 269.744C161.591 269.744 161.909 269.835 162.175 270.018C162.445 270.2 162.639 270.453 162.757 270.777L162.211 270.974C162.13 270.762 162.005 270.596 161.836 270.478C161.667 270.36 161.463 270.301 161.223 270.301C161.004 270.301 160.813 270.353 160.651 270.458C160.489 270.563 160.363 270.71 160.272 270.899C160.184 271.088 160.14 271.314 160.14 271.577C160.14 271.84 160.184 272.068 160.272 272.26C160.363 272.449 160.489 272.596 160.651 272.701C160.813 272.805 161.004 272.858 161.223 272.858C161.463 272.858 161.667 272.799 161.836 272.681C162.005 272.559 162.13 272.394 162.211 272.184L162.757 272.382C162.639 272.699 162.445 272.951 162.175 273.136C161.909 273.322 161.591 273.415 161.223 273.415ZM163.284 273.344V269.815H163.871V272.822H165.395V273.344H163.284ZM166.868 273.344V270.534L167.035 270.818H165.957V270.367H166.524C166.639 270.367 166.725 270.343 166.782 270.296C166.839 270.249 166.868 270.164 166.868 270.043V269.815H167.43V273.344H166.868ZM169.949 273.344V272.508H168.349V272.073L170.01 269.815H170.511V271.987H171.073V272.508H170.511V273.344H169.949ZM168.795 272.184L168.774 271.987H169.949V270.387L170.02 270.458L168.795 272.184Z" fill="#FAFAFA"/>
<circle cx="224.969" cy="270.156" r="16.0312" fill="#EEEEEE"/>
<path d="M213.882 271.528C213.606 271.528 213.364 271.465 213.156 271.338C212.948 271.211 212.785 271.033 212.667 270.802C212.552 270.572 212.494 270.303 212.494 269.996C212.494 269.69 212.552 269.423 212.667 269.195C212.785 268.964 212.948 268.786 213.156 268.659C213.364 268.532 213.606 268.469 213.882 268.469C214.188 268.469 214.453 268.545 214.675 268.697C214.9 268.849 215.062 269.06 215.16 269.33L214.705 269.494C214.637 269.317 214.533 269.179 214.392 269.081C214.252 268.982 214.082 268.933 213.882 268.933C213.699 268.933 213.54 268.977 213.405 269.064C213.27 269.151 213.165 269.274 213.089 269.431C213.016 269.589 212.979 269.777 212.979 269.996C212.979 270.216 213.016 270.406 213.089 270.566C213.165 270.723 213.27 270.846 213.405 270.933C213.54 271.02 213.699 271.064 213.882 271.064C214.082 271.064 214.252 271.015 214.392 270.916C214.533 270.815 214.637 270.677 214.705 270.503L215.16 270.667C215.062 270.932 214.9 271.141 214.675 271.296C214.453 271.45 214.188 271.528 213.882 271.528ZM215.3 271.469L216.465 268.528H216.836L217.996 271.469H217.465L216.65 269.241L215.836 271.469H215.3ZM216.026 270.853L216.178 270.418H217.119L217.279 270.853H216.026ZM218.343 271.469V268.528H219.284C219.517 268.528 219.707 268.563 219.853 268.634C219.999 268.701 220.106 268.798 220.174 268.925C220.244 269.051 220.279 269.2 220.279 269.372C220.279 269.634 220.203 269.837 220.051 269.984C219.902 270.127 219.689 270.21 219.41 270.233C219.354 270.233 219.293 270.233 219.229 270.233C219.164 270.233 219.106 270.233 219.056 270.233H218.832V271.469H218.343ZM219.954 271.469L219.208 270.178L219.71 270.119L220.52 271.469H219.954ZM218.832 269.802H219.233C219.34 269.802 219.434 269.79 219.516 269.764C219.6 269.739 219.666 269.695 219.714 269.634C219.764 269.572 219.79 269.486 219.79 269.376C219.79 269.267 219.764 269.182 219.714 269.123C219.666 269.064 219.6 269.023 219.516 269.001C219.431 268.975 219.337 268.963 219.233 268.963H218.832V269.802ZM221.693 271.469L220.512 268.528H221.052L221.951 270.874H221.803L222.689 268.528H223.229L222.056 271.469H221.693ZM223.575 271.469V268.528H225.528V268.963H224.064V269.743H225.414V270.182H224.064V271.034H225.528V271.469H223.575ZM226.022 271.469V268.528H226.866C227.35 268.528 227.725 268.659 227.992 268.921C228.26 269.179 228.393 269.546 228.393 270.022C228.393 270.489 228.261 270.847 227.997 271.097C227.735 271.345 227.357 271.469 226.862 271.469H226.022ZM226.512 271.022H226.815C227.043 271.022 227.239 270.991 227.402 270.929C227.565 270.864 227.689 270.757 227.773 270.608C227.857 270.459 227.9 270.258 227.9 270.005C227.9 269.752 227.857 269.551 227.773 269.402C227.691 269.25 227.572 269.141 227.414 269.077C227.26 269.009 227.074 268.975 226.858 268.975H226.512V271.022ZM228.873 271.469V268.528H229.363V271.469H228.873ZM229.961 271.469V268.528H230.45V271.034H231.72V271.469H229.961ZM233.212 271.528C232.937 271.528 232.695 271.465 232.487 271.338C232.279 271.211 232.115 271.033 231.997 270.802C231.882 270.572 231.824 270.304 231.824 270.001C231.824 269.694 231.882 269.425 231.997 269.195C232.115 268.964 232.279 268.786 232.487 268.659C232.695 268.532 232.937 268.469 233.212 268.469C233.494 268.469 233.738 268.532 233.946 268.659C234.157 268.786 234.32 268.964 234.436 269.195C234.554 269.423 234.613 269.691 234.613 270.001C234.613 270.307 234.554 270.576 234.436 270.806C234.318 271.034 234.153 271.211 233.942 271.338C233.734 271.465 233.491 271.528 233.212 271.528ZM233.212 271.064C233.401 271.064 233.562 271.02 233.697 270.933C233.832 270.846 233.937 270.723 234.01 270.566C234.086 270.406 234.124 270.217 234.124 270.001C234.124 269.781 234.086 269.593 234.01 269.435C233.937 269.275 233.832 269.151 233.697 269.064C233.562 268.977 233.401 268.933 233.212 268.933C233.03 268.933 232.871 268.977 232.736 269.064C232.601 269.148 232.495 269.271 232.419 269.431C232.346 269.589 232.31 269.778 232.31 270.001C232.31 270.22 232.346 270.41 232.419 270.57C232.492 270.728 232.596 270.85 232.731 270.937C232.869 271.022 233.03 271.064 233.212 271.064ZM235.098 271.469V268.528H235.588V271.034H236.858V271.469H235.098Z" fill="#336699"/>
<circle cx="200.5" cy="301.375" r="16.0312" fill="#EEEEEE"/>
<path d="M190.571 303.758C190.24 303.758 189.95 303.682 189.7 303.531C189.45 303.379 189.255 303.164 189.113 302.888C188.974 302.611 188.905 302.289 188.905 301.921C188.905 301.553 188.974 301.232 189.113 300.959C189.255 300.682 189.45 300.468 189.7 300.316C189.95 300.164 190.24 300.088 190.571 300.088C190.939 300.088 191.256 300.179 191.523 300.361C191.793 300.544 191.987 300.797 192.105 301.121L191.558 301.318C191.477 301.106 191.352 300.94 191.183 300.822C191.015 300.704 190.81 300.645 190.571 300.645C190.351 300.645 190.161 300.697 189.999 300.802C189.837 300.906 189.71 301.053 189.619 301.242C189.531 301.431 189.487 301.657 189.487 301.921C189.487 302.184 189.531 302.412 189.619 302.604C189.71 302.793 189.837 302.94 189.999 303.045C190.161 303.149 190.351 303.201 190.571 303.201C190.81 303.201 191.015 303.142 191.183 303.024C191.352 302.903 191.477 302.737 191.558 302.528L192.105 302.726C191.987 303.043 191.793 303.294 191.523 303.48C191.256 303.666 190.939 303.758 190.571 303.758ZM192.273 303.688L193.67 300.159H194.116L195.508 303.688H194.87L193.893 301.015L192.916 303.688H192.273ZM193.144 302.948L193.326 302.427H194.455L194.647 302.948H193.144ZM195.924 303.688V300.159H198.268V300.68H196.511V301.617H198.035V302.143H196.511V303.688H195.924ZM198.757 303.688V300.159H201.101V300.68H199.344V301.617H200.868V302.143H199.344V303.688H198.757ZM201.589 303.688V300.159H203.933V300.68H202.177V301.617H203.797V302.143H202.177V303.166H203.933V303.688H201.589ZM204.526 303.688V300.159H205.113V303.688H204.526ZM205.831 303.688V300.159H206.439L208.14 302.923H207.993V300.159H208.58V303.688H207.963L206.277 300.918H206.419V303.688H205.831ZM209.297 303.688V300.159H211.641V300.68H209.884V301.617H211.504V302.143H209.884V303.166H211.641V303.688H209.297Z" fill="#336699"/>
<circle cx="268.13" cy="218.13" r="15.1296" fill="#EEEEEE"/>
<path d="M256.574 219.582C256.365 219.582 256.183 219.534 256.026 219.438C255.869 219.343 255.745 219.208 255.656 219.034C255.569 218.86 255.526 218.657 255.526 218.425C255.526 218.194 255.569 217.992 255.656 217.82C255.745 217.646 255.869 217.511 256.026 217.416C256.183 217.32 256.365 217.272 256.574 217.272C256.805 217.272 257.005 217.33 257.172 217.444C257.342 217.559 257.464 217.718 257.539 217.922L257.195 218.046C257.144 217.913 257.065 217.809 256.959 217.734C256.853 217.66 256.724 217.623 256.574 217.623C256.436 217.623 256.316 217.656 256.214 217.722C256.112 217.787 256.032 217.88 255.975 217.999C255.92 218.118 255.892 218.26 255.892 218.425C255.892 218.591 255.92 218.734 255.975 218.855C256.032 218.974 256.112 219.067 256.214 219.133C256.316 219.198 256.436 219.231 256.574 219.231C256.724 219.231 256.853 219.194 256.959 219.12C257.065 219.043 257.144 218.939 257.195 218.808L257.539 218.932C257.464 219.132 257.342 219.29 257.172 219.407C257.005 219.523 256.805 219.582 256.574 219.582ZM257.645 219.537L258.524 217.317H258.804L259.68 219.537H259.279L258.664 217.855L258.049 219.537H257.645ZM258.192 219.072L258.307 218.744H259.017L259.138 219.072H258.192ZM259.942 219.537V217.317H260.652C260.828 217.317 260.971 217.344 261.082 217.397C261.192 217.448 261.273 217.521 261.324 217.616C261.377 217.712 261.404 217.825 261.404 217.954C261.404 218.152 261.346 218.306 261.232 218.416C261.119 218.524 260.958 218.587 260.747 218.604C260.705 218.604 260.659 218.604 260.61 218.604C260.562 218.604 260.518 218.604 260.48 218.604H260.311V219.537H259.942ZM261.158 219.537L260.595 218.562L260.974 218.518L261.585 219.537H261.158ZM260.311 218.279H260.614C260.694 218.279 260.765 218.269 260.827 218.25C260.891 218.231 260.941 218.198 260.977 218.152C261.015 218.105 261.034 218.04 261.034 217.957C261.034 217.874 261.015 217.811 260.977 217.766C260.941 217.722 260.891 217.691 260.827 217.674C260.763 217.655 260.692 217.645 260.614 217.645H260.311V218.279ZM261.864 219.537V217.317H262.622C262.839 217.317 263.008 217.367 263.132 217.467C263.257 217.564 263.32 217.7 263.32 217.874C263.32 217.981 263.297 218.074 263.253 218.155C263.208 218.233 263.145 218.296 263.065 218.343C263.188 218.383 263.28 218.45 263.342 218.543C263.403 218.637 263.434 218.754 263.434 218.894C263.434 219.095 263.37 219.254 263.243 219.368C263.118 219.481 262.942 219.537 262.714 219.537H261.864ZM262.233 219.199H262.686C262.94 219.199 263.068 219.092 263.068 218.878C263.068 218.776 263.037 218.697 262.976 218.642C262.916 218.585 262.832 218.556 262.724 218.556H262.233V219.199ZM262.233 218.225H262.647C262.741 218.225 262.815 218.199 262.87 218.148C262.926 218.095 262.953 218.023 262.953 217.932C262.953 217.845 262.923 217.777 262.864 217.728C262.807 217.679 262.726 217.655 262.622 217.655H262.233V218.225ZM263.611 219.537L264.49 217.317H264.77L265.646 219.537H265.245L264.63 217.855L264.015 219.537H263.611ZM264.158 219.072L264.273 218.744H264.983L265.104 219.072H264.158ZM265.908 219.537V217.317H266.449L267.07 218.977H267.003L267.628 217.317H268.166V219.537H267.796V217.747L267.828 217.753L267.217 219.343H266.857L266.242 217.753L266.277 217.747V219.537H265.908ZM268.426 219.537L269.305 217.317H269.585L270.461 219.537H270.06L269.445 217.855L268.83 219.537H268.426ZM268.974 219.072L269.088 218.744H269.799L269.92 219.072H268.974ZM270.589 219.537V219.231L271.892 217.53L271.946 217.645H270.665V217.317H272.264V217.623L270.99 219.279L270.942 219.209H272.303V219.537H270.589ZM272.626 219.537V217.317H274.101V217.645H272.996V218.234H274.015V218.566H272.996V219.209H274.101V219.537H272.626ZM274.474 219.537V217.317H275.184C275.431 217.317 275.617 217.37 275.745 217.476C275.872 217.582 275.936 217.742 275.936 217.954C275.936 218.166 275.871 218.329 275.742 218.441C275.614 218.552 275.428 218.607 275.184 218.607H274.84V219.537H274.474ZM274.84 218.279H275.146C275.278 218.279 275.381 218.255 275.455 218.206C275.529 218.157 275.566 218.075 275.566 217.96C275.566 217.848 275.53 217.767 275.458 217.718C275.388 217.67 275.284 217.645 275.146 217.645H274.84V218.279ZM276.253 219.537V217.317H276.623V219.537H276.253ZM277.074 219.537V217.317H277.457L278.527 219.056H278.434V217.317H278.804V219.537H278.415L277.355 217.795H277.444V219.537H277.074ZM279.255 219.537V217.317H280.73V217.645H279.624V218.234H280.644V218.566H279.624V219.209H280.73V219.537H279.255Z" fill="#336699"/>
<circle cx="224.13" cy="167.13" r="15.1296" fill="#7187C3"/>
<path d="M218.098 169.537V166.207H219.054C219.602 166.207 220.027 166.355 220.33 166.651C220.632 166.944 220.784 167.36 220.784 167.898C220.784 168.427 220.634 168.833 220.334 169.117C220.038 169.397 219.61 169.537 219.049 169.537H218.098ZM218.653 169.031H218.997C219.255 169.031 219.476 168.996 219.661 168.925C219.846 168.852 219.986 168.731 220.081 168.562C220.177 168.394 220.225 168.166 220.225 167.879C220.225 167.592 220.177 167.365 220.081 167.196C219.989 167.024 219.854 166.901 219.675 166.828C219.5 166.752 219.29 166.713 219.044 166.713H218.653V169.031ZM221.327 169.537V166.207H222.283C222.831 166.207 223.256 166.355 223.558 166.651C223.861 166.944 224.012 167.36 224.012 167.898C224.012 168.427 223.863 168.833 223.563 169.117C223.267 169.397 222.839 169.537 222.278 169.537H221.327ZM221.881 169.031H222.225C222.483 169.031 222.705 168.996 222.89 168.925C223.074 168.852 223.214 168.731 223.31 168.562C223.406 168.394 223.453 168.166 223.453 167.879C223.453 167.592 223.406 167.365 223.31 167.196C223.218 167.024 223.082 166.901 222.904 166.828C222.729 166.752 222.518 166.713 222.273 166.713H221.881V169.031ZM224.556 169.537V166.207H225.11V169.537H224.556ZM226.567 169.537V166.699H225.506V166.207H228.181V166.699H227.126V169.537H226.567ZM229.806 169.537V168.749H228.296V168.338L229.863 166.207H230.336V168.257H230.866V168.749H230.336V169.537H229.806ZM228.716 168.443L228.697 168.257H229.806V166.747L229.873 166.814L228.716 168.443Z" fill="#FAFAFA"/>
<circle cx="224.13" cy="216.13" r="15.1296" fill="#C3E1E6"/>
<path d="M219.428 218.537L220.546 216.874L219.438 215.207H220.097L220.933 216.487L221.764 215.207H222.424L221.31 216.874L222.433 218.537H221.774L220.928 217.271L220.087 218.537H219.428ZM222.845 218.537V215.207H223.399V218.537H222.845ZM225.152 218.599C224.801 218.599 224.515 218.508 224.292 218.327C224.072 218.145 223.936 217.903 223.886 217.601L224.425 217.467C224.46 217.677 224.543 217.836 224.674 217.945C224.808 218.053 224.972 218.107 225.166 218.107C225.274 218.107 225.371 218.088 225.457 218.05C225.543 218.008 225.61 217.951 225.658 217.878C225.709 217.805 225.735 217.722 225.735 217.629C225.735 217.531 225.707 217.449 225.653 217.386C225.599 217.319 225.521 217.26 225.419 217.209C225.317 217.155 225.193 217.099 225.047 217.042C224.846 216.965 224.675 216.882 224.535 216.793C224.395 216.704 224.288 216.599 224.215 216.478C224.142 216.354 224.105 216.207 224.105 216.038C224.105 215.863 224.148 215.709 224.234 215.575C224.32 215.438 224.441 215.331 224.597 215.255C224.753 215.178 224.933 215.14 225.137 215.14C225.357 215.14 225.551 215.189 225.72 215.288C225.889 215.387 226.024 215.537 226.126 215.737L225.687 216.005C225.62 215.884 225.539 215.791 225.443 215.728C225.348 215.661 225.239 215.627 225.118 215.627C225.032 215.627 224.954 215.645 224.884 215.68C224.814 215.712 224.758 215.758 224.717 215.819C224.679 215.879 224.66 215.949 224.66 216.029C224.66 216.112 224.683 216.185 224.731 216.249C224.779 216.309 224.852 216.365 224.951 216.416C225.053 216.467 225.182 216.522 225.338 216.583C225.539 216.659 225.709 216.742 225.849 216.831C225.989 216.921 226.096 217.027 226.169 217.152C226.246 217.273 226.284 217.421 226.284 217.596C226.284 217.79 226.236 217.962 226.141 218.112C226.045 218.262 225.911 218.381 225.739 218.47C225.57 218.556 225.375 218.599 225.152 218.599ZM227.571 218.537V215.699H226.51V215.207H229.186V215.699H228.13V218.537H227.571Z" fill="#336699"/>
<circle cx="311.145" cy="227.145" r="15.1449" fill="#C3E1E6"/>
<path d="M302.43 229.551L303.75 226.217H304.17L305.486 229.551H304.883L303.96 227.026L303.037 229.551H302.43ZM303.252 228.853L303.424 228.36H304.491L304.673 228.853H303.252ZM305.878 229.551V226.217H306.692L307.624 228.709H307.524L308.461 226.217H309.269V229.551H308.715V226.863L308.762 226.873L307.844 229.259H307.304L306.381 226.873L306.433 226.863V229.551H305.878ZM309.946 229.551V226.217H310.501V229.551H309.946ZM312.586 229.618C312.286 229.618 312.02 229.546 311.787 229.403C311.554 229.259 311.372 229.057 311.242 228.795C311.111 228.534 311.046 228.229 311.046 227.882C311.046 227.534 311.111 227.231 311.242 226.973C311.376 226.712 311.561 226.509 311.796 226.366C312.032 226.222 312.307 226.15 312.619 226.15C312.967 226.15 313.266 226.236 313.518 226.409C313.773 226.581 313.957 226.82 314.068 227.126L313.552 227.313C313.475 227.112 313.357 226.955 313.198 226.844C313.038 226.732 312.845 226.676 312.619 226.676C312.412 226.676 312.232 226.726 312.079 226.825C311.926 226.924 311.806 227.062 311.72 227.241C311.637 227.419 311.596 227.633 311.596 227.882C311.596 228.13 311.637 228.346 311.72 228.527C311.806 228.706 311.926 228.845 312.079 228.943C312.232 229.042 312.412 229.092 312.619 229.092C312.727 229.092 312.837 229.077 312.949 229.049C313.061 229.017 313.164 228.964 313.26 228.891C313.356 228.817 313.432 228.715 313.489 228.585C313.55 228.451 313.58 228.283 313.58 228.083V227.872L313.705 228.255H312.753V227.762H314.068V229.551H313.58L313.504 228.972L313.599 229.049C313.539 229.176 313.458 229.283 313.356 229.369C313.257 229.452 313.14 229.514 313.006 229.556C312.876 229.597 312.735 229.618 312.586 229.618ZM316.131 229.618C315.819 229.618 315.545 229.546 315.309 229.403C315.073 229.259 314.888 229.057 314.754 228.795C314.623 228.534 314.558 228.231 314.558 227.886C314.558 227.539 314.623 227.234 314.754 226.973C314.888 226.712 315.073 226.509 315.309 226.366C315.545 226.222 315.819 226.15 316.131 226.15C316.45 226.15 316.728 226.222 316.963 226.366C317.203 226.509 317.388 226.712 317.518 226.973C317.652 227.231 317.719 227.536 317.719 227.886C317.719 228.234 317.652 228.538 317.518 228.8C317.384 229.058 317.198 229.259 316.959 229.403C316.723 229.546 316.447 229.618 316.131 229.618ZM316.131 229.092C316.345 229.092 316.528 229.042 316.681 228.943C316.834 228.845 316.952 228.706 317.035 228.527C317.121 228.346 317.164 228.132 317.164 227.886C317.164 227.638 317.121 227.424 317.035 227.246C316.952 227.064 316.834 226.924 316.681 226.825C316.528 226.726 316.345 226.676 316.131 226.676C315.924 226.676 315.744 226.726 315.591 226.825C315.438 226.92 315.318 227.059 315.232 227.241C315.149 227.419 315.108 227.635 315.108 227.886C315.108 228.135 315.149 228.35 315.232 228.532C315.315 228.711 315.433 228.849 315.586 228.948C315.742 229.044 315.924 229.092 316.131 229.092ZM318.135 229.551V229.139C318.241 229.06 318.363 228.969 318.504 228.867C318.644 228.765 318.786 228.653 318.929 228.532C319.076 228.411 319.212 228.282 319.336 228.145C319.46 228.004 319.561 227.859 319.637 227.709C319.717 227.56 319.757 227.405 319.757 227.246C319.757 227.086 319.714 226.955 319.628 226.853C319.542 226.748 319.409 226.696 319.231 226.696C319.094 226.696 318.982 226.729 318.896 226.796C318.81 226.863 318.746 226.952 318.705 227.064C318.663 227.172 318.641 227.29 318.638 227.418L318.116 227.375C318.116 227.222 318.14 227.075 318.188 226.935C318.239 226.791 318.312 226.664 318.408 226.552C318.504 226.437 318.622 226.348 318.762 226.284C318.902 226.217 319.063 226.184 319.245 226.184C319.449 226.184 319.628 226.227 319.781 226.313C319.937 226.399 320.058 226.52 320.144 226.676C320.233 226.833 320.278 227.016 320.278 227.226C320.278 227.399 320.248 227.564 320.187 227.724C320.13 227.883 320.047 228.036 319.938 228.183C319.833 228.326 319.709 228.464 319.565 228.594C319.422 228.722 319.266 228.843 319.097 228.958C318.928 229.069 318.749 229.171 318.561 229.264L318.7 229.058H320.412V229.551H318.135Z" fill="#336699"/>
<circle cx="275.145" cy="266.145" r="15.1449" fill="#C3E1E6"/>
<path d="M269.618 268.551L270.938 265.217H271.359L272.674 268.551H272.072L271.148 266.025L270.225 268.551H269.618ZM270.441 267.852L270.613 267.36H271.679L271.861 267.852H270.441ZM274.143 268.613C273.792 268.613 273.505 268.522 273.282 268.34C273.062 268.158 272.927 267.916 272.876 267.613L273.416 267.479C273.451 267.69 273.534 267.849 273.665 267.958C273.799 268.066 273.963 268.12 274.157 268.12C274.266 268.12 274.363 268.101 274.449 268.063C274.535 268.021 274.602 267.964 274.65 267.891C274.701 267.817 274.726 267.734 274.726 267.642C274.726 267.543 274.699 267.462 274.645 267.398C274.591 267.331 274.513 267.272 274.411 267.221C274.309 267.167 274.184 267.111 274.038 267.054C273.837 266.977 273.666 266.894 273.526 266.805C273.386 266.716 273.279 266.611 273.206 266.489C273.132 266.365 273.096 266.218 273.096 266.049C273.096 265.874 273.139 265.719 273.225 265.585C273.311 265.448 273.432 265.342 273.588 265.265C273.744 265.188 273.925 265.15 274.129 265.15C274.349 265.15 274.543 265.2 274.712 265.298C274.881 265.397 275.017 265.547 275.119 265.748L274.679 266.016C274.612 265.895 274.53 265.802 274.435 265.738C274.339 265.672 274.231 265.638 274.11 265.638C274.023 265.638 273.945 265.656 273.875 265.691C273.805 265.723 273.749 265.769 273.708 265.829C273.67 265.89 273.65 265.96 273.65 266.04C273.65 266.123 273.674 266.196 273.722 266.26C273.77 266.32 273.843 266.376 273.942 266.427C274.044 266.478 274.173 266.534 274.33 266.595C274.53 266.671 274.701 266.754 274.841 266.843C274.982 266.933 275.088 267.039 275.162 267.164C275.238 267.285 275.276 267.433 275.276 267.608C275.276 267.803 275.229 267.975 275.133 268.125C275.037 268.275 274.903 268.394 274.731 268.484C274.562 268.57 274.366 268.613 274.143 268.613ZM275.804 268.551V265.217H276.378L277.985 267.828H277.846V265.217H278.401V268.551H277.817L276.225 265.935H276.359V268.551H275.804ZM280.154 268.613C279.803 268.613 279.516 268.522 279.293 268.34C279.073 268.158 278.938 267.916 278.887 267.613L279.427 267.479C279.462 267.69 279.545 267.849 279.676 267.958C279.81 268.066 279.974 268.12 280.168 268.12C280.277 268.12 280.374 268.101 280.46 268.063C280.546 268.021 280.613 267.964 280.661 267.891C280.712 267.817 280.737 267.734 280.737 267.642C280.737 267.543 280.71 267.462 280.656 267.398C280.602 267.331 280.524 267.272 280.422 267.221C280.32 267.167 280.195 267.111 280.049 267.054C279.848 266.977 279.677 266.894 279.537 266.805C279.397 266.716 279.29 266.611 279.217 266.489C279.143 266.365 279.107 266.218 279.107 266.049C279.107 265.874 279.15 265.719 279.236 265.585C279.322 265.448 279.443 265.342 279.599 265.265C279.755 265.188 279.936 265.15 280.14 265.15C280.36 265.15 280.554 265.2 280.723 265.298C280.892 265.397 281.028 265.547 281.13 265.748L280.69 266.016C280.623 265.895 280.541 265.802 280.446 265.738C280.35 265.672 280.242 265.638 280.12 265.638C280.034 265.638 279.956 265.656 279.886 265.691C279.816 265.723 279.76 265.769 279.719 265.829C279.68 265.89 279.661 265.96 279.661 266.04C279.661 266.123 279.685 266.196 279.733 266.26C279.781 266.32 279.854 266.376 279.953 266.427C280.055 266.478 280.184 266.534 280.34 266.595C280.541 266.671 280.712 266.754 280.852 266.843C280.993 266.933 281.099 267.039 281.173 267.164C281.249 267.285 281.287 267.433 281.287 267.608C281.287 267.803 281.24 267.975 281.144 268.125C281.048 268.275 280.914 268.394 280.742 268.484C280.573 268.57 280.377 268.613 280.154 268.613Z" fill="#336699"/>
<circle cx="352.465" cy="197.465" r="15.4651" fill="#7187C3"/>
<path d="M346.821 199.837L348.169 196.433H348.599L349.942 199.837H349.327L348.384 197.259L347.442 199.837H346.821ZM347.661 199.124L347.837 198.621H348.926L349.112 199.124H347.661ZM350.681 199.837V196.936H349.597V196.433H352.332V196.936H351.253V199.837H350.681ZM352.742 199.837V196.433H355.003V196.936H353.309V197.84H354.779V198.348H353.309V199.837H352.742ZM356.471 199.881C356.22 199.881 356.001 199.836 355.812 199.744C355.623 199.65 355.476 199.52 355.372 199.354C355.268 199.188 355.216 198.994 355.216 198.773L355.758 198.738C355.758 198.927 355.825 199.079 355.958 199.193C356.092 199.303 356.268 199.359 356.486 199.359C356.632 199.359 356.756 199.338 356.857 199.295C356.961 199.25 357.039 199.184 357.091 199.1C357.147 199.015 357.174 198.916 357.174 198.802C357.174 198.701 357.153 198.616 357.111 198.548C357.069 198.48 357.008 198.426 356.93 198.387C356.855 198.344 356.763 198.315 356.652 198.299C356.544 198.279 356.424 198.27 356.29 198.27V197.84C356.385 197.84 356.474 197.832 356.559 197.815C356.644 197.799 356.717 197.773 356.779 197.737C356.844 197.698 356.894 197.649 356.93 197.591C356.966 197.529 356.984 197.452 356.984 197.361C356.984 197.27 356.961 197.19 356.916 197.122C356.873 197.054 356.813 197.001 356.735 196.966C356.66 196.927 356.57 196.907 356.466 196.907C356.29 196.907 356.154 196.954 356.056 197.049C355.958 197.143 355.908 197.267 355.905 197.42L355.372 197.386C355.372 197.19 355.419 197.018 355.514 196.868C355.608 196.718 355.739 196.601 355.905 196.516C356.074 196.432 356.266 196.389 356.481 196.389C356.686 196.389 356.867 196.428 357.023 196.507C357.179 196.585 357.301 196.692 357.389 196.829C357.48 196.966 357.526 197.125 357.526 197.308C357.526 197.392 357.515 197.47 357.492 197.542C357.469 197.614 357.435 197.679 357.389 197.737C357.347 197.793 357.296 197.841 357.238 197.884C357.179 197.926 357.116 197.962 357.047 197.991C357.142 198.021 357.23 198.058 357.311 198.104C357.393 198.149 357.463 198.206 357.521 198.274C357.583 198.343 357.63 198.421 357.663 198.509C357.699 198.597 357.716 198.696 357.716 198.807C357.716 199.018 357.664 199.206 357.56 199.368C357.456 199.528 357.309 199.653 357.121 199.744C356.935 199.836 356.719 199.881 356.471 199.881Z" fill="#FAFAFA"/>
<circle cx="396.535" cy="159.465" r="15.4651" fill="#7187C3"/>
<path d="M391.184 161.837V158.433H392.273C392.651 158.433 392.937 158.515 393.133 158.678C393.328 158.84 393.426 159.084 393.426 159.41C393.426 159.736 393.326 159.985 393.128 160.157C392.933 160.327 392.648 160.411 392.273 160.411H391.746V161.837H391.184ZM391.746 159.908H392.215C392.416 159.908 392.574 159.871 392.688 159.796C392.802 159.721 392.859 159.596 392.859 159.42C392.859 159.247 392.804 159.124 392.693 159.049C392.586 158.974 392.426 158.936 392.215 158.936H391.746V159.908ZM393.912 161.837V158.433H394.479V161.334H395.949V161.837H393.912ZM396.066 161.837L397.414 158.433H397.843L399.186 161.837H398.571L397.629 159.259L396.686 161.837H396.066ZM396.906 161.124L397.082 160.621H398.171L398.356 161.124H396.906ZM399.926 161.837V158.936H398.842V158.433H401.576V158.936H400.497V161.837H399.926Z" fill="#FAFAFA"/>
<circle cx="397.465" cy="205.465" r="15.4651" fill="#C3E1E6"/>
<path d="M390.486 207.837V204.433H391.053V205.825H392.586V204.433H393.153V207.837H392.586V206.348H391.053V207.837H390.486ZM394.948 207.901C394.589 207.901 394.296 207.808 394.068 207.622C393.844 207.437 393.705 207.189 393.653 206.88L394.205 206.743C394.241 206.958 394.326 207.121 394.459 207.232C394.596 207.342 394.764 207.398 394.962 207.398C395.073 207.398 395.172 207.378 395.26 207.339C395.348 207.297 395.416 207.238 395.465 207.163C395.517 207.088 395.543 207.004 395.543 206.909C395.543 206.808 395.516 206.725 395.46 206.66C395.405 206.592 395.325 206.532 395.221 206.479C395.117 206.424 394.99 206.367 394.84 206.309C394.635 206.23 394.461 206.146 394.318 206.055C394.174 205.963 394.065 205.856 393.99 205.732C393.915 205.605 393.878 205.456 393.878 205.283C393.878 205.104 393.922 204.946 394.01 204.809C394.098 204.669 394.222 204.56 394.381 204.482C394.541 204.404 394.725 204.365 394.933 204.365C395.158 204.365 395.356 204.415 395.529 204.516C395.701 204.617 395.84 204.77 395.944 204.975L395.495 205.249C395.426 205.125 395.343 205.031 395.245 204.966C395.148 204.897 395.037 204.863 394.913 204.863C394.825 204.863 394.746 204.881 394.674 204.917C394.602 204.949 394.545 204.996 394.503 205.058C394.464 205.12 394.445 205.192 394.445 205.273C394.445 205.358 394.469 205.433 394.518 205.498C394.567 205.56 394.642 205.617 394.742 205.669C394.847 205.721 394.978 205.778 395.138 205.84C395.343 205.918 395.517 206.003 395.661 206.094C395.804 206.185 395.913 206.294 395.988 206.421C396.066 206.545 396.105 206.696 396.105 206.875C396.105 207.074 396.056 207.249 395.958 207.403C395.861 207.556 395.724 207.678 395.548 207.769C395.376 207.857 395.175 207.901 394.948 207.901ZM396.644 207.837V204.433H397.733C398.11 204.433 398.397 204.515 398.592 204.677C398.787 204.84 398.885 205.084 398.885 205.41C398.885 205.736 398.786 205.985 398.587 206.157C398.392 206.326 398.107 206.411 397.733 206.411H397.205V207.837H396.644ZM397.205 205.908H397.674C397.876 205.908 398.034 205.871 398.148 205.796C398.262 205.721 398.319 205.596 398.319 205.42C398.319 205.247 398.263 205.123 398.153 205.049C398.045 204.974 397.886 204.936 397.674 204.936H397.205V205.908ZM398.673 207.837L400.021 204.433H400.451L401.794 207.837H401.178L400.236 205.259L399.293 207.837H398.673ZM399.513 207.124L399.689 206.621H400.778L400.964 207.124H399.513ZM403.758 204.433L402.908 205.757L402.84 205.669C402.905 205.636 402.97 205.612 403.035 205.596C403.1 205.579 403.165 205.571 403.23 205.571C403.448 205.571 403.644 205.622 403.816 205.723C403.992 205.823 404.131 205.96 404.231 206.133C404.332 206.305 404.383 206.497 404.383 206.709C404.383 206.937 404.326 207.139 404.212 207.315C404.101 207.49 403.953 207.629 403.767 207.73C403.585 207.831 403.382 207.881 403.157 207.881C402.936 207.881 402.731 207.831 402.542 207.73C402.356 207.629 402.208 207.49 402.097 207.315C401.987 207.139 401.931 206.939 401.931 206.714C401.931 206.603 401.947 206.494 401.98 206.387C402.016 206.279 402.061 206.177 402.117 206.079L403.137 204.433H403.758ZM403.157 206.05C403.037 206.05 402.924 206.077 402.82 206.133C402.719 206.188 402.638 206.266 402.576 206.367C402.514 206.465 402.483 206.579 402.483 206.709C402.483 206.839 402.514 206.955 402.576 207.056C402.638 207.153 402.719 207.23 402.82 207.285C402.921 207.341 403.033 207.368 403.157 207.368C403.284 207.368 403.398 207.341 403.499 207.285C403.6 207.23 403.68 207.153 403.738 207.056C403.8 206.955 403.831 206.839 403.831 206.709C403.831 206.579 403.8 206.465 403.738 206.367C403.68 206.266 403.6 206.188 403.499 206.133C403.398 206.077 403.284 206.05 403.157 206.05Z" fill="#336699"/>
<circle cx="275.2" cy="54.2" r="15.2" fill="#EEEEEE"/>
<path d="M266.79 55.6448C266.581 55.6448 266.398 55.5968 266.24 55.5008C266.082 55.4048 265.958 55.2693 265.869 55.0944C265.781 54.9194 265.738 54.7157 265.738 54.4832C265.738 54.2506 265.781 54.048 265.869 53.8752C265.958 53.7002 266.082 53.5648 266.24 53.4688C266.398 53.3728 266.581 53.3248 266.79 53.3248C267.023 53.3248 267.224 53.3824 267.392 53.4976C267.563 53.6128 267.685 53.7728 267.76 53.9776L267.414 54.1024C267.363 53.968 267.284 53.8634 267.178 53.7888C267.071 53.7141 266.942 53.6768 266.79 53.6768C266.652 53.6768 266.531 53.7098 266.429 53.776C266.326 53.8421 266.246 53.9349 266.189 54.0544C266.133 54.1738 266.106 54.3168 266.106 54.4832C266.106 54.6496 266.133 54.7936 266.189 54.9152C266.246 55.0346 266.326 55.1274 266.429 55.1936C266.531 55.2597 266.652 55.2928 266.79 55.2928C266.942 55.2928 267.071 55.2554 267.178 55.1808C267.284 55.104 267.363 54.9994 267.414 54.8672L267.76 54.992C267.685 55.1925 267.563 55.3514 267.392 55.4688C267.224 55.5861 267.023 55.6448 266.79 55.6448ZM268.093 55.6V53.3696H269.575V53.6992H268.464V54.2912H269.488V54.624H268.464V55.2704H269.575V55.6H268.093ZM269.949 55.6V53.3696H271.431V53.6992H270.32V54.2912H271.284V54.624H270.32V55.6H269.949ZM272.385 55.6416C272.15 55.6416 271.958 55.5808 271.809 55.4592C271.662 55.3376 271.571 55.1754 271.537 54.9728L271.898 54.8832C271.922 55.024 271.977 55.1306 272.065 55.2032C272.154 55.2757 272.264 55.312 272.394 55.312C272.467 55.312 272.532 55.2992 272.59 55.2736C272.647 55.2458 272.692 55.2074 272.724 55.1584C272.758 55.1093 272.775 55.0538 272.775 54.992C272.775 54.9258 272.757 54.8714 272.721 54.8288C272.685 54.784 272.632 54.7445 272.564 54.7104C272.496 54.6741 272.413 54.6368 272.314 54.5984C272.18 54.5472 272.066 54.4917 271.972 54.432C271.878 54.3722 271.807 54.3018 271.758 54.2208C271.709 54.1376 271.684 54.0394 271.684 53.9264C271.684 53.809 271.713 53.7056 271.77 53.616C271.828 53.5242 271.909 53.4528 272.014 53.4016C272.118 53.3504 272.239 53.3248 272.375 53.3248C272.522 53.3248 272.653 53.3578 272.766 53.424C272.879 53.4901 272.969 53.5904 273.038 53.7248L272.743 53.904C272.698 53.8229 272.644 53.761 272.58 53.7184C272.516 53.6736 272.443 53.6512 272.362 53.6512C272.305 53.6512 272.253 53.6629 272.206 53.6864C272.159 53.7077 272.121 53.7386 272.094 53.7792C272.068 53.8197 272.055 53.8666 272.055 53.92C272.055 53.9754 272.071 54.0245 272.103 54.0672C272.135 54.1077 272.184 54.145 272.25 54.1792C272.319 54.2133 272.405 54.2506 272.51 54.2912C272.644 54.3424 272.758 54.3978 272.852 54.4576C272.946 54.5173 273.017 54.5888 273.066 54.672C273.118 54.753 273.143 54.8522 273.143 54.9696C273.143 55.0997 273.111 55.2149 273.047 55.3152C272.983 55.4154 272.894 55.4954 272.778 55.5552C272.665 55.6128 272.534 55.6416 272.385 55.6416ZM274.318 55.6448C274.043 55.6448 273.833 55.5733 273.688 55.4304C273.545 55.2874 273.474 55.0752 273.474 54.7936V53.3696H273.845V54.752C273.845 54.8736 273.859 54.976 273.886 55.0592C273.916 55.1402 273.965 55.2021 274.034 55.2448C274.104 55.2853 274.199 55.3056 274.318 55.3056C274.438 55.3056 274.532 55.2842 274.6 55.2416C274.67 55.1989 274.721 55.137 274.75 55.056C274.78 54.9749 274.795 54.8736 274.795 54.752V53.3696H275.163V54.7776C275.163 55.0656 275.092 55.2821 274.949 55.4272C274.806 55.5722 274.596 55.6448 274.318 55.6448ZM275.599 55.6V53.3696H275.97V55.2704H276.934V55.6H275.599ZM278.065 55.6448C277.856 55.6448 277.673 55.5968 277.515 55.5008C277.357 55.4048 277.233 55.2693 277.144 55.0944C277.056 54.9194 277.013 54.7168 277.013 54.4864C277.013 54.2538 277.056 54.0501 277.144 53.8752C277.233 53.7002 277.357 53.5648 277.515 53.4688C277.673 53.3728 277.856 53.3248 278.065 53.3248C278.279 53.3248 278.464 53.3728 278.622 53.4688C278.782 53.5648 278.906 53.7002 278.993 53.8752C279.083 54.048 279.128 54.2517 279.128 54.4864C279.128 54.7189 279.083 54.9226 278.993 55.0976C278.904 55.2704 278.779 55.4048 278.619 55.5008C278.461 55.5968 278.277 55.6448 278.065 55.6448ZM278.065 55.2928C278.208 55.2928 278.331 55.2597 278.433 55.1936C278.536 55.1274 278.615 55.0346 278.67 54.9152C278.728 54.7936 278.757 54.6506 278.757 54.4864C278.757 54.32 278.728 54.177 278.67 54.0576C278.615 53.936 278.536 53.8421 278.433 53.776C278.331 53.7098 278.208 53.6768 278.065 53.6768C277.927 53.6768 277.806 53.7098 277.704 53.776C277.601 53.84 277.521 53.9328 277.464 54.0544C277.408 54.1738 277.381 54.3178 277.381 54.4864C277.381 54.6528 277.408 54.7968 277.464 54.9184C277.519 55.0378 277.598 55.1306 277.701 55.1968C277.805 55.2608 277.927 55.2928 278.065 55.2928ZM279.496 55.6V53.3696H280.136C280.503 53.3696 280.788 53.4688 280.99 53.6672C281.193 53.8634 281.294 54.1418 281.294 54.5024C281.294 54.8565 281.194 55.1285 280.994 55.3184C280.795 55.5061 280.508 55.6 280.133 55.6H279.496ZM279.867 55.2608H280.098C280.27 55.2608 280.419 55.2373 280.542 55.1904C280.666 55.1413 280.76 55.0602 280.824 54.9472C280.888 54.8341 280.92 54.6816 280.92 54.4896C280.92 54.2976 280.888 54.145 280.824 54.032C280.762 53.9168 280.672 53.8346 280.552 53.7856C280.435 53.7344 280.294 53.7088 280.13 53.7088H279.867V55.2608ZM281.659 55.6V53.3696H282.03V55.6H281.659ZM282.484 55.6V53.3696H282.868L283.943 55.1168H283.85V53.3696H284.221V55.6H283.831L282.765 53.8496H282.855V55.6H282.484Z" fill="#336699"/>
<circle cx="353.2" cy="53.2" r="15.2" fill="#7187C3"/>
<path d="M345.541 55.6001V52.2545H346.098V53.6225H347.605V52.2545H348.162V55.6001H347.605V54.1361H346.098V55.6001H345.541ZM348.846 55.6001V52.2545H349.662L350.598 54.7553H350.497L351.438 52.2545H352.249V55.6001H351.692V52.9025L351.74 52.9121L350.818 55.3073H350.276L349.35 52.9121L349.402 52.9025V55.6001H348.846ZM354.373 55.6673C354.06 55.6673 353.784 55.5953 353.548 55.4513C353.311 55.3073 353.125 55.1041 352.991 54.8417C352.86 54.5793 352.794 54.2753 352.794 53.9297C352.794 53.5809 352.86 53.2753 352.991 53.0129C353.125 52.7505 353.311 52.5473 353.548 52.4033C353.784 52.2593 354.06 52.1873 354.373 52.1873C354.693 52.1873 354.972 52.2593 355.208 52.4033C355.448 52.5473 355.634 52.7505 355.765 53.0129C355.9 53.2721 355.967 53.5777 355.967 53.9297C355.967 54.2785 355.9 54.5841 355.765 54.8465C355.631 55.1057 355.444 55.3073 355.204 55.4513C354.967 55.5953 354.69 55.6673 354.373 55.6673ZM354.373 55.1393C354.588 55.1393 354.772 55.0897 354.925 54.9905C355.079 54.8913 355.197 54.7521 355.28 54.5729C355.367 54.3905 355.41 54.1761 355.41 53.9297C355.41 53.6801 355.367 53.4657 355.28 53.2865C355.197 53.1041 355.079 52.9633 354.925 52.8641C354.772 52.7649 354.588 52.7153 354.373 52.7153C354.165 52.7153 353.984 52.7649 353.831 52.8641C353.677 52.9601 353.557 53.0993 353.471 53.2817C353.388 53.4609 353.346 53.6769 353.346 53.9297C353.346 54.1793 353.388 54.3953 353.471 54.5777C353.554 54.7569 353.672 54.8961 353.826 54.9953C353.983 55.0913 354.165 55.1393 354.373 55.1393ZM356.025 55.6001L357.149 53.9297L356.035 52.2545H356.697L357.537 53.5409L358.373 52.2545H359.035L357.917 53.9297L359.045 55.6001H358.382L357.533 54.3281L356.688 55.6001H356.025ZM360.452 55.6001V52.9361L360.61 53.2049H359.588V52.7777H360.125C360.234 52.7777 360.316 52.7553 360.37 52.7105C360.425 52.6657 360.452 52.5857 360.452 52.4705V52.2545H360.985V55.6001H360.452Z" fill="#FAFAFA"/>
<circle cx="389.8" cy="94.3999" r="15.2" fill="#C3E1E6"/>
<path d="M383.741 96.8V93.4544H384.883C385.21 93.4544 385.466 93.5296 385.651 93.68C385.84 93.8272 385.934 94.032 385.934 94.2944C385.934 94.4544 385.901 94.5952 385.834 94.7168C385.766 94.8352 385.672 94.9296 385.55 95C385.736 95.0608 385.875 95.1616 385.968 95.3024C386.061 95.4432 386.107 95.6192 386.107 95.8304C386.107 96.1344 386.011 96.3728 385.819 96.5456C385.63 96.7152 385.365 96.8 385.022 96.8H383.741ZM384.298 96.2912H384.979C385.363 96.2912 385.555 96.1296 385.555 95.8064C385.555 95.6528 385.509 95.5344 385.416 95.4512C385.326 95.3648 385.2 95.3216 385.037 95.3216H384.298V96.2912ZM384.298 94.8224H384.922C385.062 94.8224 385.174 94.784 385.258 94.7072C385.341 94.6272 385.382 94.5184 385.382 94.3808C385.382 94.2496 385.338 94.1472 385.248 94.0736C385.162 94 385.04 93.9632 384.883 93.9632H384.298V94.8224ZM386.373 96.8L387.698 93.4544H388.12L389.44 96.8H388.835L387.909 94.2656L386.983 96.8H386.373ZM387.199 96.0992L387.371 95.6048H388.442L388.624 96.0992H387.199ZM391.091 96.8672C390.79 96.8672 390.523 96.7952 390.289 96.6512C390.056 96.5072 389.873 96.304 389.742 96.0416C389.611 95.7792 389.545 95.4736 389.545 95.1248C389.545 94.776 389.611 94.472 389.742 94.2128C389.877 93.9504 390.062 93.7472 390.299 93.6032C390.536 93.4592 390.811 93.3872 391.125 93.3872C391.473 93.3872 391.774 93.4736 392.027 93.6464C392.283 93.8192 392.467 94.0592 392.579 94.3664L392.061 94.5536C391.984 94.352 391.865 94.1952 391.705 94.0832C391.545 93.9712 391.352 93.9152 391.125 93.9152C390.917 93.9152 390.736 93.9648 390.582 94.064C390.429 94.1632 390.309 94.3024 390.222 94.4816C390.139 94.6608 390.097 94.8752 390.097 95.1248C390.097 95.3744 390.139 95.5904 390.222 95.7728C390.309 95.952 390.429 96.0912 390.582 96.1904C390.736 96.2896 390.917 96.3392 391.125 96.3392C391.233 96.3392 391.344 96.3248 391.456 96.296C391.568 96.264 391.672 96.2112 391.768 96.1376C391.864 96.064 391.941 95.9616 391.998 95.8304C392.059 95.696 392.089 95.528 392.089 95.3264V95.1152L392.214 95.4992H391.259V95.0048H392.579V96.8H392.089L392.013 96.2192L392.109 96.296C392.048 96.424 391.966 96.5312 391.864 96.6176C391.765 96.7008 391.648 96.7632 391.513 96.8048C391.382 96.8464 391.241 96.8672 391.091 96.8672ZM394.184 96.8432C393.938 96.8432 393.722 96.7984 393.536 96.7088C393.35 96.616 393.206 96.488 393.104 96.3248C393.002 96.1616 392.95 95.9712 392.95 95.7536L393.483 95.72C393.483 95.9056 393.549 96.0544 393.68 96.1664C393.811 96.2752 393.984 96.3296 394.198 96.3296C394.342 96.3296 394.464 96.3088 394.563 96.2672C394.666 96.2224 394.742 96.1584 394.794 96.0752C394.848 95.992 394.875 95.8944 394.875 95.7824C394.875 95.6832 394.854 95.6 394.813 95.5328C394.771 95.4656 394.712 95.4128 394.635 95.3744C394.562 95.3328 394.47 95.304 394.362 95.288C394.256 95.2688 394.138 95.2592 394.006 95.2592V94.8368C394.099 94.8368 394.187 94.8288 394.27 94.8128C394.354 94.7968 394.426 94.7712 394.486 94.736C394.55 94.6976 394.6 94.6496 394.635 94.592C394.67 94.5312 394.688 94.456 394.688 94.3664C394.688 94.2768 394.666 94.1984 394.621 94.1312C394.579 94.064 394.52 94.0128 394.443 93.9776C394.37 93.9392 394.282 93.92 394.179 93.92C394.006 93.92 393.872 93.9664 393.776 94.0592C393.68 94.152 393.63 94.2736 393.627 94.424L393.104 94.3904C393.104 94.1984 393.15 94.0288 393.243 93.8816C393.336 93.7344 393.464 93.6192 393.627 93.536C393.794 93.4528 393.982 93.4112 394.194 93.4112C394.395 93.4112 394.573 93.4496 394.726 93.5264C394.88 93.6032 395 93.7088 395.086 93.8432C395.176 93.9776 395.221 94.1344 395.221 94.3136C395.221 94.3968 395.21 94.4736 395.187 94.544C395.165 94.6144 395.131 94.6784 395.086 94.736C395.045 94.7904 394.995 94.8384 394.938 94.88C394.88 94.9216 394.818 94.9568 394.75 94.9856C394.843 95.0144 394.93 95.0512 395.01 95.096C395.09 95.1408 395.158 95.1968 395.216 95.264C395.277 95.3312 395.323 95.408 395.355 95.4944C395.39 95.5808 395.408 95.6784 395.408 95.7872C395.408 95.9952 395.357 96.1792 395.254 96.3392C395.152 96.496 395.008 96.6192 394.822 96.7088C394.64 96.7984 394.427 96.8432 394.184 96.8432Z" fill="#336699"/>
<circle cx="238.519" cy="90.5189" r="14.5189" fill="#EEEEEE"/>
<path d="M231.094 91.9905V89.86H231.614L232.21 91.4525H232.146L232.745 89.86H233.262V91.9905H232.907V90.2727L232.938 90.2788L232.351 91.804H232.005L231.415 90.2788L231.449 90.2727V91.9905H231.094ZM233.694 91.9905V89.86H235.11V90.1749H234.049V90.7403H235.027V91.0582H234.049V91.6756H235.11V91.9905H233.694ZM236.379 92.0333C236.179 92.0333 236.004 91.9874 235.853 91.8957C235.702 91.804 235.584 91.6746 235.498 91.5075C235.415 91.3404 235.373 91.1458 235.373 90.9237C235.373 90.7016 235.415 90.508 235.498 90.343C235.584 90.1759 235.702 90.0465 235.853 89.9548C236.004 89.8631 236.179 89.8172 236.379 89.8172C236.601 89.8172 236.792 89.8723 236.953 89.9823C237.116 90.0923 237.233 90.2452 237.305 90.4408L236.975 90.56C236.926 90.4316 236.85 90.3318 236.748 90.2604C236.646 90.1891 236.523 90.1535 236.379 90.1535C236.246 90.1535 236.131 90.185 236.033 90.2482C235.935 90.3114 235.859 90.4 235.804 90.5141C235.751 90.6283 235.724 90.7648 235.724 90.9237C235.724 91.0827 235.751 91.2202 235.804 91.3364C235.859 91.4505 235.935 91.5391 236.033 91.6023C236.131 91.6655 236.246 91.697 236.379 91.697C236.523 91.697 236.646 91.6614 236.748 91.5901C236.85 91.5167 236.926 91.4169 236.975 91.2905L237.305 91.4097C237.233 91.6013 237.116 91.7531 236.953 91.8652C236.792 91.9772 236.601 92.0333 236.379 92.0333ZM237.623 91.9905V89.86H237.977V91.6756H238.897V91.9905H237.623ZM239.154 91.9905V89.86H239.508V91.9905H239.154ZM239.814 91.9905V91.697L241.064 90.0648L241.116 90.1749H239.887V89.86H241.421V90.1535L240.199 91.7429L240.153 91.6756H241.458V91.9905H239.814ZM241.769 91.9905V89.86H242.123V91.9905H241.769ZM242.557 91.9905V89.86H242.924L243.951 91.5289H243.862V89.86H244.216V91.9905H243.844L242.826 90.3185H242.911V91.9905H242.557ZM244.649 91.9905V89.86H246.064V90.1749H245.004V90.7403H245.982V91.0582H245.004V91.6756H246.064V91.9905H244.649Z" fill="#336699"/>
<circle cx="159.519" cy="83.5189" r="14.5189" fill="#EEEEEE"/>
<path d="M151.461 84.9905L150.391 82.3274H150.88L151.694 84.4518H151.56L152.363 82.3274H152.852L151.79 84.9905H151.461ZM153.165 84.9905V82.3274H153.608V84.9905H153.165ZM154.773 84.9905V82.721H153.925V82.3274H156.064V82.721H155.22V84.9905H154.773ZM155.798 84.9905L156.852 82.3274H157.188L158.239 84.9905H157.758L157.02 82.9731L156.283 84.9905H155.798ZM156.455 84.4326L156.592 84.0391H157.444L157.59 84.4326H156.455ZM158.553 84.9905V82.3274H159.202L159.948 84.318H159.867L160.616 82.3274H161.262V84.9905H160.819V82.8432L160.857 82.8509L160.123 84.7574H159.692L158.954 82.8509L158.996 82.8432V84.9905H158.553ZM161.803 84.9905V82.3274H162.246V84.9905H161.803ZM162.788 84.9905V82.3274H163.246L164.53 84.4135H164.419V82.3274H164.863V84.9905H164.396L163.124 82.9005H163.231V84.9905H162.788ZM166.167 84.9905L167.221 82.3274H167.557L168.608 84.9905H168.127L167.389 82.9731L166.652 84.9905H166.167ZM166.824 84.4326L166.961 84.0391H167.813L167.959 84.4326H166.824Z" fill="#336699"/>
<circle cx="190.519" cy="116.519" r="14.5189" fill="#C3E1E6"/>
<path d="M184.583 118.055C184.283 118.055 184.021 117.986 183.794 117.848C183.568 117.711 183.391 117.517 183.263 117.266C183.137 117.015 183.075 116.724 183.075 116.39C183.075 116.057 183.137 115.767 183.263 115.519C183.391 115.269 183.568 115.074 183.794 114.937C184.021 114.799 184.283 114.731 184.583 114.731C184.916 114.731 185.204 114.813 185.445 114.978C185.69 115.143 185.865 115.372 185.972 115.666L185.477 115.845C185.404 115.652 185.291 115.502 185.138 115.395C184.985 115.288 184.8 115.235 184.583 115.235C184.384 115.235 184.212 115.282 184.065 115.377C183.918 115.472 183.804 115.605 183.721 115.776C183.642 115.947 183.602 116.152 183.602 116.39C183.602 116.629 183.642 116.835 183.721 117.009C183.804 117.18 183.918 117.313 184.065 117.408C184.212 117.503 184.384 117.55 184.583 117.55C184.8 117.55 184.985 117.497 185.138 117.39C185.291 117.28 185.404 117.13 185.477 116.941L185.972 117.119C185.865 117.407 185.69 117.634 185.445 117.802C185.204 117.971 184.916 118.055 184.583 118.055ZM186.107 117.99L187.18 116.395L186.117 114.795H186.749L187.552 116.024L188.349 114.795H188.982L187.914 116.395L188.991 117.99H188.359L187.547 116.775L186.74 117.99H186.107ZM189.111 117.99L190.377 114.795H190.78L192.041 117.99H191.463L190.578 115.57L189.694 117.99H189.111ZM189.9 117.321L190.065 116.849H191.087L191.262 117.321H189.9ZM192.418 117.99V114.795H193.335C193.86 114.795 194.268 114.937 194.559 115.221C194.849 115.502 194.994 115.901 194.994 116.418C194.994 116.925 194.851 117.315 194.563 117.587C194.279 117.856 193.868 117.99 193.33 117.99H192.418ZM192.949 117.504H193.28C193.527 117.504 193.74 117.471 193.917 117.404C194.094 117.333 194.229 117.217 194.32 117.055C194.412 116.893 194.458 116.675 194.458 116.4C194.458 116.124 194.412 115.906 194.32 115.744C194.232 115.579 194.102 115.461 193.931 115.391C193.762 115.317 193.561 115.281 193.325 115.281H192.949V117.504ZM195.516 117.99V114.795H196.538C196.792 114.795 196.998 114.833 197.157 114.909C197.316 114.983 197.432 115.088 197.506 115.226C197.582 115.363 197.62 115.525 197.62 115.712C197.62 115.996 197.538 116.218 197.373 116.377C197.211 116.532 196.979 116.623 196.676 116.647C196.615 116.647 196.549 116.647 196.479 116.647C196.408 116.647 196.346 116.647 196.291 116.647H196.048V117.99H195.516ZM197.267 117.99L196.456 116.587L197.001 116.523L197.882 117.99H197.267ZM196.048 116.179H196.483C196.6 116.179 196.702 116.166 196.791 116.138C196.882 116.111 196.954 116.063 197.006 115.996C197.061 115.929 197.089 115.836 197.089 115.716C197.089 115.597 197.061 115.505 197.006 115.441C196.954 115.377 196.882 115.333 196.791 115.308C196.699 115.281 196.596 115.267 196.483 115.267H196.048V116.179Z" fill="#336699"/>
<path d="M121 251.5L125 235.5" stroke="#5A84AD" stroke-width="0.2" stroke-dasharray="0.4 0.4"/>
<path d="M160.5 255L156 237" stroke="#5A84AD" stroke-width="0.2" stroke-dasharray="0.4 0.4"/>
<path d="M198.5 286L178 226" stroke="#5A84AD" stroke-width="0.2" stroke-dasharray="0.4 0.4"/>
<path d="M186.5 217.5L215 258" stroke="#5A84AD" stroke-width="0.2" stroke-dasharray="0.4 0.4"/>
<path d="M197.5 198.5L212.5 208" stroke="#5A84AD" stroke-width="0.2" stroke-dasharray="0.4 0.4"/>
<path d="M198.5 171.5L209 169.5" stroke="#5A84AD" stroke-width="0.2" stroke-dasharray="0.4 0.4"/>
<path d="M67.5 179.5H86.5" stroke="#5A84AD" stroke-width="0.2" stroke-dasharray="0.4 0.4"/>
<path d="M90 136L100.5 145.5" stroke="#5A84AD" stroke-width="0.2" stroke-dasharray="0.4 0.4"/>
<path d="M129 120.5L130.5 126.5" stroke="#5A84AD" stroke-width="0.2" stroke-dasharray="0.4 0.4"/>
<path d="M157.5 98.5L154 126.5" stroke="#5A84AD" stroke-width="0.2" stroke-dasharray="0.4 0.4"/>
<path d="M249.5 100.5L257.5 107" stroke="#5A84AD" stroke-width="0.2" stroke-dasharray="0.4 0.4"/>
<path d="M271.5 203L282.5 174" stroke="#5A84AD" stroke-width="0.2" stroke-dasharray="0.4 0.4"/>
<path d="M312 212V182" stroke="#5A84AD" stroke-width="0.2" stroke-dasharray="0.4 0.4"/>
<path d="M350.5 68.5L343.5 78" stroke="#5A84AD" stroke-width="0.2" stroke-dasharray="0.4 0.4"/>
<path d="M376 101L364 107" stroke="#5A84AD" stroke-width="0.2" stroke-dasharray="0.4 0.4"/>
<path d="M384 152L363.5 145" stroke="#5A84AD" stroke-width="0.2" stroke-dasharray="0.4 0.4"/>
<path d="M386.5 194.5L355 160" stroke="#5A84AD" stroke-width="0.2" stroke-dasharray="0.4 0.4"/>
<path d="M184 130L178 137" stroke="#5A84AD" stroke-width="0.2" stroke-dasharray="0.4 0.4"/>
<path d="M281.5 252.5L295.5 179.5" stroke="#5A84AD" stroke-width="0.2" stroke-dasharray="0.4 0.4"/>
</svg>
